<svg width="32" height="32" viewBox="0 0 32 32" fill="none" xmlns="http://www.w3.org/2000/svg">
<path d="M12.2263 9.33373C11.9779 9.58355 11.8385 9.92149 11.8385 10.2737C11.8385 10.626 11.9779 10.9639 12.2263 11.2137L16.9463 16.0004L12.2263 20.7204C11.9779 20.9702 11.8385 21.3082 11.8385 21.6604C11.8385 22.0126 11.9779 22.3506 12.2263 22.6004C12.3502 22.7254 12.4977 22.8246 12.6602 22.8923C12.8226 22.9599 12.9969 22.9948 13.1729 22.9948C13.349 22.9948 13.5232 22.9599 13.6857 22.8923C13.8482 22.8246 13.9957 22.7254 14.1196 22.6004L19.7729 16.9471C19.8979 16.8231 19.9971 16.6756 20.0648 16.5132C20.1325 16.3507 20.1673 16.1764 20.1673 16.0004C20.1673 15.8244 20.1325 15.6501 20.0648 15.4876C19.9971 15.3252 19.8979 15.1777 19.7729 15.0537L14.1196 9.33373C13.9957 9.20876 13.8482 9.10957 13.6857 9.04188C13.5232 8.97419 13.349 8.93933 13.1729 8.93933C12.9969 8.93933 12.8226 8.97419 12.6602 9.04188C12.4977 9.10957 12.3502 9.20876 12.2263 9.33373Z" fill="#148CEC"/>
</svg>
