<svg width="634" height="323" viewBox="0 0 634 323" fill="none" xmlns="http://www.w3.org/2000/svg">
<path d="M15.1722 9.216C15.1722 9.852 15.0222 10.452 14.7222 11.016C14.4222 11.58 13.9422 12.042 13.2822 12.402C12.6222 12.75 11.7762 12.924 10.7442 12.924H8.47622V18H6.42422V5.49H10.7442C11.7042 5.49 12.5142 5.658 13.1742 5.994C13.8462 6.318 14.3442 6.762 14.6682 7.326C15.0042 7.89 15.1722 8.52 15.1722 9.216ZM10.7442 11.25C11.5242 11.25 12.1062 11.076 12.4902 10.728C12.8742 10.368 13.0662 9.864 13.0662 9.216C13.0662 7.848 12.2922 7.164 10.7442 7.164H8.47622V11.25H10.7442ZM19.1813 9.522C19.4813 9.018 19.8773 8.628 20.3693 8.352C20.8733 8.064 21.4673 7.92 22.1513 7.92V10.044H21.6293C20.8253 10.044 20.2133 10.248 19.7933 10.656C19.3853 11.064 19.1813 11.772 19.1813 12.78V18H17.1293V8.082H19.1813V9.522ZM25.0815 6.768C24.7095 6.768 24.3975 6.642 24.1455 6.39C23.8935 6.138 23.7675 5.826 23.7675 5.454C23.7675 5.082 23.8935 4.77 24.1455 4.518C24.3975 4.266 24.7095 4.14 25.0815 4.14C25.4415 4.14 25.7475 4.266 25.9995 4.518C26.2515 4.77 26.3775 5.082 26.3775 5.454C26.3775 5.826 26.2515 6.138 25.9995 6.39C25.7475 6.642 25.4415 6.768 25.0815 6.768ZM26.0895 8.082V18H24.0375V8.082H26.0895ZM32.6176 16.164L35.4256 8.082H37.6036L33.8236 18H31.3756L27.6136 8.082H29.8096L32.6176 16.164ZM38.4707 12.996C38.4707 12 38.6747 11.118 39.0827 10.35C39.5027 9.582 40.0667 8.988 40.7747 8.568C41.4947 8.136 42.2867 7.92 43.1507 7.92C43.9307 7.92 44.6087 8.076 45.1847 8.388C45.7727 8.688 46.2407 9.066 46.5887 9.522V8.082H48.6587V18H46.5887V16.524C46.2407 16.992 45.7667 17.382 45.1667 17.694C44.5667 18.006 43.8827 18.162 43.1147 18.162C42.2627 18.162 41.4827 17.946 40.7747 17.514C40.0667 17.07 39.5027 16.458 39.0827 15.678C38.6747 14.886 38.4707 13.992 38.4707 12.996ZM46.5887 13.032C46.5887 12.348 46.4447 11.754 46.1567 11.25C45.8807 10.746 45.5147 10.362 45.0587 10.098C44.6027 9.834 44.1107 9.702 43.5827 9.702C43.0547 9.702 42.5627 9.834 42.1067 10.098C41.6507 10.35 41.2787 10.728 40.9907 11.232C40.7147 11.724 40.5767 12.312 40.5767 12.996C40.5767 13.68 40.7147 14.28 40.9907 14.796C41.2787 15.312 41.6507 15.708 42.1067 15.984C42.5747 16.248 43.0667 16.38 43.5827 16.38C44.1107 16.38 44.6027 16.248 45.0587 15.984C45.5147 15.72 45.8807 15.336 46.1567 14.832C46.4447 14.316 46.5887 13.716 46.5887 13.032ZM53.7479 9.756V15.246C53.7479 15.618 53.8319 15.888 53.9999 16.056C54.1799 16.212 54.4799 16.29 54.8999 16.29H56.1599V18H54.5399C53.6159 18 52.9079 17.784 52.4159 17.352C51.9239 16.92 51.6779 16.218 51.6779 15.246V9.756H50.5079V8.082H51.6779V5.616H53.7479V8.082H56.1599V9.756H53.7479ZM67.1412 12.798C67.1412 13.17 67.1172 13.506 67.0692 13.806H59.4912C59.5512 14.598 59.8452 15.234 60.3732 15.714C60.9012 16.194 61.5492 16.434 62.3172 16.434C63.4212 16.434 64.2012 15.972 64.6572 15.048H66.8712C66.5712 15.96 66.0252 16.71 65.2332 17.298C64.4532 17.874 63.4812 18.162 62.3172 18.162C61.3692 18.162 60.5172 17.952 59.7612 17.532C59.0172 17.1 58.4292 16.5 57.9972 15.732C57.5772 14.952 57.3672 14.052 57.3672 13.032C57.3672 12.012 57.5712 11.118 57.9792 10.35C58.3992 9.57 58.9812 8.97 59.7252 8.55C60.4812 8.13 61.3452 7.92 62.3172 7.92C63.2532 7.92 64.0872 8.124 64.8192 8.532C65.5512 8.94 66.1212 9.516 66.5292 10.26C66.9372 10.992 67.1412 11.838 67.1412 12.798ZM64.9992 12.15C64.9872 11.394 64.7172 10.788 64.1892 10.332C63.6612 9.876 63.0072 9.648 62.2272 9.648C61.5192 9.648 60.9132 9.876 60.4092 10.332C59.9052 10.776 59.6052 11.382 59.5092 12.15H64.9992ZM80.5323 11.574C81.2043 11.694 81.7743 12.048 82.2423 12.636C82.7103 13.224 82.9443 13.89 82.9443 14.634C82.9443 15.27 82.7763 15.846 82.4403 16.362C82.1163 16.866 81.6423 17.268 81.0183 17.568C80.3943 17.856 79.6683 18 78.8403 18H73.8363V5.49H78.6063C79.4583 5.49 80.1903 5.634 80.8023 5.922C81.4143 6.21 81.8763 6.6 82.1883 7.092C82.5003 7.572 82.6563 8.112 82.6563 8.712C82.6563 9.432 82.4643 10.032 82.0803 10.512C81.6963 10.992 81.1803 11.346 80.5323 11.574ZM75.8883 10.746H78.4263C79.0983 10.746 79.6203 10.596 79.9923 10.296C80.3763 9.984 80.5683 9.54 80.5683 8.964C80.5683 8.4 80.3763 7.962 79.9923 7.65C79.6203 7.326 79.0983 7.164 78.4263 7.164H75.8883V10.746ZM78.6603 16.326C79.3563 16.326 79.9023 16.158 80.2983 15.822C80.6943 15.486 80.8923 15.018 80.8923 14.418C80.8923 13.806 80.6823 13.32 80.2623 12.96C79.8423 12.6 79.2843 12.42 78.5883 12.42H75.8883V16.326H78.6603ZM87.2262 4.68V18H85.1742V4.68H87.2262ZM94.2223 18.162C93.2863 18.162 92.4403 17.952 91.6843 17.532C90.9283 17.1 90.3343 16.5 89.9023 15.732C89.4703 14.952 89.2543 14.052 89.2543 13.032C89.2543 12.024 89.4763 11.13 89.9203 10.35C90.3643 9.57 90.9703 8.97 91.7383 8.55C92.5063 8.13 93.3643 7.92 94.3123 7.92C95.2603 7.92 96.1183 8.13 96.8863 8.55C97.6543 8.97 98.2603 9.57 98.7043 10.35C99.1483 11.13 99.3703 12.024 99.3703 13.032C99.3703 14.04 99.1423 14.934 98.6863 15.714C98.2303 16.494 97.6063 17.1 96.8143 17.532C96.0343 17.952 95.1703 18.162 94.2223 18.162ZM94.2223 16.38C94.7503 16.38 95.2423 16.254 95.6983 16.002C96.1663 15.75 96.5443 15.372 96.8323 14.868C97.1203 14.364 97.2643 13.752 97.2643 13.032C97.2643 12.312 97.1263 11.706 96.8503 11.214C96.5743 10.71 96.2083 10.332 95.7523 10.08C95.2963 9.828 94.8043 9.702 94.2763 9.702C93.7483 9.702 93.2563 9.828 92.8003 10.08C92.3563 10.332 92.0023 10.71 91.7383 11.214C91.4743 11.706 91.3423 12.312 91.3423 13.032C91.3423 14.1 91.6123 14.928 92.1523 15.516C92.7043 16.092 93.3943 16.38 94.2223 16.38ZM100.715 13.032C100.715 12.012 100.919 11.118 101.327 10.35C101.747 9.57 102.323 8.97 103.055 8.55C103.787 8.13 104.627 7.92 105.575 7.92C106.775 7.92 107.765 8.208 108.545 8.784C109.337 9.348 109.871 10.158 110.147 11.214H107.933C107.753 10.722 107.465 10.338 107.069 10.062C106.673 9.786 106.175 9.648 105.575 9.648C104.735 9.648 104.063 9.948 103.559 10.548C103.067 11.136 102.821 11.964 102.821 13.032C102.821 14.1 103.067 14.934 103.559 15.534C104.063 16.134 104.735 16.434 105.575 16.434C106.763 16.434 107.549 15.912 107.933 14.868H110.147C109.859 15.876 109.319 16.68 108.527 17.28C107.735 17.868 106.751 18.162 105.575 18.162C104.627 18.162 103.787 17.952 103.055 17.532C102.323 17.1 101.747 16.5 101.327 15.732C100.919 14.952 100.715 14.052 100.715 13.032ZM116.116 13.05L120.688 18H117.916L114.244 13.734V18H112.192V4.68H114.244V12.42L117.844 8.082H120.688L116.116 13.05ZM121.475 13.032C121.475 12.012 121.679 11.118 122.087 10.35C122.507 9.57 123.083 8.97 123.815 8.55C124.547 8.13 125.387 7.92 126.335 7.92C127.535 7.92 128.525 8.208 129.305 8.784C130.097 9.348 130.631 10.158 130.907 11.214H128.693C128.513 10.722 128.225 10.338 127.829 10.062C127.433 9.786 126.935 9.648 126.335 9.648C125.495 9.648 124.823 9.948 124.319 10.548C123.827 11.136 123.581 11.964 123.581 13.032C123.581 14.1 123.827 14.934 124.319 15.534C124.823 16.134 125.495 16.434 126.335 16.434C127.523 16.434 128.309 15.912 128.693 14.868H130.907C130.619 15.876 130.079 16.68 129.287 17.28C128.495 17.868 127.511 18.162 126.335 18.162C125.387 18.162 124.547 17.952 123.815 17.532C123.083 17.1 122.507 16.5 122.087 15.732C121.679 14.952 121.475 14.052 121.475 13.032ZM138.082 7.92C138.838 7.92 139.51 8.082 140.098 8.406C140.698 8.73 141.166 9.21 141.502 9.846C141.85 10.482 142.024 11.25 142.024 12.15V18H139.99V12.456C139.99 11.568 139.768 10.89 139.324 10.422C138.88 9.942 138.274 9.702 137.506 9.702C136.738 9.702 136.126 9.942 135.67 10.422C135.226 10.89 135.004 11.568 135.004 12.456V18H132.952V4.68H135.004V9.234C135.352 8.814 135.79 8.49 136.318 8.262C136.858 8.034 137.446 7.92 138.082 7.92ZM143.957 12.996C143.957 12 144.161 11.118 144.569 10.35C144.989 9.582 145.553 8.988 146.261 8.568C146.981 8.136 147.773 7.92 148.637 7.92C149.417 7.92 150.095 8.076 150.671 8.388C151.259 8.688 151.727 9.066 152.075 9.522V8.082H154.145V18H152.075V16.524C151.727 16.992 151.253 17.382 150.653 17.694C150.053 18.006 149.369 18.162 148.601 18.162C147.749 18.162 146.969 17.946 146.261 17.514C145.553 17.07 144.989 16.458 144.569 15.678C144.161 14.886 143.957 13.992 143.957 12.996ZM152.075 13.032C152.075 12.348 151.931 11.754 151.643 11.25C151.367 10.746 151.001 10.362 150.545 10.098C150.089 9.834 149.597 9.702 149.069 9.702C148.541 9.702 148.049 9.834 147.593 10.098C147.137 10.35 146.765 10.728 146.477 11.232C146.201 11.724 146.063 12.312 146.063 12.996C146.063 13.68 146.201 14.28 146.477 14.796C146.765 15.312 147.137 15.708 147.593 15.984C148.061 16.248 148.553 16.38 149.069 16.38C149.597 16.38 150.089 16.248 150.545 15.984C151.001 15.72 151.367 15.336 151.643 14.832C151.931 14.316 152.075 13.716 152.075 13.032ZM157.884 6.768C157.512 6.768 157.2 6.642 156.948 6.39C156.696 6.138 156.57 5.826 156.57 5.454C156.57 5.082 156.696 4.77 156.948 4.518C157.2 4.266 157.512 4.14 157.884 4.14C158.244 4.14 158.55 4.266 158.802 4.518C159.054 4.77 159.18 5.082 159.18 5.454C159.18 5.826 159.054 6.138 158.802 6.39C158.55 6.642 158.244 6.768 157.884 6.768ZM158.892 8.082V18H156.84V8.082H158.892ZM166.59 7.92C167.37 7.92 168.066 8.082 168.678 8.406C169.302 8.73 169.788 9.21 170.136 9.846C170.484 10.482 170.658 11.25 170.658 12.15V18H168.624V12.456C168.624 11.568 168.402 10.89 167.958 10.422C167.514 9.942 166.908 9.702 166.14 9.702C165.372 9.702 164.76 9.942 164.304 10.422C163.86 10.89 163.638 11.568 163.638 12.456V18H161.586V8.082H163.638V9.216C163.974 8.808 164.4 8.49 164.916 8.262C165.444 8.034 166.002 7.92 166.59 7.92Z" fill="black"/>
<path d="M472.172 9.216C472.172 9.852 472.022 10.452 471.722 11.016C471.422 11.58 470.942 12.042 470.282 12.402C469.622 12.75 468.776 12.924 467.744 12.924H465.476V18H463.424V5.49H467.744C468.704 5.49 469.514 5.658 470.174 5.994C470.846 6.318 471.344 6.762 471.668 7.326C472.004 7.89 472.172 8.52 472.172 9.216ZM467.744 11.25C468.524 11.25 469.106 11.076 469.49 10.728C469.874 10.368 470.066 9.864 470.066 9.216C470.066 7.848 469.292 7.164 467.744 7.164H465.476V11.25H467.744ZM476.181 9.522C476.481 9.018 476.877 8.628 477.369 8.352C477.873 8.064 478.467 7.92 479.151 7.92V10.044H478.629C477.825 10.044 477.213 10.248 476.793 10.656C476.385 11.064 476.181 11.772 476.181 12.78V18H474.129V8.082H476.181V9.522ZM482.082 6.768C481.71 6.768 481.398 6.642 481.146 6.39C480.894 6.138 480.768 5.826 480.768 5.454C480.768 5.082 480.894 4.77 481.146 4.518C481.398 4.266 481.71 4.14 482.082 4.14C482.442 4.14 482.748 4.266 483 4.518C483.252 4.77 483.378 5.082 483.378 5.454C483.378 5.826 483.252 6.138 483 6.39C482.748 6.642 482.442 6.768 482.082 6.768ZM483.09 8.082V18H481.038V8.082H483.09ZM489.618 16.164L492.426 8.082H494.604L490.824 18H488.376L484.614 8.082H486.81L489.618 16.164ZM495.471 12.996C495.471 12 495.675 11.118 496.083 10.35C496.503 9.582 497.067 8.988 497.775 8.568C498.495 8.136 499.287 7.92 500.151 7.92C500.931 7.92 501.609 8.076 502.185 8.388C502.773 8.688 503.241 9.066 503.589 9.522V8.082H505.659V18H503.589V16.524C503.241 16.992 502.767 17.382 502.167 17.694C501.567 18.006 500.883 18.162 500.115 18.162C499.263 18.162 498.483 17.946 497.775 17.514C497.067 17.07 496.503 16.458 496.083 15.678C495.675 14.886 495.471 13.992 495.471 12.996ZM503.589 13.032C503.589 12.348 503.445 11.754 503.157 11.25C502.881 10.746 502.515 10.362 502.059 10.098C501.603 9.834 501.111 9.702 500.583 9.702C500.055 9.702 499.563 9.834 499.107 10.098C498.651 10.35 498.279 10.728 497.991 11.232C497.715 11.724 497.577 12.312 497.577 12.996C497.577 13.68 497.715 14.28 497.991 14.796C498.279 15.312 498.651 15.708 499.107 15.984C499.575 16.248 500.067 16.38 500.583 16.38C501.111 16.38 501.603 16.248 502.059 15.984C502.515 15.72 502.881 15.336 503.157 14.832C503.445 14.316 503.589 13.716 503.589 13.032ZM510.748 9.756V15.246C510.748 15.618 510.832 15.888 511 16.056C511.18 16.212 511.48 16.29 511.9 16.29H513.16V18H511.54C510.616 18 509.908 17.784 509.416 17.352C508.924 16.92 508.678 16.218 508.678 15.246V9.756H507.508V8.082H508.678V5.616H510.748V8.082H513.16V9.756H510.748ZM524.141 12.798C524.141 13.17 524.117 13.506 524.069 13.806H516.491C516.551 14.598 516.845 15.234 517.373 15.714C517.901 16.194 518.549 16.434 519.317 16.434C520.421 16.434 521.201 15.972 521.657 15.048H523.871C523.571 15.96 523.025 16.71 522.233 17.298C521.453 17.874 520.481 18.162 519.317 18.162C518.369 18.162 517.517 17.952 516.761 17.532C516.017 17.1 515.429 16.5 514.997 15.732C514.577 14.952 514.367 14.052 514.367 13.032C514.367 12.012 514.571 11.118 514.979 10.35C515.399 9.57 515.981 8.97 516.725 8.55C517.481 8.13 518.345 7.92 519.317 7.92C520.253 7.92 521.087 8.124 521.819 8.532C522.551 8.94 523.121 9.516 523.529 10.26C523.937 10.992 524.141 11.838 524.141 12.798ZM521.999 12.15C521.987 11.394 521.717 10.788 521.189 10.332C520.661 9.876 520.007 9.648 519.227 9.648C518.519 9.648 517.913 9.876 517.409 10.332C516.905 10.776 516.605 11.382 516.509 12.15H521.999ZM537.532 11.574C538.204 11.694 538.774 12.048 539.242 12.636C539.71 13.224 539.944 13.89 539.944 14.634C539.944 15.27 539.776 15.846 539.44 16.362C539.116 16.866 538.642 17.268 538.018 17.568C537.394 17.856 536.668 18 535.84 18H530.836V5.49H535.606C536.458 5.49 537.19 5.634 537.802 5.922C538.414 6.21 538.876 6.6 539.188 7.092C539.5 7.572 539.656 8.112 539.656 8.712C539.656 9.432 539.464 10.032 539.08 10.512C538.696 10.992 538.18 11.346 537.532 11.574ZM532.888 10.746H535.426C536.098 10.746 536.62 10.596 536.992 10.296C537.376 9.984 537.568 9.54 537.568 8.964C537.568 8.4 537.376 7.962 536.992 7.65C536.62 7.326 536.098 7.164 535.426 7.164H532.888V10.746ZM535.66 16.326C536.356 16.326 536.902 16.158 537.298 15.822C537.694 15.486 537.892 15.018 537.892 14.418C537.892 13.806 537.682 13.32 537.262 12.96C536.842 12.6 536.284 12.42 535.588 12.42H532.888V16.326H535.66ZM544.226 4.68V18H542.174V4.68H544.226ZM551.222 18.162C550.286 18.162 549.44 17.952 548.684 17.532C547.928 17.1 547.334 16.5 546.902 15.732C546.47 14.952 546.254 14.052 546.254 13.032C546.254 12.024 546.476 11.13 546.92 10.35C547.364 9.57 547.97 8.97 548.738 8.55C549.506 8.13 550.364 7.92 551.312 7.92C552.26 7.92 553.118 8.13 553.886 8.55C554.654 8.97 555.26 9.57 555.704 10.35C556.148 11.13 556.37 12.024 556.37 13.032C556.37 14.04 556.142 14.934 555.686 15.714C555.23 16.494 554.606 17.1 553.814 17.532C553.034 17.952 552.17 18.162 551.222 18.162ZM551.222 16.38C551.75 16.38 552.242 16.254 552.698 16.002C553.166 15.75 553.544 15.372 553.832 14.868C554.12 14.364 554.264 13.752 554.264 13.032C554.264 12.312 554.126 11.706 553.85 11.214C553.574 10.71 553.208 10.332 552.752 10.08C552.296 9.828 551.804 9.702 551.276 9.702C550.748 9.702 550.256 9.828 549.8 10.08C549.356 10.332 549.002 10.71 548.738 11.214C548.474 11.706 548.342 12.312 548.342 13.032C548.342 14.1 548.612 14.928 549.152 15.516C549.704 16.092 550.394 16.38 551.222 16.38ZM557.715 13.032C557.715 12.012 557.919 11.118 558.327 10.35C558.747 9.57 559.323 8.97 560.055 8.55C560.787 8.13 561.627 7.92 562.575 7.92C563.775 7.92 564.765 8.208 565.545 8.784C566.337 9.348 566.871 10.158 567.147 11.214H564.933C564.753 10.722 564.465 10.338 564.069 10.062C563.673 9.786 563.175 9.648 562.575 9.648C561.735 9.648 561.063 9.948 560.559 10.548C560.067 11.136 559.821 11.964 559.821 13.032C559.821 14.1 560.067 14.934 560.559 15.534C561.063 16.134 561.735 16.434 562.575 16.434C563.763 16.434 564.549 15.912 564.933 14.868H567.147C566.859 15.876 566.319 16.68 565.527 17.28C564.735 17.868 563.751 18.162 562.575 18.162C561.627 18.162 560.787 17.952 560.055 17.532C559.323 17.1 558.747 16.5 558.327 15.732C557.919 14.952 557.715 14.052 557.715 13.032ZM573.116 13.05L577.688 18H574.916L571.244 13.734V18H569.192V4.68H571.244V12.42L574.844 8.082H577.688L573.116 13.05ZM578.475 13.032C578.475 12.012 578.679 11.118 579.087 10.35C579.507 9.57 580.083 8.97 580.815 8.55C581.547 8.13 582.387 7.92 583.335 7.92C584.535 7.92 585.525 8.208 586.305 8.784C587.097 9.348 587.631 10.158 587.907 11.214H585.693C585.513 10.722 585.225 10.338 584.829 10.062C584.433 9.786 583.935 9.648 583.335 9.648C582.495 9.648 581.823 9.948 581.319 10.548C580.827 11.136 580.581 11.964 580.581 13.032C580.581 14.1 580.827 14.934 581.319 15.534C581.823 16.134 582.495 16.434 583.335 16.434C584.523 16.434 585.309 15.912 585.693 14.868H587.907C587.619 15.876 587.079 16.68 586.287 17.28C585.495 17.868 584.511 18.162 583.335 18.162C582.387 18.162 581.547 17.952 580.815 17.532C580.083 17.1 579.507 16.5 579.087 15.732C578.679 14.952 578.475 14.052 578.475 13.032ZM595.082 7.92C595.838 7.92 596.51 8.082 597.098 8.406C597.698 8.73 598.166 9.21 598.502 9.846C598.85 10.482 599.024 11.25 599.024 12.15V18H596.99V12.456C596.99 11.568 596.768 10.89 596.324 10.422C595.88 9.942 595.274 9.702 594.506 9.702C593.738 9.702 593.126 9.942 592.67 10.422C592.226 10.89 592.004 11.568 592.004 12.456V18H589.952V4.68H592.004V9.234C592.352 8.814 592.79 8.49 593.318 8.262C593.858 8.034 594.446 7.92 595.082 7.92ZM600.957 12.996C600.957 12 601.161 11.118 601.569 10.35C601.989 9.582 602.553 8.988 603.261 8.568C603.981 8.136 604.773 7.92 605.637 7.92C606.417 7.92 607.095 8.076 607.671 8.388C608.259 8.688 608.727 9.066 609.075 9.522V8.082H611.145V18H609.075V16.524C608.727 16.992 608.253 17.382 607.653 17.694C607.053 18.006 606.369 18.162 605.601 18.162C604.749 18.162 603.969 17.946 603.261 17.514C602.553 17.07 601.989 16.458 601.569 15.678C601.161 14.886 600.957 13.992 600.957 12.996ZM609.075 13.032C609.075 12.348 608.931 11.754 608.643 11.25C608.367 10.746 608.001 10.362 607.545 10.098C607.089 9.834 606.597 9.702 606.069 9.702C605.541 9.702 605.049 9.834 604.593 10.098C604.137 10.35 603.765 10.728 603.477 11.232C603.201 11.724 603.063 12.312 603.063 12.996C603.063 13.68 603.201 14.28 603.477 14.796C603.765 15.312 604.137 15.708 604.593 15.984C605.061 16.248 605.553 16.38 606.069 16.38C606.597 16.38 607.089 16.248 607.545 15.984C608.001 15.72 608.367 15.336 608.643 14.832C608.931 14.316 609.075 13.716 609.075 13.032ZM614.884 6.768C614.512 6.768 614.2 6.642 613.948 6.39C613.696 6.138 613.57 5.826 613.57 5.454C613.57 5.082 613.696 4.77 613.948 4.518C614.2 4.266 614.512 4.14 614.884 4.14C615.244 4.14 615.55 4.266 615.802 4.518C616.054 4.77 616.18 5.082 616.18 5.454C616.18 5.826 616.054 6.138 615.802 6.39C615.55 6.642 615.244 6.768 614.884 6.768ZM615.892 8.082V18H613.84V8.082H615.892ZM623.59 7.92C624.37 7.92 625.066 8.082 625.678 8.406C626.302 8.73 626.788 9.21 627.136 9.846C627.484 10.482 627.658 11.25 627.658 12.15V18H625.624V12.456C625.624 11.568 625.402 10.89 624.958 10.422C624.514 9.942 623.908 9.702 623.14 9.702C622.372 9.702 621.76 9.942 621.304 10.422C620.86 10.89 620.638 11.568 620.638 12.456V18H618.586V8.082H620.638V9.216C620.974 8.808 621.4 8.49 621.916 8.262C622.444 8.034 623.002 7.92 623.59 7.92Z" fill="black"/>
<path d="M29.396 78.27C30.432 78.27 31.3373 78.4707 32.112 78.872C32.896 79.264 33.498 79.8333 33.918 80.58C34.3473 81.3173 34.562 82.1807 34.562 83.17C34.562 84.1593 34.3473 85.018 33.918 85.746C33.498 86.474 32.896 87.034 32.112 87.426C31.3373 87.8087 30.432 88 29.396 88H26.218V78.27H29.396ZM29.396 86.698C30.5346 86.698 31.4073 86.39 32.014 85.774C32.6206 85.158 32.924 84.29 32.924 83.17C32.924 82.0407 32.6206 81.1587 32.014 80.524C31.4073 79.8893 30.5346 79.572 29.396 79.572H27.814V86.698H29.396ZM42.0098 86.012H37.9358L37.2358 88H35.5698L39.0558 78.256H40.9038L44.3898 88H42.7098L42.0098 86.012ZM41.5618 84.71L39.9798 80.188L38.3838 84.71H41.5618ZM47.5015 81.42C47.7721 81.0653 48.1408 80.7667 48.6075 80.524C49.0741 80.2813 49.6015 80.16 50.1895 80.16C50.8615 80.16 51.4728 80.328 52.0235 80.664C52.5835 80.9907 53.0221 81.4527 53.3395 82.05C53.6568 82.6473 53.8155 83.3333 53.8155 84.108C53.8155 84.8827 53.6568 85.578 53.3395 86.194C53.0221 86.8007 52.5835 87.2767 52.0235 87.622C51.4728 87.958 50.8615 88.126 50.1895 88.126C49.6015 88.126 49.0788 88.0093 48.6215 87.776C48.1641 87.5333 47.7908 87.2347 47.5015 86.88V91.668H45.9055V80.286H47.5015V81.42ZM52.1915 84.108C52.1915 83.576 52.0795 83.1187 51.8555 82.736C51.6408 82.344 51.3515 82.05 50.9875 81.854C50.6328 81.6487 50.2501 81.546 49.8395 81.546C49.4381 81.546 49.0555 81.6487 48.6915 81.854C48.3368 82.0593 48.0475 82.358 47.8235 82.75C47.6088 83.142 47.5015 83.604 47.5015 84.136C47.5015 84.668 47.6088 85.1347 47.8235 85.536C48.0475 85.928 48.3368 86.2267 48.6915 86.432C49.0555 86.6373 49.4381 86.74 49.8395 86.74C50.2501 86.74 50.6328 86.6373 50.9875 86.432C51.3515 86.2173 51.6408 85.9093 51.8555 85.508C52.0795 85.1067 52.1915 84.64 52.1915 84.108ZM56.9898 81.42C57.2604 81.0653 57.6291 80.7667 58.0958 80.524C58.5624 80.2813 59.0898 80.16 59.6778 80.16C60.3498 80.16 60.9611 80.328 61.5118 80.664C62.0718 80.9907 62.5104 81.4527 62.8278 82.05C63.1451 82.6473 63.3038 83.3333 63.3038 84.108C63.3038 84.8827 63.1451 85.578 62.8278 86.194C62.5104 86.8007 62.0718 87.2767 61.5118 87.622C60.9611 87.958 60.3498 88.126 59.6778 88.126C59.0898 88.126 58.5671 88.0093 58.1098 87.776C57.6524 87.5333 57.2791 87.2347 56.9898 86.88V91.668H55.3938V80.286H56.9898V81.42ZM61.6798 84.108C61.6798 83.576 61.5678 83.1187 61.3438 82.736C61.1291 82.344 60.8398 82.05 60.4758 81.854C60.1211 81.6487 59.7384 81.546 59.3278 81.546C58.9264 81.546 58.5438 81.6487 58.1798 81.854C57.8251 82.0593 57.5358 82.358 57.3118 82.75C57.0971 83.142 56.9898 83.604 56.9898 84.136C56.9898 84.668 57.0971 85.1347 57.3118 85.536C57.5358 85.928 57.8251 86.2267 58.1798 86.432C58.5438 86.6373 58.9264 86.74 59.3278 86.74C59.7384 86.74 60.1211 86.6373 60.4758 86.432C60.8398 86.2173 61.1291 85.9093 61.3438 85.508C61.5678 85.1067 61.6798 84.64 61.6798 84.108Z" fill="black"/>
<path d="M116.396 78.27C117.432 78.27 118.337 78.4707 119.112 78.872C119.896 79.264 120.498 79.8333 120.918 80.58C121.347 81.3173 121.562 82.1807 121.562 83.17C121.562 84.1593 121.347 85.018 120.918 85.746C120.498 86.474 119.896 87.034 119.112 87.426C118.337 87.8087 117.432 88 116.396 88H113.218V78.27H116.396ZM116.396 86.698C117.535 86.698 118.407 86.39 119.014 85.774C119.621 85.158 119.924 84.29 119.924 83.17C119.924 82.0407 119.621 81.1587 119.014 80.524C118.407 79.8893 117.535 79.572 116.396 79.572H114.814V86.698H116.396ZM129.01 86.012H124.936L124.236 88H122.57L126.056 78.256H127.904L131.39 88H129.71L129.01 86.012ZM128.562 84.71L126.98 80.188L125.384 84.71H128.562ZM134.501 81.42C134.772 81.0653 135.141 80.7667 135.607 80.524C136.074 80.2813 136.601 80.16 137.189 80.16C137.861 80.16 138.473 80.328 139.023 80.664C139.583 80.9907 140.022 81.4527 140.339 82.05C140.657 82.6473 140.815 83.3333 140.815 84.108C140.815 84.8827 140.657 85.578 140.339 86.194C140.022 86.8007 139.583 87.2767 139.023 87.622C138.473 87.958 137.861 88.126 137.189 88.126C136.601 88.126 136.079 88.0093 135.621 87.776C135.164 87.5333 134.791 87.2347 134.501 86.88V91.668H132.905V80.286H134.501V81.42ZM139.191 84.108C139.191 83.576 139.079 83.1187 138.855 82.736C138.641 82.344 138.351 82.05 137.987 81.854C137.633 81.6487 137.25 81.546 136.839 81.546C136.438 81.546 136.055 81.6487 135.691 81.854C135.337 82.0593 135.047 82.358 134.823 82.75C134.609 83.142 134.501 83.604 134.501 84.136C134.501 84.668 134.609 85.1347 134.823 85.536C135.047 85.928 135.337 86.2267 135.691 86.432C136.055 86.6373 136.438 86.74 136.839 86.74C137.25 86.74 137.633 86.6373 137.987 86.432C138.351 86.2173 138.641 85.9093 138.855 85.508C139.079 85.1067 139.191 84.64 139.191 84.108ZM143.99 81.42C144.26 81.0653 144.629 80.7667 145.096 80.524C145.562 80.2813 146.09 80.16 146.678 80.16C147.35 80.16 147.961 80.328 148.512 80.664C149.072 80.9907 149.51 81.4527 149.828 82.05C150.145 82.6473 150.304 83.3333 150.304 84.108C150.304 84.8827 150.145 85.578 149.828 86.194C149.51 86.8007 149.072 87.2767 148.512 87.622C147.961 87.958 147.35 88.126 146.678 88.126C146.09 88.126 145.567 88.0093 145.11 87.776C144.652 87.5333 144.279 87.2347 143.99 86.88V91.668H142.394V80.286H143.99V81.42ZM148.68 84.108C148.68 83.576 148.568 83.1187 148.344 82.736C148.129 82.344 147.84 82.05 147.476 81.854C147.121 81.6487 146.738 81.546 146.328 81.546C145.926 81.546 145.544 81.6487 145.18 81.854C144.825 82.0593 144.536 82.358 144.312 82.75C144.097 83.142 143.99 83.604 143.99 84.136C143.99 84.668 144.097 85.1347 144.312 85.536C144.536 85.928 144.825 86.2267 145.18 86.432C145.544 86.6373 145.926 86.74 146.328 86.74C146.738 86.74 147.121 86.6373 147.476 86.432C147.84 86.2173 148.129 85.9093 148.344 85.508C148.568 85.1067 148.68 84.64 148.68 84.108Z" fill="black"/>
<g filter="url(#filter0_b_2_1924)">
<path d="M1 52C1 41.5066 9.50659 33 20 33H88.5H157C167.493 33 176 41.5066 176 52V117C176 127.493 167.493 136 157 136H88.5H20C9.50659 136 1 127.493 1 117V52Z" stroke="url(#paint0_linear_2_1924)" stroke-width="2"/>
</g>
<path d="M486.396 78.27C487.432 78.27 488.337 78.4707 489.112 78.872C489.896 79.264 490.498 79.8333 490.918 80.58C491.347 81.3173 491.562 82.1807 491.562 83.17C491.562 84.1593 491.347 85.018 490.918 85.746C490.498 86.474 489.896 87.034 489.112 87.426C488.337 87.8087 487.432 88 486.396 88H483.218V78.27H486.396ZM486.396 86.698C487.535 86.698 488.407 86.39 489.014 85.774C489.621 85.158 489.924 84.29 489.924 83.17C489.924 82.0407 489.621 81.1587 489.014 80.524C488.407 79.8893 487.535 79.572 486.396 79.572H484.814V86.698H486.396ZM499.01 86.012H494.936L494.236 88H492.57L496.056 78.256H497.904L501.39 88H499.71L499.01 86.012ZM498.562 84.71L496.98 80.188L495.384 84.71H498.562ZM504.501 81.42C504.772 81.0653 505.141 80.7667 505.607 80.524C506.074 80.2813 506.601 80.16 507.189 80.16C507.861 80.16 508.473 80.328 509.023 80.664C509.583 80.9907 510.022 81.4527 510.339 82.05C510.657 82.6473 510.815 83.3333 510.815 84.108C510.815 84.8827 510.657 85.578 510.339 86.194C510.022 86.8007 509.583 87.2767 509.023 87.622C508.473 87.958 507.861 88.126 507.189 88.126C506.601 88.126 506.079 88.0093 505.621 87.776C505.164 87.5333 504.791 87.2347 504.501 86.88V91.668H502.905V80.286H504.501V81.42ZM509.191 84.108C509.191 83.576 509.079 83.1187 508.855 82.736C508.641 82.344 508.351 82.05 507.987 81.854C507.633 81.6487 507.25 81.546 506.839 81.546C506.438 81.546 506.055 81.6487 505.691 81.854C505.337 82.0593 505.047 82.358 504.823 82.75C504.609 83.142 504.501 83.604 504.501 84.136C504.501 84.668 504.609 85.1347 504.823 85.536C505.047 85.928 505.337 86.2267 505.691 86.432C506.055 86.6373 506.438 86.74 506.839 86.74C507.25 86.74 507.633 86.6373 507.987 86.432C508.351 86.2173 508.641 85.9093 508.855 85.508C509.079 85.1067 509.191 84.64 509.191 84.108ZM513.99 81.42C514.26 81.0653 514.629 80.7667 515.096 80.524C515.562 80.2813 516.09 80.16 516.678 80.16C517.35 80.16 517.961 80.328 518.512 80.664C519.072 80.9907 519.51 81.4527 519.828 82.05C520.145 82.6473 520.304 83.3333 520.304 84.108C520.304 84.8827 520.145 85.578 519.828 86.194C519.51 86.8007 519.072 87.2767 518.512 87.622C517.961 87.958 517.35 88.126 516.678 88.126C516.09 88.126 515.567 88.0093 515.11 87.776C514.652 87.5333 514.279 87.2347 513.99 86.88V91.668H512.394V80.286H513.99V81.42ZM518.68 84.108C518.68 83.576 518.568 83.1187 518.344 82.736C518.129 82.344 517.84 82.05 517.476 81.854C517.121 81.6487 516.738 81.546 516.328 81.546C515.926 81.546 515.544 81.6487 515.18 81.854C514.825 82.0593 514.536 82.358 514.312 82.75C514.097 83.142 513.99 83.604 513.99 84.136C513.99 84.668 514.097 85.1347 514.312 85.536C514.536 85.928 514.825 86.2267 515.18 86.432C515.544 86.6373 515.926 86.74 516.328 86.74C516.738 86.74 517.121 86.6373 517.476 86.432C517.84 86.2173 518.129 85.9093 518.344 85.508C518.568 85.1067 518.68 84.64 518.68 84.108Z" fill="black"/>
<path d="M573.396 78.27C574.432 78.27 575.337 78.4707 576.112 78.872C576.896 79.264 577.498 79.8333 577.918 80.58C578.347 81.3173 578.562 82.1807 578.562 83.17C578.562 84.1593 578.347 85.018 577.918 85.746C577.498 86.474 576.896 87.034 576.112 87.426C575.337 87.8087 574.432 88 573.396 88H570.218V78.27H573.396ZM573.396 86.698C574.535 86.698 575.407 86.39 576.014 85.774C576.621 85.158 576.924 84.29 576.924 83.17C576.924 82.0407 576.621 81.1587 576.014 80.524C575.407 79.8893 574.535 79.572 573.396 79.572H571.814V86.698H573.396ZM586.01 86.012H581.936L581.236 88H579.57L583.056 78.256H584.904L588.39 88H586.71L586.01 86.012ZM585.562 84.71L583.98 80.188L582.384 84.71H585.562ZM591.501 81.42C591.772 81.0653 592.141 80.7667 592.607 80.524C593.074 80.2813 593.601 80.16 594.189 80.16C594.861 80.16 595.473 80.328 596.023 80.664C596.583 80.9907 597.022 81.4527 597.339 82.05C597.657 82.6473 597.815 83.3333 597.815 84.108C597.815 84.8827 597.657 85.578 597.339 86.194C597.022 86.8007 596.583 87.2767 596.023 87.622C595.473 87.958 594.861 88.126 594.189 88.126C593.601 88.126 593.079 88.0093 592.621 87.776C592.164 87.5333 591.791 87.2347 591.501 86.88V91.668H589.905V80.286H591.501V81.42ZM596.191 84.108C596.191 83.576 596.079 83.1187 595.855 82.736C595.641 82.344 595.351 82.05 594.987 81.854C594.633 81.6487 594.25 81.546 593.839 81.546C593.438 81.546 593.055 81.6487 592.691 81.854C592.337 82.0593 592.047 82.358 591.823 82.75C591.609 83.142 591.501 83.604 591.501 84.136C591.501 84.668 591.609 85.1347 591.823 85.536C592.047 85.928 592.337 86.2267 592.691 86.432C593.055 86.6373 593.438 86.74 593.839 86.74C594.25 86.74 594.633 86.6373 594.987 86.432C595.351 86.2173 595.641 85.9093 595.855 85.508C596.079 85.1067 596.191 84.64 596.191 84.108ZM600.99 81.42C601.26 81.0653 601.629 80.7667 602.096 80.524C602.562 80.2813 603.09 80.16 603.678 80.16C604.35 80.16 604.961 80.328 605.512 80.664C606.072 80.9907 606.51 81.4527 606.828 82.05C607.145 82.6473 607.304 83.3333 607.304 84.108C607.304 84.8827 607.145 85.578 606.828 86.194C606.51 86.8007 606.072 87.2767 605.512 87.622C604.961 87.958 604.35 88.126 603.678 88.126C603.09 88.126 602.567 88.0093 602.11 87.776C601.652 87.5333 601.279 87.2347 600.99 86.88V91.668H599.394V80.286H600.99V81.42ZM605.68 84.108C605.68 83.576 605.568 83.1187 605.344 82.736C605.129 82.344 604.84 82.05 604.476 81.854C604.121 81.6487 603.738 81.546 603.328 81.546C602.926 81.546 602.544 81.6487 602.18 81.854C601.825 82.0593 601.536 82.358 601.312 82.75C601.097 83.142 600.99 83.604 600.99 84.136C600.99 84.668 601.097 85.1347 601.312 85.536C601.536 85.928 601.825 86.2267 602.18 86.432C602.544 86.6373 602.926 86.74 603.328 86.74C603.738 86.74 604.121 86.6373 604.476 86.432C604.84 86.2173 605.129 85.9093 605.344 85.508C605.568 85.1067 605.68 84.64 605.68 84.108Z" fill="black"/>
<g filter="url(#filter1_b_2_1924)">
<path d="M458 52C458 41.5066 466.507 33 477 33H545.5H614C624.493 33 633 41.5066 633 52V117C633 127.493 624.493 136 614 136H545.5H477C466.507 136 458 127.493 458 117V52Z" stroke="url(#paint1_linear_2_1924)" stroke-width="2"/>
</g>
<circle cx="317" cy="88" r="40" fill="#148CEC"/>
<g filter="url(#filter2_bi_2_1924)">
<circle cx="317.5" cy="54.5" r="33.5" fill="url(#paint2_linear_2_1924)" fill-opacity="0.05"/>
<circle cx="317.5" cy="54.5" r="33" stroke="url(#paint3_linear_2_1924)"/>
</g>
<path d="M309.69 41.2662C305.458 47.4678 302.011 52.5673 302.046 52.5908C302.081 52.626 305.575 50.8323 309.83 48.5932L317.544 44.537L324.813 48.4173C333.699 53.1652 332.995 52.8018 332.913 52.6025C332.808 52.2977 317.556 30.0003 317.474 30.0003C317.427 30.0003 313.922 35.0764 309.69 41.2662Z" fill="#151515"/>
<path d="M309.948 50.9614C305.892 53.1301 302.586 54.9355 302.586 54.9707C302.586 55.0293 317.31 62.8604 317.521 62.9073C317.709 62.9542 332.269 55.0293 332.246 54.9003C332.222 54.7362 317.803 47.0107 317.533 47.0107C317.404 47.0224 313.993 48.7926 309.948 50.9614Z" fill="#151515"/>
<path d="M302 57.2805C302.012 57.4564 317.428 80 317.545 80C317.604 80 318.94 78.1008 320.511 75.7797C328.612 63.7986 332.961 57.2922 332.914 57.2453C332.891 57.2219 329.42 59.039 325.212 61.3016L317.545 65.4164L316.9 65.0647C316.537 64.8771 313.067 63.0366 309.175 60.9616C305.282 58.8866 302.082 57.1984 302.059 57.1984C302.023 57.1984 302 57.2336 302 57.2805Z" fill="#151515"/>
<path d="M376.293 87.2929C375.902 87.6834 375.902 88.3166 376.293 88.7071L382.657 95.0711C383.047 95.4616 383.681 95.4616 384.071 95.0711C384.462 94.6805 384.462 94.0474 384.071 93.6569L378.414 88L384.071 82.3431C384.462 81.9526 384.462 81.3195 384.071 80.9289C383.681 80.5384 383.047 80.5384 382.657 80.9289L376.293 87.2929ZM437.707 88.7071C438.098 88.3166 438.098 87.6834 437.707 87.2929L431.343 80.9289C430.953 80.5384 430.319 80.5384 429.929 80.9289C429.538 81.3195 429.538 81.9526 429.929 82.3431L435.586 88L429.929 93.6569C429.538 94.0474 429.538 94.6805 429.929 95.0711C430.319 95.4616 430.953 95.4616 431.343 95.0711L437.707 88.7071ZM377 89H437V87H377V89Z" fill="black"/>
<path d="M196.293 87.2929C195.902 87.6834 195.902 88.3166 196.293 88.7071L202.657 95.0711C203.047 95.4616 203.681 95.4616 204.071 95.0711C204.462 94.6805 204.462 94.0474 204.071 93.6569L198.414 88L204.071 82.3431C204.462 81.9526 204.462 81.3195 204.071 80.9289C203.681 80.5384 203.047 80.5384 202.657 80.9289L196.293 87.2929ZM257.707 88.7071C258.098 88.3166 258.098 87.6834 257.707 87.2929L251.343 80.9289C250.953 80.5384 250.319 80.5384 249.929 80.9289C249.538 81.3195 249.538 81.9526 249.929 82.3431L255.586 88L249.929 93.6569C249.538 94.0474 249.538 94.6805 249.929 95.0711C250.319 95.4616 250.953 95.4616 251.343 95.0711L257.707 88.7071ZM197 89H257V87H197V89Z" fill="black"/>
<path d="M273.904 144.47V147.62H278.134V149.618H273.904V152.948H278.674V155H271.384V142.418H278.674V144.47H273.904ZM283.898 147.098V151.922C283.898 152.258 283.976 152.504 284.132 152.66C284.3 152.804 284.576 152.876 284.96 152.876H286.13V155H284.546C282.422 155 281.36 153.968 281.36 151.904V147.098H280.172V145.028H281.36V142.562H283.898V145.028H286.13V147.098H283.898ZM293.558 144.884C294.314 144.884 294.986 145.052 295.574 145.388C296.162 145.712 296.618 146.198 296.942 146.846C297.278 147.482 297.446 148.25 297.446 149.15V155H294.926V149.492C294.926 148.7 294.728 148.094 294.332 147.674C293.936 147.242 293.396 147.026 292.712 147.026C292.016 147.026 291.464 147.242 291.056 147.674C290.66 148.094 290.462 148.7 290.462 149.492V155H287.942V141.68H290.462V146.27C290.786 145.838 291.218 145.502 291.758 145.262C292.298 145.01 292.898 144.884 293.558 144.884ZM309.113 149.798C309.113 150.158 309.089 150.482 309.041 150.77H301.751C301.811 151.49 302.063 152.054 302.507 152.462C302.951 152.87 303.497 153.074 304.145 153.074C305.081 153.074 305.747 152.672 306.143 151.868H308.861C308.573 152.828 308.021 153.62 307.205 154.244C306.389 154.856 305.387 155.162 304.199 155.162C303.239 155.162 302.375 154.952 301.607 154.532C300.851 154.1 300.257 153.494 299.825 152.714C299.405 151.934 299.195 151.034 299.195 150.014C299.195 148.982 299.405 148.076 299.825 147.296C300.245 146.516 300.833 145.916 301.589 145.496C302.345 145.076 303.215 144.866 304.199 144.866C305.147 144.866 305.993 145.07 306.737 145.478C307.493 145.886 308.075 146.468 308.483 147.224C308.903 147.968 309.113 148.826 309.113 149.798ZM306.503 149.078C306.491 148.43 306.257 147.914 305.801 147.53C305.345 147.134 304.787 146.936 304.127 146.936C303.503 146.936 302.975 147.128 302.543 147.512C302.123 147.884 301.865 148.406 301.769 149.078H306.503ZM313.472 146.576C313.796 146.048 314.216 145.634 314.732 145.334C315.26 145.034 315.86 144.884 316.532 144.884V147.53H315.866C315.074 147.53 314.474 147.716 314.066 148.088C313.67 148.46 313.472 149.108 313.472 150.032V155H310.952V145.028H313.472V146.576ZM327.499 149.798C327.499 150.158 327.475 150.482 327.427 150.77H320.137C320.197 151.49 320.449 152.054 320.893 152.462C321.337 152.87 321.883 153.074 322.531 153.074C323.467 153.074 324.133 152.672 324.529 151.868H327.247C326.959 152.828 326.407 153.62 325.591 154.244C324.775 154.856 323.773 155.162 322.585 155.162C321.625 155.162 320.761 154.952 319.993 154.532C319.237 154.1 318.643 153.494 318.211 152.714C317.791 151.934 317.581 151.034 317.581 150.014C317.581 148.982 317.791 148.076 318.211 147.296C318.631 146.516 319.219 145.916 319.975 145.496C320.731 145.076 321.601 144.866 322.585 144.866C323.533 144.866 324.379 145.07 325.123 145.478C325.879 145.886 326.461 146.468 326.869 147.224C327.289 147.968 327.499 148.826 327.499 149.798ZM324.889 149.078C324.877 148.43 324.643 147.914 324.187 147.53C323.731 147.134 323.173 146.936 322.513 146.936C321.889 146.936 321.361 147.128 320.929 147.512C320.509 147.884 320.251 148.406 320.155 149.078H324.889ZM338.753 145.028V155H336.215V153.74C335.891 154.172 335.465 154.514 334.937 154.766C334.421 155.006 333.857 155.126 333.245 155.126C332.465 155.126 331.775 154.964 331.175 154.64C330.575 154.304 330.101 153.818 329.753 153.182C329.417 152.534 329.249 151.766 329.249 150.878V145.028H331.769V150.518C331.769 151.31 331.967 151.922 332.363 152.354C332.759 152.774 333.299 152.984 333.983 152.984C334.679 152.984 335.225 152.774 335.621 152.354C336.017 151.922 336.215 151.31 336.215 150.518V145.028H338.753ZM353.623 144.884C354.847 144.884 355.831 145.262 356.575 146.018C357.331 146.762 357.709 147.806 357.709 149.15V155H355.189V149.492C355.189 148.712 354.991 148.118 354.595 147.71C354.199 147.29 353.659 147.08 352.975 147.08C352.291 147.08 351.745 147.29 351.337 147.71C350.941 148.118 350.743 148.712 350.743 149.492V155H348.223V149.492C348.223 148.712 348.025 148.118 347.629 147.71C347.233 147.29 346.693 147.08 346.009 147.08C345.313 147.08 344.761 147.29 344.353 147.71C343.957 148.118 343.759 148.712 343.759 149.492V155H341.239V145.028H343.759V146.234C344.083 145.814 344.497 145.484 345.001 145.244C345.517 145.004 346.081 144.884 346.693 144.884C347.473 144.884 348.169 145.052 348.781 145.388C349.393 145.712 349.867 146.18 350.203 146.792C350.527 146.216 350.995 145.754 351.607 145.406C352.231 145.058 352.903 144.884 353.623 144.884ZM288.598 179H286.078L280.372 170.378V179H277.852V166.418H280.372L286.078 175.058V166.418H288.598V179ZM300.359 173.798C300.359 174.158 300.335 174.482 300.287 174.77H292.997C293.057 175.49 293.309 176.054 293.753 176.462C294.197 176.87 294.743 177.074 295.391 177.074C296.327 177.074 296.993 176.672 297.389 175.868H300.107C299.819 176.828 299.267 177.62 298.451 178.244C297.635 178.856 296.633 179.162 295.445 179.162C294.485 179.162 293.621 178.952 292.853 178.532C292.097 178.1 291.503 177.494 291.071 176.714C290.651 175.934 290.441 175.034 290.441 174.014C290.441 172.982 290.651 172.076 291.071 171.296C291.491 170.516 292.079 169.916 292.835 169.496C293.591 169.076 294.461 168.866 295.445 168.866C296.393 168.866 297.239 169.07 297.983 169.478C298.739 169.886 299.321 170.468 299.729 171.224C300.149 171.968 300.359 172.826 300.359 173.798ZM297.749 173.078C297.737 172.43 297.503 171.914 297.047 171.53C296.591 171.134 296.033 170.936 295.373 170.936C294.749 170.936 294.221 171.128 293.789 171.512C293.369 171.884 293.111 172.406 293.015 173.078H297.749ZM305.132 171.098V175.922C305.132 176.258 305.21 176.504 305.366 176.66C305.534 176.804 305.81 176.876 306.194 176.876H307.364V179H305.78C303.656 179 302.594 177.968 302.594 175.904V171.098H301.406V169.028H302.594V166.562H305.132V169.028H307.364V171.098H305.132ZM323.001 169.028L320.085 179H317.367L315.549 172.034L313.731 179H310.995L308.061 169.028H310.617L312.381 176.624L314.289 169.028H316.953L318.825 176.606L320.589 169.028H323.001ZM328.792 179.162C327.832 179.162 326.968 178.952 326.2 178.532C325.432 178.1 324.826 177.494 324.382 176.714C323.95 175.934 323.734 175.034 323.734 174.014C323.734 172.994 323.956 172.094 324.4 171.314C324.856 170.534 325.474 169.934 326.254 169.514C327.034 169.082 327.904 168.866 328.864 168.866C329.824 168.866 330.694 169.082 331.474 169.514C332.254 169.934 332.866 170.534 333.31 171.314C333.766 172.094 333.994 172.994 333.994 174.014C333.994 175.034 333.76 175.934 333.292 176.714C332.836 177.494 332.212 178.1 331.42 178.532C330.64 178.952 329.764 179.162 328.792 179.162ZM328.792 176.966C329.248 176.966 329.674 176.858 330.07 176.642C330.478 176.414 330.802 176.078 331.042 175.634C331.282 175.19 331.402 174.65 331.402 174.014C331.402 173.066 331.15 172.34 330.646 171.836C330.154 171.32 329.548 171.062 328.828 171.062C328.108 171.062 327.502 171.32 327.01 171.836C326.53 172.34 326.29 173.066 326.29 174.014C326.29 174.962 326.524 175.694 326.992 176.21C327.472 176.714 328.072 176.966 328.792 176.966ZM338.363 170.576C338.687 170.048 339.107 169.634 339.623 169.334C340.151 169.034 340.751 168.884 341.423 168.884V171.53H340.757C339.965 171.53 339.365 171.716 338.957 172.088C338.561 172.46 338.363 173.108 338.363 174.032V179H335.843V169.028H338.363V170.576ZM349.024 179L345.64 174.752V179H343.12V165.68H345.64V173.258L348.988 169.028H352.264L347.872 174.032L352.3 179H349.024Z" fill="black"/>
<path d="M127.558 318L123.792 313.646V318H122.196V308.27H123.792V312.708L127.572 308.27H129.574L125.346 313.142L129.644 318H127.558ZM131.867 309.264C131.578 309.264 131.335 309.166 131.139 308.97C130.943 308.774 130.845 308.531 130.845 308.242C130.845 307.953 130.943 307.71 131.139 307.514C131.335 307.318 131.578 307.22 131.867 307.22C132.147 307.22 132.385 307.318 132.581 307.514C132.777 307.71 132.875 307.953 132.875 308.242C132.875 308.531 132.777 308.774 132.581 308.97C132.385 309.166 132.147 309.264 131.867 309.264ZM132.651 310.286V318H131.055V310.286H132.651ZM138.092 318.126C137.364 318.126 136.706 317.963 136.118 317.636C135.53 317.3 135.068 316.833 134.732 316.236C134.396 315.629 134.228 314.929 134.228 314.136C134.228 313.352 134.401 312.657 134.746 312.05C135.092 311.443 135.563 310.977 136.16 310.65C136.758 310.323 137.425 310.16 138.162 310.16C138.9 310.16 139.567 310.323 140.164 310.65C140.762 310.977 141.233 311.443 141.578 312.05C141.924 312.657 142.096 313.352 142.096 314.136C142.096 314.92 141.919 315.615 141.564 316.222C141.21 316.829 140.724 317.3 140.108 317.636C139.502 317.963 138.83 318.126 138.092 318.126ZM138.092 316.74C138.503 316.74 138.886 316.642 139.24 316.446C139.604 316.25 139.898 315.956 140.122 315.564C140.346 315.172 140.458 314.696 140.458 314.136C140.458 313.576 140.351 313.105 140.136 312.722C139.922 312.33 139.637 312.036 139.282 311.84C138.928 311.644 138.545 311.546 138.134 311.546C137.724 311.546 137.341 311.644 136.986 311.84C136.641 312.036 136.366 312.33 136.16 312.722C135.955 313.105 135.852 313.576 135.852 314.136C135.852 314.967 136.062 315.611 136.482 316.068C136.912 316.516 137.448 316.74 138.092 316.74ZM146.474 318.126C145.867 318.126 145.321 318.019 144.836 317.804C144.36 317.58 143.982 317.281 143.702 316.908C143.422 316.525 143.273 316.101 143.254 315.634H144.906C144.934 315.961 145.088 316.236 145.368 316.46C145.657 316.675 146.017 316.782 146.446 316.782C146.894 316.782 147.239 316.698 147.482 316.53C147.734 316.353 147.86 316.129 147.86 315.858C147.86 315.569 147.72 315.354 147.44 315.214C147.169 315.074 146.735 314.92 146.138 314.752C145.559 314.593 145.088 314.439 144.724 314.29C144.36 314.141 144.043 313.912 143.772 313.604C143.511 313.296 143.38 312.89 143.38 312.386C143.38 311.975 143.501 311.602 143.744 311.266C143.987 310.921 144.332 310.65 144.78 310.454C145.237 310.258 145.76 310.16 146.348 310.16C147.225 310.16 147.93 310.384 148.462 310.832C149.003 311.271 149.293 311.873 149.33 312.638H147.734C147.706 312.293 147.566 312.017 147.314 311.812C147.062 311.607 146.721 311.504 146.292 311.504C145.872 311.504 145.55 311.583 145.326 311.742C145.102 311.901 144.99 312.111 144.99 312.372C144.99 312.577 145.065 312.75 145.214 312.89C145.363 313.03 145.545 313.142 145.76 313.226C145.975 313.301 146.292 313.399 146.712 313.52C147.272 313.669 147.729 313.823 148.084 313.982C148.448 314.131 148.761 314.355 149.022 314.654C149.283 314.953 149.419 315.349 149.428 315.844C149.428 316.283 149.307 316.675 149.064 317.02C148.821 317.365 148.476 317.636 148.028 317.832C147.589 318.028 147.071 318.126 146.474 318.126ZM154.205 314.15L157.761 318H155.605L152.749 314.682V318H151.153V307.64H152.749V313.66L155.549 310.286H157.761L154.205 314.15Z" fill="black"/>
<rect x="130" y="220" width="8" height="8" rx="2" fill="#148CEC"/>
<rect x="130" y="232" width="8" height="8" rx="2" fill="#148CEC"/>
<rect x="136" y="244" width="8" height="8" rx="2" fill="#148CEC"/>
<rect x="142" y="220" width="8" height="8" rx="2" fill="#148CEC"/>
<rect x="142" y="232" width="8" height="8" rx="2" fill="#148CEC"/>
<rect x="122" y="213" width="36" height="47" rx="3" stroke="black" stroke-width="6"/>
<rect x="133" y="263" width="14" height="28" fill="black"/>
<rect x="122" y="291" width="36" height="4" rx="1" fill="black"/>
<path d="M53.977 311.168C53.977 311.663 53.8604 312.129 53.627 312.568C53.3937 313.007 53.0204 313.366 52.507 313.646C51.9937 313.917 51.3357 314.052 50.533 314.052H48.769V318H47.173V308.27H50.533C51.2797 308.27 51.9097 308.401 52.423 308.662C52.9457 308.914 53.333 309.259 53.585 309.698C53.8464 310.137 53.977 310.627 53.977 311.168ZM50.533 312.75C51.1397 312.75 51.5924 312.615 51.891 312.344C52.1897 312.064 52.339 311.672 52.339 311.168C52.339 310.104 51.737 309.572 50.533 309.572H48.769V312.75H50.533ZM59.9372 318.098C59.0319 318.098 58.1966 317.888 57.4312 317.468C56.6752 317.039 56.0732 316.446 55.6252 315.69C55.1866 314.925 54.9672 314.066 54.9672 313.114C54.9672 312.162 55.1866 311.308 55.6252 310.552C56.0732 309.796 56.6752 309.208 57.4312 308.788C58.1966 308.359 59.0319 308.144 59.9372 308.144C60.8519 308.144 61.6872 308.359 62.4432 308.788C63.2086 309.208 63.8106 309.796 64.2492 310.552C64.6879 311.308 64.9072 312.162 64.9072 313.114C64.9072 314.066 64.6879 314.925 64.2492 315.69C63.8106 316.446 63.2086 317.039 62.4432 317.468C61.6872 317.888 60.8519 318.098 59.9372 318.098ZM59.9372 316.712C60.5812 316.712 61.1552 316.567 61.6592 316.278C62.1632 315.979 62.5552 315.559 62.8352 315.018C63.1246 314.467 63.2692 313.833 63.2692 313.114C63.2692 312.395 63.1246 311.765 62.8352 311.224C62.5552 310.683 62.1632 310.267 61.6592 309.978C61.1552 309.689 60.5812 309.544 59.9372 309.544C59.2932 309.544 58.7192 309.689 58.2152 309.978C57.7112 310.267 57.3146 310.683 57.0252 311.224C56.7452 311.765 56.6052 312.395 56.6052 313.114C56.6052 313.833 56.7452 314.467 57.0252 315.018C57.3146 315.559 57.7112 315.979 58.2152 316.278C58.7192 316.567 59.2932 316.712 59.9372 316.712ZM69.6837 318.098C69.0304 318.098 68.4424 317.986 67.9197 317.762C67.3971 317.529 66.9864 317.202 66.6877 316.782C66.3891 316.362 66.2397 315.872 66.2397 315.312H67.9477C67.9851 315.732 68.1484 316.077 68.4377 316.348C68.7364 316.619 69.1517 316.754 69.6837 316.754C70.2344 316.754 70.6637 316.623 70.9717 316.362C71.2797 316.091 71.4337 315.746 71.4337 315.326C71.4337 314.999 71.3357 314.733 71.1397 314.528C70.9531 314.323 70.7151 314.164 70.4257 314.052C70.1457 313.94 69.7537 313.819 69.2497 313.688C68.6151 313.52 68.0971 313.352 67.6957 313.184C67.3037 313.007 66.9677 312.736 66.6877 312.372C66.4077 312.008 66.2677 311.523 66.2677 310.916C66.2677 310.356 66.4077 309.866 66.6877 309.446C66.9677 309.026 67.3597 308.704 67.8637 308.48C68.3677 308.256 68.9511 308.144 69.6137 308.144C70.5564 308.144 71.3264 308.382 71.9237 308.858C72.5304 309.325 72.8664 309.969 72.9317 310.79H71.1677C71.1397 310.435 70.9717 310.132 70.6637 309.88C70.3557 309.628 69.9497 309.502 69.4457 309.502C68.9884 309.502 68.6151 309.619 68.3257 309.852C68.0364 310.085 67.8917 310.421 67.8917 310.86C67.8917 311.159 67.9804 311.406 68.1577 311.602C68.3444 311.789 68.5777 311.938 68.8577 312.05C69.1377 312.162 69.5204 312.283 70.0057 312.414C70.6497 312.591 71.1724 312.769 71.5737 312.946C71.9844 313.123 72.3297 313.399 72.6097 313.772C72.8991 314.136 73.0437 314.626 73.0437 315.242C73.0437 315.737 72.9084 316.203 72.6377 316.642C72.3764 317.081 71.9891 317.435 71.4757 317.706C70.9717 317.967 70.3744 318.098 69.6837 318.098Z" fill="black"/>
<rect x="28.5" y="235.5" width="44" height="34" rx="3.5" stroke="black" stroke-width="5" stroke-linejoin="round"/>
<rect x="39" y="246" width="22" height="14" rx="2" fill="#148CEC"/>
<path d="M23.5 281C23.5 280.724 23.7239 280.5 24 280.5H96C96.2761 280.5 96.5 280.724 96.5 281V291.5H23.5V281Z" fill="#148CEC" stroke="black" stroke-width="3"/>
<path d="M22 292H29V295C29 295.552 28.5523 296 28 296H23C22.4477 296 22 295.552 22 295V292Z" fill="black"/>
<path d="M91 292H98V295C98 295.552 97.5523 296 97 296H92C91.4477 296 91 295.552 91 295V292Z" fill="black"/>
<rect x="39" y="272" width="20" height="7" fill="black"/>
<path d="M75 245H77C77.5523 245 78 245.448 78 246V260C78 260.552 77.5523 261 77 261H75V245Z" fill="black"/>
<path d="M581.558 318L577.792 313.646V318H576.196V308.27H577.792V312.708L581.572 308.27H583.574L579.346 313.142L583.644 318H581.558ZM585.867 309.264C585.578 309.264 585.335 309.166 585.139 308.97C584.943 308.774 584.845 308.531 584.845 308.242C584.845 307.953 584.943 307.71 585.139 307.514C585.335 307.318 585.578 307.22 585.867 307.22C586.147 307.22 586.385 307.318 586.581 307.514C586.777 307.71 586.875 307.953 586.875 308.242C586.875 308.531 586.777 308.774 586.581 308.97C586.385 309.166 586.147 309.264 585.867 309.264ZM586.651 310.286V318H585.055V310.286H586.651ZM592.092 318.126C591.364 318.126 590.706 317.963 590.118 317.636C589.53 317.3 589.068 316.833 588.732 316.236C588.396 315.629 588.228 314.929 588.228 314.136C588.228 313.352 588.401 312.657 588.746 312.05C589.092 311.443 589.563 310.977 590.16 310.65C590.758 310.323 591.425 310.16 592.162 310.16C592.9 310.16 593.567 310.323 594.164 310.65C594.762 310.977 595.233 311.443 595.578 312.05C595.924 312.657 596.096 313.352 596.096 314.136C596.096 314.92 595.919 315.615 595.564 316.222C595.21 316.829 594.724 317.3 594.108 317.636C593.502 317.963 592.83 318.126 592.092 318.126ZM592.092 316.74C592.503 316.74 592.886 316.642 593.24 316.446C593.604 316.25 593.898 315.956 594.122 315.564C594.346 315.172 594.458 314.696 594.458 314.136C594.458 313.576 594.351 313.105 594.136 312.722C593.922 312.33 593.637 312.036 593.282 311.84C592.928 311.644 592.545 311.546 592.134 311.546C591.724 311.546 591.341 311.644 590.986 311.84C590.641 312.036 590.366 312.33 590.16 312.722C589.955 313.105 589.852 313.576 589.852 314.136C589.852 314.967 590.062 315.611 590.482 316.068C590.912 316.516 591.448 316.74 592.092 316.74ZM600.474 318.126C599.867 318.126 599.321 318.019 598.836 317.804C598.36 317.58 597.982 317.281 597.702 316.908C597.422 316.525 597.273 316.101 597.254 315.634H598.906C598.934 315.961 599.088 316.236 599.368 316.46C599.657 316.675 600.017 316.782 600.446 316.782C600.894 316.782 601.239 316.698 601.482 316.53C601.734 316.353 601.86 316.129 601.86 315.858C601.86 315.569 601.72 315.354 601.44 315.214C601.169 315.074 600.735 314.92 600.138 314.752C599.559 314.593 599.088 314.439 598.724 314.29C598.36 314.141 598.043 313.912 597.772 313.604C597.511 313.296 597.38 312.89 597.38 312.386C597.38 311.975 597.501 311.602 597.744 311.266C597.987 310.921 598.332 310.65 598.78 310.454C599.237 310.258 599.76 310.16 600.348 310.16C601.225 310.16 601.93 310.384 602.462 310.832C603.003 311.271 603.293 311.873 603.33 312.638H601.734C601.706 312.293 601.566 312.017 601.314 311.812C601.062 311.607 600.721 311.504 600.292 311.504C599.872 311.504 599.55 311.583 599.326 311.742C599.102 311.901 598.99 312.111 598.99 312.372C598.99 312.577 599.065 312.75 599.214 312.89C599.363 313.03 599.545 313.142 599.76 313.226C599.975 313.301 600.292 313.399 600.712 313.52C601.272 313.669 601.729 313.823 602.084 313.982C602.448 314.131 602.761 314.355 603.022 314.654C603.283 314.953 603.419 315.349 603.428 315.844C603.428 316.283 603.307 316.675 603.064 317.02C602.821 317.365 602.476 317.636 602.028 317.832C601.589 318.028 601.071 318.126 600.474 318.126ZM608.205 314.15L611.761 318H609.605L606.749 314.682V318H605.153V307.64H606.749V313.66L609.549 310.286H611.761L608.205 314.15Z" fill="black"/>
<rect x="584" y="220" width="8" height="8" rx="2" fill="#148CEC"/>
<rect x="584" y="232" width="8" height="8" rx="2" fill="#148CEC"/>
<rect x="590" y="244" width="8" height="8" rx="2" fill="#148CEC"/>
<rect x="596" y="220" width="8" height="8" rx="2" fill="#148CEC"/>
<rect x="596" y="232" width="8" height="8" rx="2" fill="#148CEC"/>
<rect x="576" y="213" width="36" height="47" rx="3" stroke="black" stroke-width="6"/>
<rect x="587" y="263" width="14" height="28" fill="black"/>
<rect x="576" y="291" width="36" height="4" rx="1" fill="black"/>
<path d="M507.977 311.168C507.977 311.663 507.86 312.129 507.627 312.568C507.394 313.007 507.02 313.366 506.507 313.646C505.994 313.917 505.336 314.052 504.533 314.052H502.769V318H501.173V308.27H504.533C505.28 308.27 505.91 308.401 506.423 308.662C506.946 308.914 507.333 309.259 507.585 309.698C507.846 310.137 507.977 310.627 507.977 311.168ZM504.533 312.75C505.14 312.75 505.592 312.615 505.891 312.344C506.19 312.064 506.339 311.672 506.339 311.168C506.339 310.104 505.737 309.572 504.533 309.572H502.769V312.75H504.533ZM513.937 318.098C513.032 318.098 512.197 317.888 511.431 317.468C510.675 317.039 510.073 316.446 509.625 315.69C509.187 314.925 508.967 314.066 508.967 313.114C508.967 312.162 509.187 311.308 509.625 310.552C510.073 309.796 510.675 309.208 511.431 308.788C512.197 308.359 513.032 308.144 513.937 308.144C514.852 308.144 515.687 308.359 516.443 308.788C517.209 309.208 517.811 309.796 518.249 310.552C518.688 311.308 518.907 312.162 518.907 313.114C518.907 314.066 518.688 314.925 518.249 315.69C517.811 316.446 517.209 317.039 516.443 317.468C515.687 317.888 514.852 318.098 513.937 318.098ZM513.937 316.712C514.581 316.712 515.155 316.567 515.659 316.278C516.163 315.979 516.555 315.559 516.835 315.018C517.125 314.467 517.269 313.833 517.269 313.114C517.269 312.395 517.125 311.765 516.835 311.224C516.555 310.683 516.163 310.267 515.659 309.978C515.155 309.689 514.581 309.544 513.937 309.544C513.293 309.544 512.719 309.689 512.215 309.978C511.711 310.267 511.315 310.683 511.025 311.224C510.745 311.765 510.605 312.395 510.605 313.114C510.605 313.833 510.745 314.467 511.025 315.018C511.315 315.559 511.711 315.979 512.215 316.278C512.719 316.567 513.293 316.712 513.937 316.712ZM523.684 318.098C523.03 318.098 522.442 317.986 521.92 317.762C521.397 317.529 520.986 317.202 520.688 316.782C520.389 316.362 520.24 315.872 520.24 315.312H521.948C521.985 315.732 522.148 316.077 522.438 316.348C522.736 316.619 523.152 316.754 523.684 316.754C524.234 316.754 524.664 316.623 524.972 316.362C525.28 316.091 525.434 315.746 525.434 315.326C525.434 314.999 525.336 314.733 525.14 314.528C524.953 314.323 524.715 314.164 524.426 314.052C524.146 313.94 523.754 313.819 523.25 313.688C522.615 313.52 522.097 313.352 521.696 313.184C521.304 313.007 520.968 312.736 520.688 312.372C520.408 312.008 520.268 311.523 520.268 310.916C520.268 310.356 520.408 309.866 520.688 309.446C520.968 309.026 521.36 308.704 521.864 308.48C522.368 308.256 522.951 308.144 523.614 308.144C524.556 308.144 525.326 308.382 525.924 308.858C526.53 309.325 526.866 309.969 526.932 310.79H525.168C525.14 310.435 524.972 310.132 524.664 309.88C524.356 309.628 523.95 309.502 523.446 309.502C522.988 309.502 522.615 309.619 522.326 309.852C522.036 310.085 521.892 310.421 521.892 310.86C521.892 311.159 521.98 311.406 522.158 311.602C522.344 311.789 522.578 311.938 522.858 312.05C523.138 312.162 523.52 312.283 524.006 312.414C524.65 312.591 525.172 312.769 525.574 312.946C525.984 313.123 526.33 313.399 526.61 313.772C526.899 314.136 527.044 314.626 527.044 315.242C527.044 315.737 526.908 316.203 526.638 316.642C526.376 317.081 525.989 317.435 525.476 317.706C524.972 317.967 524.374 318.098 523.684 318.098Z" fill="black"/>
<rect x="482.5" y="235.5" width="44" height="34" rx="3.5" stroke="black" stroke-width="5" stroke-linejoin="round"/>
<rect x="493" y="246" width="22" height="14" rx="2" fill="#148CEC"/>
<path d="M477.5 281C477.5 280.724 477.724 280.5 478 280.5H550C550.276 280.5 550.5 280.724 550.5 281V291.5H477.5V281Z" fill="#148CEC" stroke="black" stroke-width="3"/>
<path d="M476 292H483V295C483 295.552 482.552 296 482 296H477C476.448 296 476 295.552 476 295V292Z" fill="black"/>
<path d="M545 292H552V295C552 295.552 551.552 296 551 296H546C545.448 296 545 295.552 545 295V292Z" fill="black"/>
<rect x="493" y="272" width="20" height="7" fill="black"/>
<path d="M529 245H531C531.552 245 532 245.448 532 246V260C532 260.552 531.552 261 531 261H529V245Z" fill="black"/>
<path d="M42.6667 214.5C42.6667 217.446 45.0545 219.833 48 219.833C50.9455 219.833 53.3333 217.446 53.3333 214.5C53.3333 211.554 50.9455 209.167 48 209.167C45.0545 209.167 42.6667 211.554 42.6667 214.5ZM129.667 199.5C129.667 202.445 132.054 204.833 135 204.833C137.946 204.833 140.333 202.445 140.333 199.5C140.333 196.554 137.946 194.166 135 194.166C132.054 194.166 129.667 196.554 129.667 199.5ZM86.1667 151.5C86.1667 154.446 88.5545 156.833 91.5 156.833C94.4455 156.833 96.8333 154.446 96.8333 151.5C96.8333 148.554 94.4455 146.167 91.5 146.167C88.5545 146.167 86.1667 148.554 86.1667 151.5ZM49 214.5V188.119H47V214.5H49ZM134 188.119V199.5H136V188.119H134ZM59 178.119H91.5V176.119H59V178.119ZM91.5 178.119H124V176.119H91.5V178.119ZM92.5 177.119V151.5H90.5V177.119H92.5ZM136 188.119C136 181.492 130.627 176.119 124 176.119V178.119C129.523 178.119 134 182.596 134 188.119H136ZM49 188.119C49 182.596 53.4772 178.119 59 178.119V176.119C52.3726 176.119 47 181.492 47 188.119H49Z" fill="url(#paint4_linear_2_1924)"/>
<path d="M496.667 214.5C496.667 217.446 499.054 219.833 502 219.833C504.946 219.833 507.333 217.446 507.333 214.5C507.333 211.554 504.946 209.167 502 209.167C499.054 209.167 496.667 211.554 496.667 214.5ZM583.667 199.5C583.667 202.445 586.054 204.833 589 204.833C591.946 204.833 594.333 202.445 594.333 199.5C594.333 196.554 591.946 194.166 589 194.166C586.054 194.166 583.667 196.554 583.667 199.5ZM540.167 151.5C540.167 154.446 542.554 156.833 545.5 156.833C548.446 156.833 550.833 154.446 550.833 151.5C550.833 148.554 548.446 146.167 545.5 146.167C542.554 146.167 540.167 148.554 540.167 151.5ZM503 214.5V188.119H501V214.5H503ZM588 188.119V199.5H590V188.119H588ZM513 178.119H545.5V176.119H513V178.119ZM545.5 178.119H578V176.119H545.5V178.119ZM546.5 177.119V151.5H544.5V177.119H546.5ZM590 188.119C590 181.492 584.627 176.119 578 176.119V178.119C583.523 178.119 588 182.596 588 188.119H590ZM503 188.119C503 182.596 507.477 178.119 513 178.119V176.119C506.373 176.119 501 181.492 501 188.119H503Z" fill="url(#paint5_linear_2_1924)"/>
<defs>
<filter id="filter0_b_2_1924" x="-10" y="22" width="197" height="125" filterUnits="userSpaceOnUse" color-interpolation-filters="sRGB">
<feFlood flood-opacity="0" result="BackgroundImageFix"/>
<feGaussianBlur in="BackgroundImageFix" stdDeviation="5"/>
<feComposite in2="SourceAlpha" operator="in" result="effect1_backgroundBlur_2_1924"/>
<feBlend mode="normal" in="SourceGraphic" in2="effect1_backgroundBlur_2_1924" result="shape"/>
</filter>
<filter id="filter1_b_2_1924" x="447" y="22" width="197" height="125" filterUnits="userSpaceOnUse" color-interpolation-filters="sRGB">
<feFlood flood-opacity="0" result="BackgroundImageFix"/>
<feGaussianBlur in="BackgroundImageFix" stdDeviation="5"/>
<feComposite in2="SourceAlpha" operator="in" result="effect1_backgroundBlur_2_1924"/>
<feBlend mode="normal" in="SourceGraphic" in2="effect1_backgroundBlur_2_1924" result="shape"/>
</filter>
<filter id="filter2_bi_2_1924" x="279" y="16" width="77" height="77" filterUnits="userSpaceOnUse" color-interpolation-filters="sRGB">
<feFlood flood-opacity="0" result="BackgroundImageFix"/>
<feGaussianBlur in="BackgroundImageFix" stdDeviation="2.5"/>
<feComposite in2="SourceAlpha" operator="in" result="effect1_backgroundBlur_2_1924"/>
<feBlend mode="normal" in="SourceGraphic" in2="effect1_backgroundBlur_2_1924" result="shape"/>
<feColorMatrix in="SourceAlpha" type="matrix" values="0 0 0 0 0 0 0 0 0 0 0 0 0 0 0 0 0 0 127 0" result="hardAlpha"/>
<feOffset/>
<feGaussianBlur stdDeviation="2"/>
<feComposite in2="hardAlpha" operator="arithmetic" k2="-1" k3="1"/>
<feColorMatrix type="matrix" values="0 0 0 0 1 0 0 0 0 1 0 0 0 0 1 0 0 0 0.25 0"/>
<feBlend mode="normal" in2="shape" result="effect2_innerShadow_2_1924"/>
</filter>
<linearGradient id="paint0_linear_2_1924" x1="-58" y1="-93" x2="78.9895" y2="266.863" gradientUnits="userSpaceOnUse">
<stop stop-color="#19CCEF"/>
<stop offset="0.5" stop-color="#7EBBED"/>
<stop offset="1" stop-color="#E3AAEB"/>
</linearGradient>
<linearGradient id="paint1_linear_2_1924" x1="399" y1="-93" x2="535.989" y2="266.863" gradientUnits="userSpaceOnUse">
<stop stop-color="#19CCEF"/>
<stop offset="0.5" stop-color="#7EBBED"/>
<stop offset="1" stop-color="#E3AAEB"/>
</linearGradient>
<linearGradient id="paint2_linear_2_1924" x1="284" y1="29.9333" x2="364.4" y2="64.1778" gradientUnits="userSpaceOnUse">
<stop stop-color="white"/>
<stop offset="1" stop-color="#D9D9D9" stop-opacity="0"/>
</linearGradient>
<linearGradient id="paint3_linear_2_1924" x1="279" y1="34" x2="344.5" y2="80.5" gradientUnits="userSpaceOnUse">
<stop stop-color="white"/>
<stop offset="1" stop-color="white" stop-opacity="0"/>
</linearGradient>
<linearGradient id="paint4_linear_2_1924" x1="19.4915" y1="69.8095" x2="116.436" y2="275.176" gradientUnits="userSpaceOnUse">
<stop stop-color="#19CCEF"/>
<stop offset="0.5" stop-color="#7EBBED"/>
<stop offset="1" stop-color="#E3AAEB"/>
</linearGradient>
<linearGradient id="paint5_linear_2_1924" x1="473.492" y1="69.8095" x2="570.436" y2="275.176" gradientUnits="userSpaceOnUse">
<stop stop-color="#19CCEF"/>
<stop offset="0.5" stop-color="#7EBBED"/>
<stop offset="1" stop-color="#E3AAEB"/>
</linearGradient>
</defs>
</svg>
