<svg width="32" height="32" viewBox="0 0 32 32" fill="none" xmlns="http://www.w3.org/2000/svg">
<g clip-path="url(#clip0_7_7034)">
<path d="M14.1563 0.0687504C11.1125 0.44375 8.42501 1.5625 5.96876 3.4875C5.31876 4 3.78126 5.575 3.27501 6.25C1.46876 8.65625 0.437507 11.1937 0.0875066 14.0625C-0.0374934 15.1125 -0.00624342 17.5 0.150007 18.4687C0.668757 21.7 2.15001 24.6875 4.39376 27.0375C6.85626 29.6125 9.85626 31.2062 13.4 31.825C14.4875 32.0125 16.7938 32.0562 17.9438 31.9062C25.3688 30.975 31.1313 25.1312 31.9375 17.7062C32.0375 16.8 31.9875 14.375 31.85 13.5375C30.7 6.45 25.05 0.96875 18 0.09375C17.1563 -0.00625038 14.9188 -0.0249996 14.1563 0.0687504ZM25.1375 8.95625C25.5563 9.1625 25.8938 9.51875 26.1 9.96875L26.25 10.3L26.2375 16.0687L26.2188 21.8437L26.075 22.1125C25.8563 22.525 25.525 22.8562 25.1375 23.0437L24.7813 23.2187H16H7.21876L6.93126 23.0875C6.51251 22.8937 6.15626 22.5437 5.93751 22.1125L5.75001 21.7312V16.0062V10.2812L5.90001 9.9625C6.16876 9.38125 6.61251 8.9875 7.18751 8.8375C7.40626 8.775 9.41876 8.7625 16.125 8.76875L24.7813 8.78125L25.1375 8.95625Z" fill="url(#paint0_linear_7_7034)"/>
<path d="M9.00001 10.4625C9.36876 10.8125 15.9813 15.9937 16.0375 15.975C16.1063 15.95 22.8313 10.625 23 10.4625C23.075 10.3875 22.1063 10.375 16 10.375C9.91251 10.375 8.92501 10.3875 9.00001 10.4625Z" fill="url(#paint1_linear_7_7034)"/>
<path d="M7.3125 16.3C7.3125 21.1813 7.31875 21.425 7.425 21.5187C7.53125 21.6187 8.21875 21.625 16.0125 21.625C24.1375 21.625 24.4875 21.6187 24.5813 21.5125C24.6812 21.4062 24.6875 20.9563 24.6875 16.2937C24.6875 13.4875 24.675 11.1875 24.6562 11.1875C24.6375 11.1875 22.7937 12.6438 20.55 14.425C18.3063 16.2062 16.4062 17.7 16.3313 17.7375C16.1562 17.8312 15.8438 17.8312 15.6687 17.7375C15.5938 17.7 13.6937 16.2062 11.45 14.425C9.20625 12.6438 7.3625 11.1875 7.34375 11.1875C7.325 11.1875 7.3125 13.4875 7.3125 16.3Z" fill="url(#paint2_linear_7_7034)"/>
</g>
<defs>
<linearGradient id="paint0_linear_7_7034" x1="9.2353" y1="57.8336" x2="24.0032" y2="-15.9851" gradientUnits="userSpaceOnUse">
<stop stop-color="#19CCEF"/>
<stop offset="0.5" stop-color="#7EBBED"/>
<stop offset="1" stop-color="#E3AAEB"/>
</linearGradient>
<linearGradient id="paint1_linear_7_7034" x1="13.0369" y1="20.4982" x2="14.1047" y2="7.14342" gradientUnits="userSpaceOnUse">
<stop stop-color="#19CCEF"/>
<stop offset="0.5" stop-color="#7EBBED"/>
<stop offset="1" stop-color="#E3AAEB"/>
</linearGradient>
<linearGradient id="paint2_linear_7_7034" x1="12.3245" y1="30.0553" x2="15.2913" y2="5.36173" gradientUnits="userSpaceOnUse">
<stop stop-color="#19CCEF"/>
<stop offset="0.5" stop-color="#7EBBED"/>
<stop offset="1" stop-color="#E3AAEB"/>
</linearGradient>
<clipPath id="clip0_7_7034">
<rect width="32" height="32" fill="white"/>
</clipPath>
</defs>
</svg>
