<svg width="33" height="33" viewBox="0 0 33 33" fill="none" xmlns="http://www.w3.org/2000/svg">
<path d="M12.3042 9.74529C10.0225 13.5609 8.14693 16.732 8.14048 16.7836C8.12759 16.8545 9.36509 17.6215 12.2655 19.3359C14.5407 20.6765 16.4485 21.7787 16.5001 21.7787C16.5581 21.7787 18.4788 20.6701 20.7733 19.3101C24.8081 16.9189 24.9434 16.8351 24.8596 16.6998C24.8145 16.6289 22.9196 13.4707 20.6637 9.68084C18.4014 5.89744 16.5323 2.80369 16.5065 2.80369C16.4807 2.80369 14.5922 5.92966 12.3042 9.74529Z" fill="#148CEC"/>
<path d="M8.05664 18.4336C8.05664 18.5109 16.442 30.293 16.5 30.293C16.558 30.293 17.673 28.7332 23.3449 20.7346C24.2344 19.4842 24.9434 18.4465 24.9305 18.4336C24.9176 18.4207 24.7178 18.5174 24.4922 18.6527C20.1416 21.218 16.6482 23.2611 16.558 23.2805C16.4871 23.2998 16.0037 23.0549 15.327 22.6553C12.2074 20.8055 8.4498 18.6012 8.26934 18.5045C8.15332 18.4465 8.05664 18.4143 8.05664 18.4336Z" fill="#148CEC"/>
</svg>
