<svg width="1440" height="760" viewBox="0 0 1440 760" fill="none" xmlns="http://www.w3.org/2000/svg">
<g clip-path="url(#clip0_2_3096)">
<rect width="1440" height="760" fill="white"/>
<g filter="url(#filter0_f_2_3096)">
<circle cx="1673" cy="199" r="308" fill="#A73DD5"/>
</g>
<g filter="url(#filter1_f_2_3096)">
<ellipse cx="1185.5" cy="865.5" rx="360.5" ry="324.5" fill="#FCB0E7"/>
</g>
<g filter="url(#filter2_f_2_3096)">
<ellipse cx="665" cy="802.5" rx="344" ry="319.5" fill="#9180F7"/>
</g>
<g filter="url(#filter3_f_2_3096)">
<ellipse cx="17.5" cy="759.5" rx="371.5" ry="286.5" fill="#19CCEF"/>
</g>
<g opacity="0.4">
<path opacity="0.010101" d="M733.34 688.509L778.057 697.707C822.773 706.905 912.207 725.302 1005.64 700.4C1099.07 675.499 1196.51 607.3 1286.83 616.074C1377.15 624.849 1460.36 710.597 1551.57 709.75C1642.78 708.903 1742 621.461 1791.6 577.739L1841.21 534.018" stroke="url(#paint0_linear_2_3096)" stroke-width="4.91243"/>
<path opacity="0.020202" d="M738.843 673.702L782.984 683.574C827.124 693.446 915.404 713.191 1008.41 690.115C1101.41 667.039 1199.14 601.142 1288.47 611.371C1377.8 621.6 1458.73 707.955 1549.11 708.668C1639.49 709.381 1739.32 624.453 1789.23 581.989L1839.15 539.524" stroke="url(#paint1_linear_2_3096)" stroke-width="4.86736"/>
<path opacity="0.030303" d="M744.536 659.051L788.09 669.58C831.643 680.11 918.751 701.168 1011.29 679.895C1103.83 658.621 1201.8 595.015 1290.11 606.666C1378.43 618.318 1457.09 705.227 1546.61 707.471C1636.13 709.716 1736.51 627.295 1786.71 586.085L1836.9 544.874" stroke="url(#paint2_linear_2_3096)" stroke-width="4.8223"/>
<path opacity="0.040404" d="M750.414 644.562L793.371 655.731C836.328 666.9 922.242 689.238 1014.28 669.743C1106.32 650.248 1204.48 588.92 1291.76 601.962C1379.03 615.004 1455.42 702.416 1544.06 706.162C1632.69 709.908 1733.58 629.987 1784.02 590.027L1834.46 550.066" stroke="url(#paint3_linear_2_3096)" stroke-width="4.77723"/>
<path opacity="0.050505" d="M756.472 630.237L798.823 642.029C841.174 653.82 925.877 677.403 1017.38 659.663C1108.88 641.922 1207.19 582.859 1293.4 597.259C1379.61 611.658 1453.74 699.522 1541.46 704.739C1629.19 709.955 1730.51 632.526 1781.18 593.812L1831.84 555.097" stroke="url(#paint4_linear_2_3096)" stroke-width="4.73216"/>
<path opacity="0.0606061" d="M762.705 616.08L804.441 628.476C846.177 640.873 929.649 665.665 1020.58 649.654C1111.52 633.643 1209.91 576.83 1295.04 592.555C1380.17 608.28 1452.04 696.543 1538.83 703.201C1625.61 709.858 1727.32 634.91 1778.18 597.436L1829.04 559.962" stroke="url(#paint5_linear_2_3096)" stroke-width="4.68709"/>
<path opacity="0.0707071" d="M769.11 602.093L810.223 615.076C851.335 628.059 933.56 654.026 1023.89 639.719C1114.22 625.413 1212.66 570.834 1296.68 587.851C1380.71 604.868 1450.33 693.48 1536.15 701.547C1621.98 709.615 1724.02 637.137 1775.04 600.898L1826.06 564.659" stroke="url(#paint6_linear_2_3096)" stroke-width="4.64202"/>
<path opacity="0.0808081" d="M775.681 588.28L816.162 601.833C856.642 615.385 937.604 642.49 1027.3 629.861C1116.99 617.233 1215.42 564.872 1298.33 583.147C1381.23 601.422 1448.6 690.334 1533.45 699.78C1618.29 709.225 1720.6 639.205 1771.76 604.195L1822.91 569.185" stroke="url(#paint7_linear_2_3096)" stroke-width="4.59696"/>
<path opacity="0.0909091" d="M782.414 574.644L822.255 588.748C862.097 602.851 941.779 631.059 1030.81 620.082C1119.84 609.105 1218.21 558.944 1299.97 578.444C1381.73 597.944 1446.87 687.105 1530.71 697.897C1614.55 708.689 1717.07 641.113 1768.34 607.325L1819.6 573.537" stroke="url(#paint8_linear_2_3096)" stroke-width="4.55189"/>
<path opacity="0.10101" d="M789.303 561.185L828.498 575.823C867.692 590.46 946.082 619.734 1034.41 610.382C1122.74 601.029 1221.01 553.049 1301.61 573.74C1382.21 594.431 1445.14 683.791 1527.94 695.898C1610.75 708.005 1713.44 642.858 1764.78 610.284L1816.13 577.711" stroke="url(#paint9_linear_2_3096)" stroke-width="4.50682"/>
<path opacity="0.111111" d="M796.347 547.909L834.888 563.062C873.43 578.214 950.512 608.519 1038.11 600.763C1125.71 593.007 1223.84 547.189 1303.26 569.036C1382.68 590.883 1443.39 680.395 1525.15 693.784C1606.91 707.173 1709.71 644.439 1761.1 613.072L1812.5 581.706" stroke="url(#paint10_linear_2_3096)" stroke-width="4.46175"/>
<path opacity="0.121212" d="M803.536 534.817L841.418 550.467C879.299 566.117 955.062 597.416 1041.9 591.228C1128.75 585.04 1226.67 541.364 1304.9 564.333C1383.12 587.302 1441.65 676.916 1522.34 691.555C1603.02 706.193 1705.87 645.856 1757.29 615.687L1808.72 585.518" stroke="url(#paint11_linear_2_3096)" stroke-width="4.41668"/>
<path opacity="0.131313" d="M810.869 521.911L848.085 538.04C885.3 554.169 959.731 586.427 1045.79 581.778C1131.84 577.129 1229.52 535.573 1306.54 559.629C1383.55 583.685 1439.9 673.354 1519.5 689.209C1599.1 705.064 1701.94 647.105 1753.37 618.125L1804.79 589.146" stroke="url(#paint12_linear_2_3096)" stroke-width="4.37161"/>
<path opacity="0.141414" d="M818.338 509.194L854.883 525.784C891.427 542.374 964.515 575.554 1049.76 572.414C1135 569.275 1232.39 529.817 1308.18 554.926C1383.97 580.035 1438.15 669.711 1516.64 686.749C1595.13 703.787 1697.93 648.187 1749.32 620.387L1800.72 592.586" stroke="url(#paint13_linear_2_3096)" stroke-width="4.32655"/>
<path opacity="0.151515" d="M825.943 496.668L861.811 513.7C897.679 530.733 969.414 564.798 1053.81 563.139C1138.21 561.479 1235.27 524.096 1309.82 550.222C1384.37 576.348 1436.41 665.985 1513.77 684.173C1591.14 702.361 1693.83 649.099 1745.17 622.468L1796.52 595.838" stroke="url(#paint14_linear_2_3096)" stroke-width="4.28148"/>
<path opacity="0.161616" d="M833.675 484.334L868.861 501.791C904.048 519.248 974.422 554.162 1057.95 553.952C1141.48 553.743 1238.17 518.409 1311.46 545.518C1384.76 572.627 1434.67 662.178 1510.89 681.481C1587.11 700.785 1689.64 649.841 1740.91 624.369L1792.18 598.897" stroke="url(#paint15_linear_2_3096)" stroke-width="4.23641"/>
<path opacity="0.171717" d="M841.531 472.195L876.032 490.058C910.534 507.921 979.537 543.648 1062.17 544.857C1144.81 546.066 1241.07 512.758 1313.11 540.814C1385.14 568.87 1432.94 658.29 1508 678.675C1583.06 699.061 1685.39 650.411 1736.55 626.087L1787.71 601.762" stroke="url(#paint16_linear_2_3096)" stroke-width="4.19134"/>
<path opacity="0.181818" d="M849.503 460.254L883.316 478.505C917.128 496.756 984.753 533.258 1066.47 535.855C1148.19 538.452 1243.99 507.143 1314.75 536.111C1385.51 565.079 1431.21 654.322 1505.1 675.755C1578.99 697.189 1681.06 650.811 1732.09 627.622L1783.13 604.433" stroke="url(#paint17_linear_2_3096)" stroke-width="4.14627"/>
<path opacity="0.191919" d="M857.587 448.51L890.708 467.131C923.828 485.751 990.068 522.993 1070.84 526.946C1151.61 530.898 1246.92 501.563 1316.39 531.407C1385.86 561.251 1429.49 650.274 1502.19 672.72C1574.89 695.167 1676.66 651.036 1727.54 628.971L1778.42 606.906" stroke="url(#paint18_linear_2_3096)" stroke-width="4.10121"/>
<path opacity="0.20202" d="M865.783 436.967L898.208 455.939C930.633 474.911 995.484 512.855 1075.29 518.132C1155.1 523.409 1249.86 496.018 1318.03 526.703C1386.21 557.388 1427.79 646.147 1499.29 669.572C1570.79 692.997 1672.2 651.089 1722.9 630.134L1773.61 609.18" stroke="url(#paint19_linear_2_3096)" stroke-width="4.05614"/>
<path opacity="0.212121" d="M874.079 425.626L905.807 444.931C937.534 464.236 1000.99 502.846 1079.81 509.415C1158.62 515.984 1252.8 490.511 1319.67 522.001C1386.54 553.49 1426.1 641.942 1496.38 666.312C1566.67 690.681 1667.67 650.968 1718.18 631.111L1768.68 611.255" stroke="url(#paint20_linear_2_3096)" stroke-width="4.01107"/>
<path opacity="0.222222" d="M882.474 414.487L913.502 434.107C944.53 453.727 1006.59 492.967 1084.39 500.794C1162.2 508.622 1255.76 485.038 1321.32 517.297C1386.87 549.556 1424.43 637.659 1493.48 662.938C1562.54 688.216 1663.1 650.671 1713.38 631.899L1763.66 613.126" stroke="url(#paint21_linear_2_3096)" stroke-width="3.966"/>
<path opacity="0.232323" d="M890.96 403.552L921.287 423.469C951.614 443.385 1012.27 483.218 1089.04 492.272C1165.82 501.326 1258.72 479.6 1322.96 512.593C1387.19 545.586 1422.77 633.298 1490.59 659.451C1558.41 685.605 1658.47 650.199 1708.5 632.497L1758.54 614.794" stroke="url(#paint22_linear_2_3096)" stroke-width="3.92093"/>
<path opacity="0.242424" d="M899.534 392.824L929.158 413.019C958.783 433.214 1018.03 473.604 1093.76 483.85C1169.48 494.096 1261.69 474.199 1324.6 507.89C1387.51 541.582 1421.13 628.862 1487.7 655.854C1554.27 682.847 1653.8 649.553 1703.56 632.905L1753.32 616.258" stroke="url(#paint23_linear_2_3096)" stroke-width="3.87586"/>
<path opacity="0.252525" d="M908.192 382.299L937.114 402.755C966.035 423.21 1023.88 464.121 1098.53 475.526C1173.19 486.932 1264.66 468.831 1326.24 503.185C1387.82 537.539 1419.51 624.348 1484.82 652.145C1550.14 679.942 1649.08 648.729 1698.55 633.122L1748.03 617.515" stroke="url(#paint24_linear_2_3096)" stroke-width="3.8308"/>
<path opacity="0.262626" d="M916.925 371.984L945.143 392.682C973.361 413.38 1029.8 454.776 1103.37 467.306C1176.94 479.836 1267.64 463.501 1327.88 498.483C1388.13 533.464 1417.91 619.761 1481.96 648.328C1546.01 676.894 1644.33 647.73 1693.49 633.148L1742.65 618.566" stroke="url(#paint25_linear_2_3096)" stroke-width="3.78573"/>
<path opacity="0.272727" d="M925.731 361.877L953.246 382.799C980.761 403.721 1035.79 445.566 1108.26 459.187C1180.72 472.809 1270.62 458.206 1329.52 493.779C1388.43 529.352 1416.34 615.1 1479.12 644.4C1541.89 673.701 1639.54 646.556 1688.37 632.983L1737.19 619.41" stroke="url(#paint26_linear_2_3096)" stroke-width="3.74066"/>
<path opacity="0.282828" d="M934.603 351.978L961.416 373.107C988.228 394.235 1041.85 436.493 1113.2 451.171C1184.54 465.849 1273.6 452.947 1331.16 489.076C1388.73 525.205 1414.79 610.365 1476.29 640.365C1537.79 670.365 1634.73 645.205 1683.19 632.625L1731.66 620.045" stroke="url(#paint27_linear_2_3096)" stroke-width="3.69559"/>
<path opacity="0.292929" d="M943.537 342.289L969.647 363.607C995.758 384.925 1047.98 427.56 1118.19 443.26C1188.39 458.96 1276.59 447.723 1332.81 484.373C1389.02 521.023 1413.27 605.559 1473.48 636.223C1533.7 666.887 1629.88 643.679 1677.98 632.075L1726.07 620.472" stroke="url(#paint28_linear_2_3096)" stroke-width="3.65052"/>
<path opacity="0.30303" d="M952.529 332.808L977.939 354.297C1003.35 375.786 1054.17 418.764 1123.23 435.451C1192.28 452.138 1279.58 442.533 1334.45 479.669C1389.32 516.804 1411.78 600.68 1470.7 631.973C1529.63 663.266 1625.02 641.976 1672.72 631.332L1720.42 620.687" stroke="url(#paint29_linear_2_3096)" stroke-width="3.60546"/>
<path opacity="0.313131" d="M961.57 323.538L986.282 345.181C1010.99 366.824 1060.42 410.109 1128.31 427.748C1196.2 445.387 1282.56 437.379 1336.09 474.965C1389.62 512.551 1410.31 595.731 1467.94 627.618C1525.58 659.505 1620.14 640.099 1667.43 630.396L1714.71 620.693" stroke="url(#paint30_linear_2_3096)" stroke-width="3.56039"/>
<path opacity="0.323232" d="M970.656 314.479L994.672 336.258C1018.69 358.037 1066.72 401.595 1133.43 420.151C1200.15 438.706 1285.55 432.26 1337.73 470.262C1389.91 508.264 1408.88 590.714 1465.22 623.16C1521.55 655.606 1615.25 638.048 1662.1 629.268L1708.95 620.489" stroke="url(#paint31_linear_2_3096)" stroke-width="3.51532"/>
<path opacity="0.333333" d="M979.787 305.629L1003.11 327.527C1026.43 349.425 1073.07 393.221 1138.6 412.658C1204.13 432.096 1288.53 427.175 1339.37 465.558C1390.21 503.941 1407.48 585.627 1462.52 618.597C1517.56 651.567 1610.35 635.821 1656.75 627.947L1703.15 620.074" stroke="url(#paint32_linear_2_3096)" stroke-width="3.47025"/>
<path opacity="0.343434" d="M988.95 296.991L1011.58 318.991C1034.21 340.991 1079.47 384.99 1143.8 405.274C1208.13 425.558 1291.51 422.126 1341.01 460.855C1390.51 499.585 1406.12 580.475 1459.86 613.934C1513.59 647.393 1605.45 633.421 1651.38 626.436L1697.31 619.45" stroke="url(#paint33_linear_2_3096)" stroke-width="3.42518"/>
<path opacity="0.353535" d="M998.146 288.562L1020.09 310.646C1042.03 332.731 1085.92 376.9 1149.04 397.994C1212.15 419.089 1294.49 417.11 1342.66 456.151C1390.82 495.192 1404.79 575.255 1457.23 609.168C1509.66 643.082 1600.55 630.847 1645.99 624.73L1691.44 618.613" stroke="url(#paint34_linear_2_3096)" stroke-width="3.38011"/>
<path opacity="0.363636" d="M1007.36 280.343L1028.63 302.496C1049.89 324.648 1092.41 368.953 1154.3 390.823C1216.2 412.693 1297.47 412.128 1344.29 451.447C1391.12 490.767 1403.5 569.97 1454.64 604.304C1505.77 638.638 1595.65 628.102 1640.59 622.834L1685.53 617.566" stroke="url(#paint35_linear_2_3096)" stroke-width="3.33505"/>
<path opacity="0.373737" d="M1016.61 272.335L1037.19 294.538C1057.77 316.742 1098.93 361.149 1159.6 383.759C1220.27 406.369 1300.44 407.181 1345.94 446.744C1391.43 486.307 1402.25 564.622 1452.09 599.342C1501.92 634.061 1590.76 625.185 1635.18 620.747L1679.6 616.31" stroke="url(#paint36_linear_2_3096)" stroke-width="3.28998"/>
<path opacity="0.383838" d="M1025.86 264.535L1045.77 286.773C1065.67 309.012 1105.49 353.488 1164.92 376.802C1224.35 400.116 1303.4 402.266 1347.58 442.04C1391.75 481.814 1401.04 559.211 1449.58 594.282C1498.11 629.353 1585.88 622.098 1629.77 618.47L1673.65 614.843" stroke="url(#paint37_linear_2_3096)" stroke-width="3.24491"/>
<path opacity="0.393939" d="M1035.12 256.944L1054.36 279.201C1073.6 301.458 1112.07 345.971 1170.26 369.953C1228.45 393.935 1306.36 397.386 1349.22 437.337C1392.07 477.288 1399.87 553.739 1447.11 589.127C1494.35 624.516 1581.02 618.842 1624.35 616.004L1667.69 613.167" stroke="url(#paint38_linear_2_3096)" stroke-width="3.19984"/>
<path opacity="0.40404" d="M1044.4 249.561L1062.97 271.82C1081.54 294.079 1118.69 338.597 1175.63 363.212C1232.57 387.827 1309.32 392.538 1350.86 432.633C1392.4 472.728 1398.75 548.206 1444.69 583.879C1490.64 619.551 1576.18 615.416 1618.95 613.349L1661.72 611.282" stroke="url(#paint39_linear_2_3096)" stroke-width="3.15477"/>
<path opacity="0.414141" d="M1053.67 242.387L1071.58 264.632C1089.49 286.877 1125.32 331.367 1181.01 356.579C1236.7 381.791 1312.26 387.724 1352.5 427.931C1392.74 468.137 1397.67 542.616 1442.32 578.538C1486.98 614.46 1571.36 611.825 1613.55 610.508L1655.75 609.19" stroke="url(#paint40_linear_2_3096)" stroke-width="3.1097"/>
<path opacity="0.424242" d="M1062.93 235.418L1080.19 257.634C1097.45 279.849 1131.97 324.281 1186.41 350.054C1240.84 375.827 1315.19 382.942 1354.14 423.228C1393.09 463.513 1396.63 536.968 1440 573.107C1483.37 609.245 1566.57 608.068 1608.17 607.48L1649.77 606.891" stroke="url(#paint41_linear_2_3096)" stroke-width="3.06464"/>
<path opacity="0.434343" d="M1072.19 228.655L1088.8 250.826C1105.42 272.996 1138.64 317.337 1191.82 343.637C1245 369.936 1318.12 378.193 1355.78 418.525C1393.44 458.857 1395.64 531.263 1437.74 567.586C1479.83 603.908 1561.82 604.147 1602.81 604.266L1643.81 604.386" stroke="url(#paint42_linear_2_3096)" stroke-width="3.01957"/>
<path opacity="0.444444" d="M1081.43 222.093L1097.4 244.203C1113.38 266.314 1145.33 310.534 1197.24 337.324C1249.16 364.113 1321.04 373.472 1357.42 413.819C1393.81 454.166 1394.7 525.501 1435.52 561.974C1476.35 598.448 1557.1 600.06 1597.48 600.866L1637.85 601.672" stroke="url(#paint43_linear_2_3096)" stroke-width="2.9745"/>
<path opacity="0.454545" d="M1090.65 215.737L1105.99 237.772C1121.33 259.807 1152.02 303.876 1202.67 331.121C1253.32 358.366 1323.94 368.786 1359.06 409.117C1394.18 449.447 1393.81 519.688 1433.37 556.28C1472.93 592.872 1552.42 595.814 1592.17 597.286L1631.91 598.757" stroke="url(#paint44_linear_2_3096)" stroke-width="2.92943"/>
<path opacity="0.464646" d="M1099.84 209.582L1114.56 231.526C1129.28 253.47 1158.71 297.359 1208.1 325.024C1257.49 352.688 1326.83 364.129 1360.7 404.413C1394.57 444.696 1392.97 513.821 1431.27 550.499C1469.57 587.177 1547.78 591.408 1586.89 593.523L1626 595.638" stroke="url(#paint45_linear_2_3096)" stroke-width="2.88436"/>
<path opacity="0.474747" d="M1109.01 203.627L1123.11 225.466C1137.21 247.305 1165.41 290.984 1213.54 319.033C1261.66 347.083 1329.72 359.503 1362.34 399.709C1394.97 439.914 1392.18 507.904 1429.23 544.636C1466.29 581.368 1543.2 586.843 1581.65 589.58L1620.11 592.317" stroke="url(#paint46_linear_2_3096)" stroke-width="2.8393"/>
<path opacity="0.484848" d="M1118.14 197.872L1131.63 219.591C1145.12 241.311 1172.11 284.751 1218.97 313.15C1265.84 341.549 1332.58 354.909 1363.98 395.006C1395.38 435.103 1391.44 501.938 1427.26 538.693C1463.07 575.448 1538.66 582.123 1576.45 585.46L1614.25 588.798" stroke="url(#paint47_linear_2_3096)" stroke-width="2.79423"/>
<path opacity="0.494949" d="M1127.24 192.312L1140.13 213.898C1153.02 235.484 1178.8 278.656 1224.4 307.371C1270.01 336.085 1335.44 350.342 1365.63 390.301C1395.81 430.261 1390.75 495.923 1425.34 532.67C1459.94 569.416 1534.18 577.247 1571.3 581.163L1608.42 585.078" stroke="url(#paint48_linear_2_3096)" stroke-width="2.74916"/>
<path opacity="0.50505" d="M1136.28 186.949L1148.58 208.388C1160.88 229.826 1185.48 272.704 1229.83 301.699C1274.18 330.694 1338.28 345.806 1367.27 385.599C1396.25 425.391 1390.12 489.863 1423.5 526.571C1456.87 563.278 1529.75 572.221 1566.2 576.692L1602.64 581.163" stroke="url(#paint49_linear_2_3096)" stroke-width="2.70409"/>
<path opacity="0.515152" d="M1145.28 181.779L1157 203.057C1168.71 224.334 1192.15 266.889 1235.24 296.13C1278.34 325.371 1341.11 341.299 1368.91 380.895C1396.71 420.492 1389.54 483.757 1421.72 520.395C1453.89 557.033 1525.39 567.043 1561.15 572.048L1596.9 577.053" stroke="url(#paint50_linear_2_3096)" stroke-width="2.65902"/>
<path opacity="0.525253" d="M1154.23 176.799L1165.37 197.903C1176.52 219.006 1198.8 261.212 1240.65 290.665C1282.5 320.118 1343.91 336.818 1370.55 376.191C1397.18 415.563 1389.03 477.607 1420 514.145C1450.98 550.683 1521.1 561.716 1556.15 567.232L1591.21 572.748" stroke="url(#paint51_linear_2_3096)" stroke-width="2.61396"/>
<path opacity="0.535354" d="M1163.12 172.01L1173.7 192.925C1184.28 213.841 1205.43 255.672 1246.04 285.304C1286.65 314.935 1346.71 332.366 1372.19 371.486C1397.66 410.606 1388.56 471.415 1418.36 507.824C1448.16 544.233 1516.87 556.242 1551.22 562.247L1585.57 568.252" stroke="url(#paint52_linear_2_3096)" stroke-width="2.56889"/>
<path opacity="0.545455" d="M1171.95 167.409L1181.97 188.124C1192 208.839 1212.05 250.27 1251.42 280.046C1290.79 309.821 1349.49 327.943 1373.83 366.783C1398.17 405.624 1388.16 465.184 1416.79 501.434C1445.43 537.685 1512.72 550.626 1546.36 557.097L1580 563.568" stroke="url(#paint53_linear_2_3096)" stroke-width="2.52382"/>
<path opacity="0.555556" d="M1180.71 162.993L1190.19 183.495C1199.67 203.998 1218.63 245.002 1256.78 274.889C1294.92 304.776 1352.24 323.546 1375.47 362.08C1398.69 400.614 1387.81 458.913 1415.3 494.977C1442.78 531.041 1508.64 544.869 1541.56 551.783L1574.49 558.697" stroke="url(#paint54_linear_2_3096)" stroke-width="2.47875"/>
<path opacity="0.565657" d="M1189.4 158.758L1198.35 179.036C1207.29 199.313 1225.19 239.868 1262.11 269.833C1299.03 299.798 1354.99 319.174 1377.11 357.375C1399.23 395.577 1387.52 452.604 1413.88 488.453C1440.23 524.301 1504.64 538.97 1536.84 546.305L1569.04 553.639" stroke="url(#paint55_linear_2_3096)" stroke-width="2.43368"/>
<path opacity="0.575758" d="M1198.02 154.704L1206.44 174.744C1214.86 194.785 1231.71 234.866 1267.42 264.876C1303.14 294.887 1357.71 314.828 1378.75 352.671C1399.79 390.514 1387.3 446.259 1412.53 481.865C1437.76 517.47 1500.72 532.935 1532.19 540.667L1563.67 548.4" stroke="url(#paint56_linear_2_3096)" stroke-width="2.38861"/>
<path opacity="0.585859" d="M1206.55 150.829L1214.46 170.621C1222.38 190.413 1238.2 229.997 1272.71 260.021C1307.22 290.045 1360.41 310.508 1380.39 347.968C1400.37 385.427 1387.13 439.882 1411.26 475.217C1435.39 510.552 1496.88 526.767 1527.63 534.874L1558.38 542.982" stroke="url(#paint57_linear_2_3096)" stroke-width="2.34355"/>
<path opacity="0.59596" d="M1215 147.129L1222.42 166.661C1229.83 186.193 1244.66 225.257 1277.97 255.262C1311.29 285.267 1363.09 306.213 1382.03 343.264C1400.96 380.315 1387.03 433.471 1410.07 468.508C1433.11 503.546 1493.14 520.466 1523.15 528.925L1553.16 537.385" stroke="url(#paint58_linear_2_3096)" stroke-width="2.29848"/>
<path opacity="0.606061" d="M1223.37 143.602L1230.29 162.863C1237.22 182.124 1251.07 220.647 1283.2 250.601C1315.34 280.555 1365.76 301.941 1383.67 338.56C1401.58 375.178 1386.99 427.029 1408.96 461.743C1430.94 496.458 1489.49 514.036 1518.76 522.825L1548.03 531.614" stroke="url(#paint59_linear_2_3096)" stroke-width="2.25341"/>
<path opacity="0.616162" d="M1231.64 140.244L1238.09 159.224C1244.53 178.203 1257.43 216.163 1288.39 246.035C1319.36 275.908 1368.4 297.693 1385.31 333.856C1402.22 370.018 1387 420.558 1407.93 454.923C1428.86 489.288 1485.92 507.479 1514.46 516.575L1542.99 525.671" stroke="url(#paint60_linear_2_3096)" stroke-width="2.20834"/>
<path opacity="0.626263" d="M1239.82 137.054L1245.8 155.742C1251.78 174.43 1263.75 211.806 1293.56 241.565C1323.37 271.325 1371.02 293.469 1386.95 329.152C1402.88 364.836 1387.09 414.059 1406.98 448.05C1426.88 482.041 1482.46 500.8 1510.25 510.179L1538.04 519.558" stroke="url(#paint61_linear_2_3096)" stroke-width="2.16327"/>
<path opacity="0.636364" d="M1247.89 134.027L1253.42 152.414C1258.95 170.8 1270.01 207.572 1298.68 237.189C1327.35 266.805 1373.62 289.266 1388.59 324.449C1403.56 359.631 1387.24 407.534 1406.12 441.126C1425.01 474.718 1479.1 493.999 1506.15 503.639L1533.2 513.28" stroke="url(#paint62_linear_2_3096)" stroke-width="2.11821"/>
<path opacity="0.646465" d="M1255.87 131.161L1260.96 149.236C1266.05 167.31 1276.23 203.46 1303.76 232.903C1331.3 262.347 1376.19 285.084 1390.23 319.744C1404.27 354.403 1387.45 400.984 1405.34 434.153C1423.24 467.322 1475.84 487.079 1502.14 496.958L1528.45 506.836" stroke="url(#paint63_linear_2_3096)" stroke-width="2.07314"/>
<path opacity="0.656566" d="M1263.73 128.454L1268.4 146.208C1273.06 163.962 1282.38 199.47 1308.81 228.711C1335.23 257.951 1378.74 280.925 1391.87 315.04C1404.99 349.156 1387.72 394.412 1404.65 427.135C1421.57 459.857 1472.69 480.046 1498.24 490.14L1523.8 500.234" stroke="url(#paint64_linear_2_3096)" stroke-width="2.02807"/>
<path opacity="0.666667" d="M1271.49 125.9L1275.74 143.324C1279.98 160.749 1288.48 195.597 1313.8 224.606C1339.12 253.615 1381.27 276.785 1393.51 310.336C1405.74 343.886 1388.06 387.818 1404.04 420.071C1420.01 452.324 1469.64 472.899 1494.45 483.186L1519.27 493.473" stroke="url(#paint65_linear_2_3096)" stroke-width="1.983"/>
<path opacity="0.676768" d="M1279.13 123.499L1282.98 140.584C1286.82 157.67 1294.51 191.842 1318.75 220.59C1342.99 249.339 1383.78 272.665 1395.15 305.631C1406.52 338.598 1388.47 381.205 1403.52 412.966C1418.56 444.728 1466.7 465.643 1490.77 476.101L1514.84 486.559" stroke="url(#paint66_linear_2_3096)" stroke-width="1.93793"/>
<path opacity="0.686869" d="M1286.65 121.246L1290.11 137.985C1293.57 154.724 1300.48 188.203 1323.66 216.663C1346.83 245.123 1386.26 268.565 1396.79 300.928C1407.32 333.291 1388.94 374.575 1403.08 405.823C1417.22 437.071 1463.88 458.283 1487.21 468.889L1510.54 479.495" stroke="url(#paint67_linear_2_3096)" stroke-width="1.89286"/>
<path opacity="0.69697" d="M1294.06 119.137L1297.14 135.521C1300.22 151.906 1306.39 184.675 1328.51 212.819C1350.63 240.963 1388.72 264.482 1398.43 296.223C1408.14 327.964 1389.48 367.928 1402.74 398.641C1416 429.354 1461.17 450.818 1483.76 461.55L1506.35 472.281" stroke="url(#paint68_linear_2_3096)" stroke-width="1.8478"/>
<path opacity="0.707071" d="M1301.33 117.17L1304.05 133.193C1306.77 149.215 1312.22 181.26 1333.31 209.061C1354.4 236.861 1391.15 260.418 1400.07 291.52C1408.99 322.621 1390.08 361.268 1402.48 391.426C1414.88 421.584 1458.58 443.255 1480.43 454.091L1502.28 464.926" stroke="url(#paint69_linear_2_3096)" stroke-width="1.80273"/>
<path opacity="0.717172" d="M1308.48 115.342L1310.85 130.995C1313.23 146.648 1317.97 177.954 1338.05 205.385C1358.14 232.816 1393.55 256.372 1401.71 286.817C1409.86 317.261 1390.75 354.595 1402.31 384.178C1413.88 413.762 1456.11 435.596 1477.22 446.513L1498.34 457.43" stroke="url(#paint70_linear_2_3096)" stroke-width="1.75766"/>
<path opacity="0.727273" d="M1315.5 113.645L1317.54 128.921C1319.58 144.198 1323.65 174.751 1342.74 201.787C1361.83 228.822 1395.93 252.339 1403.35 282.111C1410.76 311.882 1391.49 347.908 1402.24 376.898C1412.99 405.888 1453.76 427.841 1474.15 438.818L1494.53 449.795" stroke="url(#paint71_linear_2_3096)" stroke-width="1.71259"/>
<path opacity="0.737374" d="M1322.38 112.08L1324.1 126.974C1325.82 141.868 1329.26 171.656 1347.37 198.27C1365.49 224.884 1398.29 248.324 1404.99 277.407C1411.69 306.489 1392.29 341.214 1402.26 369.591C1412.22 397.969 1451.54 419.999 1471.2 431.014L1490.85 442.029" stroke="url(#paint72_linear_2_3096)" stroke-width="1.66752"/>
<path opacity="0.747475" d="M1329.13 110.641L1330.54 125.147C1331.95 139.652 1334.78 168.662 1351.95 194.83C1369.11 220.998 1400.61 244.324 1406.63 272.703C1412.64 301.081 1393.16 334.512 1402.36 362.259C1411.56 390.006 1449.44 412.069 1468.38 423.101L1487.31 434.132" stroke="url(#paint73_linear_2_3096)" stroke-width="1.62245"/>
<path opacity="0.757576" d="M1335.73 109.326L1336.86 123.436C1337.98 137.546 1340.22 165.767 1356.46 191.465C1372.69 217.163 1402.92 240.338 1408.27 267.998C1413.62 295.658 1394.1 327.804 1402.56 354.904C1411.02 382.003 1447.47 404.057 1465.69 415.083L1483.91 426.11" stroke="url(#paint74_linear_2_3096)" stroke-width="1.57739"/>
<path opacity="0.767677" d="M1342.19 108.13L1343.04 121.841C1343.88 135.551 1345.57 162.972 1360.9 188.176C1376.22 213.38 1405.19 236.367 1409.91 263.295C1414.63 290.223 1395.1 321.093 1402.85 347.529C1410.6 373.964 1445.62 395.966 1463.14 406.966L1480.65 417.967" stroke="url(#paint75_linear_2_3096)" stroke-width="1.53232"/>
<path opacity="0.777778" d="M1348.51 107.048L1349.09 120.354C1349.68 133.659 1350.84 160.27 1365.28 184.957C1379.72 209.644 1407.43 232.407 1411.55 258.59C1415.66 284.774 1396.17 314.378 1403.24 340.134C1410.3 365.889 1443.92 387.797 1460.72 398.751L1477.53 409.705" stroke="url(#paint76_linear_2_3096)" stroke-width="1.48725"/>
<path opacity="0.787879" d="M1354.68 106.076L1355.01 118.972C1355.35 131.868 1356.01 157.66 1369.59 181.808C1383.16 205.955 1409.65 228.458 1413.18 253.885C1416.72 279.311 1397.31 307.661 1403.71 332.722C1410.11 357.783 1442.34 379.555 1458.45 390.441L1474.56 401.327" stroke="url(#paint77_linear_2_3096)" stroke-width="1.44218"/>
<path opacity="0.79798" d="M1360.7 105.213L1360.8 117.695C1360.9 130.177 1361.1 155.141 1373.83 178.727C1386.57 202.314 1411.84 224.522 1414.82 249.18C1417.81 273.838 1398.51 300.945 1404.28 325.297C1410.05 349.649 1440.89 371.245 1456.32 382.043L1471.74 392.841" stroke="url(#paint78_linear_2_3096)" stroke-width="1.39711"/>
<path opacity="0.808081" d="M1366.56 104.453L1366.44 116.517C1366.32 128.582 1366.09 152.71 1378.01 175.714C1389.92 198.718 1414 220.598 1416.47 244.476C1418.93 268.355 1399.78 294.233 1404.94 317.862C1410.11 341.491 1439.59 362.87 1454.33 373.56L1469.07 384.25" stroke="url(#paint79_linear_2_3096)" stroke-width="1.35205"/>
<path opacity="0.818182" d="M1372.27 103.792L1371.95 115.435C1371.62 127.078 1370.98 150.364 1382.1 172.765C1393.23 195.167 1416.14 216.683 1418.1 239.772C1420.07 262.862 1401.11 287.525 1405.7 310.418C1410.28 333.311 1438.42 354.434 1452.49 364.995L1466.56 375.556" stroke="url(#paint80_linear_2_3096)" stroke-width="1.30698"/>
<path opacity="0.828283" d="M1377.82 103.223L1377.31 114.442C1376.8 125.66 1375.77 148.098 1386.13 169.877C1396.49 191.655 1418.24 212.775 1419.74 235.066C1421.25 257.357 1402.51 280.82 1406.55 302.965C1410.58 325.11 1437.39 345.936 1450.79 356.35L1464.2 366.763" stroke="url(#paint81_linear_2_3096)" stroke-width="1.26191"/>
<path opacity="0.838384" d="M1383.21 102.746L1382.52 113.538C1381.84 124.33 1380.46 145.914 1390.08 167.05C1399.7 188.187 1420.31 208.877 1421.38 230.362C1422.45 251.846 1403.98 274.125 1407.49 295.51C1411 316.895 1436.5 337.386 1449.25 347.632L1462 357.878" stroke="url(#paint82_linear_2_3096)" stroke-width="1.21684"/>
<path opacity="0.848485" d="M1388.44 102.357L1387.59 112.719C1386.75 123.081 1385.05 143.806 1393.96 164.283C1402.86 184.76 1422.36 204.988 1423.02 225.658C1423.68 246.328 1405.5 267.439 1408.52 288.054C1411.54 308.668 1435.75 328.786 1447.85 338.845L1459.96 348.905" stroke="url(#paint83_linear_2_3096)" stroke-width="1.17177"/>
<path opacity="0.858586" d="M1393.5 102.046L1392.51 111.978C1391.52 121.909 1389.54 141.771 1397.75 161.57C1405.97 181.369 1424.38 201.104 1424.66 220.952C1424.94 240.8 1407.1 260.762 1409.65 280.596C1412.2 300.43 1435.14 320.137 1446.61 329.99L1458.09 339.844" stroke="url(#paint84_linear_2_3096)" stroke-width="1.1267"/>
<path opacity="0.868687" d="M1398.4 101.816L1397.28 111.315C1396.16 120.813 1393.92 139.809 1401.47 158.913C1409.02 178.017 1426.37 197.228 1426.3 216.249C1426.24 235.269 1408.76 254.099 1410.87 273.143C1412.98 292.187 1434.68 311.446 1445.53 321.076L1456.38 330.705" stroke="url(#paint85_linear_2_3096)" stroke-width="1.08164"/>
<path opacity="0.878788" d="M1403.14 101.656L1401.9 110.721C1400.66 119.785 1398.19 137.913 1405.11 156.306C1412.02 174.699 1428.33 193.356 1427.94 211.543C1427.56 229.73 1410.48 247.447 1412.18 265.693C1413.89 283.939 1434.36 302.713 1444.6 312.1L1454.83 321.488" stroke="url(#paint86_linear_2_3096)" stroke-width="1.03657"/>
<path opacity="0.888889" d="M1407.7 101.566L1406.36 110.195C1405.03 118.825 1402.36 136.083 1408.66 153.749C1414.97 171.415 1430.26 189.488 1429.58 206.837C1428.91 224.186 1412.27 240.811 1413.59 258.251C1414.91 275.691 1434.18 293.945 1443.82 303.072L1453.46 312.199" stroke="url(#paint87_linear_2_3096)" stroke-width="0.9915"/>
<path opacity="0.89899" d="M1412.09 101.542L1410.67 109.736C1409.25 117.93 1406.41 134.319 1412.14 151.243C1417.86 168.167 1432.16 185.627 1431.22 202.134C1430.29 218.642 1414.12 234.196 1415.09 250.822C1416.06 267.448 1434.16 285.147 1443.21 293.996L1452.26 302.845" stroke="url(#paint88_linear_2_3096)" stroke-width="0.946432"/>
<path opacity="0.909091" d="M1416.31 101.576L1414.82 109.335C1413.33 117.094 1410.35 132.611 1415.52 148.779C1420.7 164.948 1434.03 181.767 1432.86 197.429C1431.69 213.091 1416.03 227.596 1416.68 243.403C1417.32 259.209 1434.27 276.318 1442.75 284.872L1451.22 293.427" stroke="url(#paint89_linear_2_3096)" stroke-width="0.901364"/>
<path opacity="0.919192" d="M1420.35 101.664L1418.81 108.988C1417.27 116.312 1414.18 130.959 1418.83 146.358C1423.48 161.757 1435.87 177.908 1434.5 192.723C1433.13 207.537 1418 221.015 1418.36 235.997C1418.71 250.978 1434.54 267.463 1442.45 275.706L1450.37 283.949" stroke="url(#paint90_linear_2_3096)" stroke-width="0.856296"/>
<path opacity="0.929293" d="M1424.23 101.805L1422.64 108.694C1421.06 115.584 1417.89 129.363 1422.05 143.98C1426.2 158.597 1437.68 174.053 1436.14 188.019C1434.6 201.984 1420.04 214.458 1420.13 228.61C1420.21 242.761 1434.95 258.59 1442.31 266.504L1449.68 274.419" stroke="url(#paint91_linear_2_3096)" stroke-width="0.811227"/>
<path opacity="0.939394" d="M1427.92 101.991L1426.31 108.447C1424.7 114.903 1421.49 127.816 1425.18 141.64C1428.87 155.463 1439.46 170.198 1437.78 183.313C1436.1 196.428 1422.13 207.923 1421.99 221.241C1421.84 234.558 1435.5 249.698 1442.34 257.268L1449.17 264.839" stroke="url(#paint92_linear_2_3096)" stroke-width="0.766159"/>
<path opacity="0.949495" d="M1431.44 102.219L1429.82 108.244C1428.2 114.268 1424.97 126.317 1428.22 139.336C1431.47 152.356 1441.21 166.344 1439.42 178.609C1437.62 190.874 1424.29 201.414 1423.94 213.894C1423.58 226.375 1436.21 240.795 1442.52 248.005L1448.84 255.215" stroke="url(#paint93_linear_2_3096)" stroke-width="0.721091"/>
<path opacity="0.959596" d="M1434.78 102.483L1433.17 108.078C1431.56 113.673 1428.33 124.862 1431.17 137.066C1434.02 149.27 1442.94 162.489 1441.06 173.904C1439.18 185.319 1426.5 194.93 1425.98 206.57C1425.45 218.211 1437.07 231.88 1442.87 238.715L1448.68 245.549" stroke="url(#paint94_linear_2_3096)" stroke-width="0.676023"/>
<path opacity="0.969697" d="M1437.95 102.78L1436.35 107.947C1434.76 113.114 1431.57 123.449 1434.04 134.828C1436.5 146.207 1444.63 158.632 1442.7 169.198C1440.77 179.765 1428.78 188.474 1428.1 199.272C1427.43 210.071 1438.07 222.96 1443.39 229.404L1448.71 235.849" stroke="url(#paint95_linear_2_3096)" stroke-width="0.630955"/>
<path opacity="0.979798" d="M1440.93 103.104L1439.37 107.847C1437.81 112.589 1434.69 122.073 1436.81 132.619C1438.93 143.165 1446.29 154.773 1444.34 164.493C1442.38 174.213 1431.11 182.046 1430.31 192.002C1429.52 201.959 1439.21 214.038 1444.06 220.078L1448.91 226.117" stroke="url(#paint96_linear_2_3096)" stroke-width="0.585886"/>
<path opacity="0.989899" d="M1443.74 103.452L1442.23 107.773C1440.71 112.093 1437.69 120.733 1439.49 130.438C1441.3 140.142 1447.93 150.911 1445.98 159.788C1444.03 168.665 1433.49 175.65 1432.61 184.763C1431.73 193.877 1440.51 205.118 1444.9 210.739L1449.29 216.36" stroke="url(#paint97_linear_2_3096)" stroke-width="0.540818"/>
<path d="M1446.36 103.818L1444.91 107.719C1443.46 111.621 1440.57 119.424 1442.08 128.28C1443.6 137.136 1449.53 147.045 1447.62 155.082C1445.7 163.119 1435.93 169.284 1435 177.555C1434.06 185.827 1441.96 196.204 1445.9 201.392L1449.85 206.581" stroke="url(#paint98_linear_2_3096)" stroke-width="0.49575"/>
</g>
</g>
<defs>
<filter id="filter0_f_2_3096" x="965" y="-509" width="1416" height="1416" filterUnits="userSpaceOnUse" color-interpolation-filters="sRGB">
<feFlood flood-opacity="0" result="BackgroundImageFix"/>
<feBlend mode="normal" in="SourceGraphic" in2="BackgroundImageFix" result="shape"/>
<feGaussianBlur stdDeviation="200" result="effect1_foregroundBlur_2_3096"/>
</filter>
<filter id="filter1_f_2_3096" x="425" y="141" width="1521" height="1449" filterUnits="userSpaceOnUse" color-interpolation-filters="sRGB">
<feFlood flood-opacity="0" result="BackgroundImageFix"/>
<feBlend mode="normal" in="SourceGraphic" in2="BackgroundImageFix" result="shape"/>
<feGaussianBlur stdDeviation="200" result="effect1_foregroundBlur_2_3096"/>
</filter>
<filter id="filter2_f_2_3096" x="-79" y="83" width="1488" height="1439" filterUnits="userSpaceOnUse" color-interpolation-filters="sRGB">
<feFlood flood-opacity="0" result="BackgroundImageFix"/>
<feBlend mode="normal" in="SourceGraphic" in2="BackgroundImageFix" result="shape"/>
<feGaussianBlur stdDeviation="200" result="effect1_foregroundBlur_2_3096"/>
</filter>
<filter id="filter3_f_2_3096" x="-854" y="-27" width="1743" height="1573" filterUnits="userSpaceOnUse" color-interpolation-filters="sRGB">
<feFlood flood-opacity="0" result="BackgroundImageFix"/>
<feBlend mode="normal" in="SourceGraphic" in2="BackgroundImageFix" result="shape"/>
<feGaussianBlur stdDeviation="250" result="effect1_foregroundBlur_2_3096"/>
</filter>
<linearGradient id="paint0_linear_2_3096" x1="1299.27" y1="481.37" x2="1273.09" y2="750.894" gradientUnits="userSpaceOnUse">
<stop stop-color="white"/>
<stop offset="1" stop-color="white"/>
</linearGradient>
<linearGradient id="paint1_linear_2_3096" x1="1303.17" y1="478.15" x2="1272.64" y2="744.701" gradientUnits="userSpaceOnUse">
<stop stop-color="white"/>
<stop offset="1" stop-color="white"/>
</linearGradient>
<linearGradient id="paint2_linear_2_3096" x1="1307.01" y1="474.965" x2="1272.25" y2="738.477" gradientUnits="userSpaceOnUse">
<stop stop-color="white"/>
<stop offset="1" stop-color="white"/>
</linearGradient>
<linearGradient id="paint3_linear_2_3096" x1="1310.81" y1="471.815" x2="1271.89" y2="732.225" gradientUnits="userSpaceOnUse">
<stop stop-color="white"/>
<stop offset="1" stop-color="white"/>
</linearGradient>
<linearGradient id="paint4_linear_2_3096" x1="1314.56" y1="468.698" x2="1271.59" y2="725.945" gradientUnits="userSpaceOnUse">
<stop stop-color="white"/>
<stop offset="1" stop-color="white"/>
</linearGradient>
<linearGradient id="paint5_linear_2_3096" x1="1318.25" y1="465.613" x2="1271.33" y2="719.638" gradientUnits="userSpaceOnUse">
<stop stop-color="white"/>
<stop offset="1" stop-color="white"/>
</linearGradient>
<linearGradient id="paint6_linear_2_3096" x1="1321.9" y1="462.558" x2="1271.12" y2="713.305" gradientUnits="userSpaceOnUse">
<stop stop-color="white"/>
<stop offset="1" stop-color="white"/>
</linearGradient>
<linearGradient id="paint7_linear_2_3096" x1="1325.5" y1="459.534" x2="1270.96" y2="706.948" gradientUnits="userSpaceOnUse">
<stop stop-color="white"/>
<stop offset="1" stop-color="white"/>
</linearGradient>
<linearGradient id="paint8_linear_2_3096" x1="1329.04" y1="456.537" x2="1270.84" y2="700.567" gradientUnits="userSpaceOnUse">
<stop stop-color="white"/>
<stop offset="1" stop-color="white"/>
</linearGradient>
<linearGradient id="paint9_linear_2_3096" x1="1332.54" y1="453.567" x2="1270.77" y2="694.163" gradientUnits="userSpaceOnUse">
<stop stop-color="white"/>
<stop offset="1" stop-color="white"/>
</linearGradient>
<linearGradient id="paint10_linear_2_3096" x1="1335.98" y1="450.623" x2="1270.75" y2="687.737" gradientUnits="userSpaceOnUse">
<stop stop-color="white"/>
<stop offset="1" stop-color="white"/>
</linearGradient>
<linearGradient id="paint11_linear_2_3096" x1="1339.37" y1="447.704" x2="1270.78" y2="681.292" gradientUnits="userSpaceOnUse">
<stop stop-color="white"/>
<stop offset="1" stop-color="white"/>
</linearGradient>
<linearGradient id="paint12_linear_2_3096" x1="1342.71" y1="444.807" x2="1270.86" y2="674.826" gradientUnits="userSpaceOnUse">
<stop stop-color="white"/>
<stop offset="1" stop-color="white"/>
</linearGradient>
<linearGradient id="paint13_linear_2_3096" x1="1345.99" y1="441.933" x2="1270.98" y2="668.342" gradientUnits="userSpaceOnUse">
<stop stop-color="white"/>
<stop offset="1" stop-color="white"/>
</linearGradient>
<linearGradient id="paint14_linear_2_3096" x1="1349.22" y1="439.079" x2="1271.15" y2="661.84" gradientUnits="userSpaceOnUse">
<stop stop-color="white"/>
<stop offset="1" stop-color="white"/>
</linearGradient>
<linearGradient id="paint15_linear_2_3096" x1="1352.39" y1="436.244" x2="1271.37" y2="655.322" gradientUnits="userSpaceOnUse">
<stop stop-color="white"/>
<stop offset="1" stop-color="white"/>
</linearGradient>
<linearGradient id="paint16_linear_2_3096" x1="1355.52" y1="433.427" x2="1271.64" y2="648.788" gradientUnits="userSpaceOnUse">
<stop stop-color="white"/>
<stop offset="1" stop-color="white"/>
</linearGradient>
<linearGradient id="paint17_linear_2_3096" x1="1358.59" y1="430.628" x2="1271.95" y2="642.24" gradientUnits="userSpaceOnUse">
<stop stop-color="white"/>
<stop offset="1" stop-color="white"/>
</linearGradient>
<linearGradient id="paint18_linear_2_3096" x1="1361.6" y1="427.843" x2="1272.32" y2="635.678" gradientUnits="userSpaceOnUse">
<stop stop-color="white"/>
<stop offset="1" stop-color="white"/>
</linearGradient>
<linearGradient id="paint19_linear_2_3096" x1="1364.56" y1="425.072" x2="1272.73" y2="629.103" gradientUnits="userSpaceOnUse">
<stop stop-color="white"/>
<stop offset="1" stop-color="white"/>
</linearGradient>
<linearGradient id="paint20_linear_2_3096" x1="1367.47" y1="422.316" x2="1273.19" y2="622.519" gradientUnits="userSpaceOnUse">
<stop stop-color="white"/>
<stop offset="1" stop-color="white"/>
</linearGradient>
<linearGradient id="paint21_linear_2_3096" x1="1370.32" y1="419.571" x2="1273.7" y2="615.922" gradientUnits="userSpaceOnUse">
<stop stop-color="white"/>
<stop offset="1" stop-color="white"/>
</linearGradient>
<linearGradient id="paint22_linear_2_3096" x1="1373.12" y1="416.835" x2="1274.26" y2="609.316" gradientUnits="userSpaceOnUse">
<stop stop-color="white"/>
<stop offset="1" stop-color="white"/>
</linearGradient>
<linearGradient id="paint23_linear_2_3096" x1="1375.86" y1="414.11" x2="1274.86" y2="602.702" gradientUnits="userSpaceOnUse">
<stop stop-color="white"/>
<stop offset="1" stop-color="white"/>
</linearGradient>
<linearGradient id="paint24_linear_2_3096" x1="1378.55" y1="411.39" x2="1275.52" y2="596.079" gradientUnits="userSpaceOnUse">
<stop stop-color="white"/>
<stop offset="1" stop-color="white"/>
</linearGradient>
<linearGradient id="paint25_linear_2_3096" x1="1381.18" y1="408.679" x2="1276.22" y2="589.451" gradientUnits="userSpaceOnUse">
<stop stop-color="white"/>
<stop offset="1" stop-color="white"/>
</linearGradient>
<linearGradient id="paint26_linear_2_3096" x1="1383.76" y1="405.973" x2="1276.97" y2="582.816" gradientUnits="userSpaceOnUse">
<stop stop-color="white"/>
<stop offset="1" stop-color="white"/>
</linearGradient>
<linearGradient id="paint27_linear_2_3096" x1="1386.29" y1="403.271" x2="1277.77" y2="576.177" gradientUnits="userSpaceOnUse">
<stop stop-color="white"/>
<stop offset="1" stop-color="white"/>
</linearGradient>
<linearGradient id="paint28_linear_2_3096" x1="1388.76" y1="400.572" x2="1278.61" y2="569.536" gradientUnits="userSpaceOnUse">
<stop stop-color="white"/>
<stop offset="1" stop-color="white"/>
</linearGradient>
<linearGradient id="paint29_linear_2_3096" x1="1391.18" y1="397.874" x2="1279.51" y2="562.889" gradientUnits="userSpaceOnUse">
<stop stop-color="white"/>
<stop offset="1" stop-color="white"/>
</linearGradient>
<linearGradient id="paint30_linear_2_3096" x1="1393.55" y1="395.176" x2="1280.45" y2="556.242" gradientUnits="userSpaceOnUse">
<stop stop-color="white"/>
<stop offset="1" stop-color="white"/>
</linearGradient>
<linearGradient id="paint31_linear_2_3096" x1="1395.85" y1="392.478" x2="1281.44" y2="549.594" gradientUnits="userSpaceOnUse">
<stop stop-color="white"/>
<stop offset="1" stop-color="white"/>
</linearGradient>
<linearGradient id="paint32_linear_2_3096" x1="1398.11" y1="389.777" x2="1282.48" y2="542.946" gradientUnits="userSpaceOnUse">
<stop stop-color="white"/>
<stop offset="1" stop-color="white"/>
</linearGradient>
<linearGradient id="paint33_linear_2_3096" x1="1400.32" y1="387.074" x2="1283.56" y2="536.3" gradientUnits="userSpaceOnUse">
<stop stop-color="white"/>
<stop offset="1" stop-color="white"/>
</linearGradient>
<linearGradient id="paint34_linear_2_3096" x1="1402.47" y1="384.364" x2="1284.69" y2="529.655" gradientUnits="userSpaceOnUse">
<stop stop-color="white"/>
<stop offset="1" stop-color="white"/>
</linearGradient>
<linearGradient id="paint35_linear_2_3096" x1="1404.57" y1="381.65" x2="1285.87" y2="523.014" gradientUnits="userSpaceOnUse">
<stop stop-color="white"/>
<stop offset="1" stop-color="white"/>
</linearGradient>
<linearGradient id="paint36_linear_2_3096" x1="1406.62" y1="378.929" x2="1287.1" y2="516.377" gradientUnits="userSpaceOnUse">
<stop stop-color="white"/>
<stop offset="1" stop-color="white"/>
</linearGradient>
<linearGradient id="paint37_linear_2_3096" x1="1408.62" y1="376.2" x2="1288.37" y2="509.745" gradientUnits="userSpaceOnUse">
<stop stop-color="white"/>
<stop offset="1" stop-color="white"/>
</linearGradient>
<linearGradient id="paint38_linear_2_3096" x1="1410.56" y1="373.462" x2="1289.69" y2="503.119" gradientUnits="userSpaceOnUse">
<stop stop-color="white"/>
<stop offset="1" stop-color="white"/>
</linearGradient>
<linearGradient id="paint39_linear_2_3096" x1="1412.46" y1="370.712" x2="1291.06" y2="496.5" gradientUnits="userSpaceOnUse">
<stop stop-color="white"/>
<stop offset="1" stop-color="white"/>
</linearGradient>
<linearGradient id="paint40_linear_2_3096" x1="1414.3" y1="367.953" x2="1292.47" y2="489.891" gradientUnits="userSpaceOnUse">
<stop stop-color="white"/>
<stop offset="1" stop-color="white"/>
</linearGradient>
<linearGradient id="paint41_linear_2_3096" x1="1416.09" y1="365.18" x2="1293.92" y2="483.29" gradientUnits="userSpaceOnUse">
<stop stop-color="white"/>
<stop offset="1" stop-color="white"/>
</linearGradient>
<linearGradient id="paint42_linear_2_3096" x1="1417.84" y1="362.395" x2="1295.43" y2="476.7" gradientUnits="userSpaceOnUse">
<stop stop-color="white"/>
<stop offset="1" stop-color="white"/>
</linearGradient>
<linearGradient id="paint43_linear_2_3096" x1="1419.54" y1="359.591" x2="1296.98" y2="470.117" gradientUnits="userSpaceOnUse">
<stop stop-color="white"/>
<stop offset="1" stop-color="white"/>
</linearGradient>
<linearGradient id="paint44_linear_2_3096" x1="1421.18" y1="356.774" x2="1298.57" y2="463.55" gradientUnits="userSpaceOnUse">
<stop stop-color="white"/>
<stop offset="1" stop-color="white"/>
</linearGradient>
<linearGradient id="paint45_linear_2_3096" x1="1422.78" y1="353.939" x2="1300.21" y2="456.995" gradientUnits="userSpaceOnUse">
<stop stop-color="white"/>
<stop offset="1" stop-color="white"/>
</linearGradient>
<linearGradient id="paint46_linear_2_3096" x1="1424.34" y1="351.085" x2="1301.89" y2="450.454" gradientUnits="userSpaceOnUse">
<stop stop-color="white"/>
<stop offset="1" stop-color="white"/>
</linearGradient>
<linearGradient id="paint47_linear_2_3096" x1="1425.84" y1="348.214" x2="1303.62" y2="443.929" gradientUnits="userSpaceOnUse">
<stop stop-color="white"/>
<stop offset="1" stop-color="white"/>
</linearGradient>
<linearGradient id="paint48_linear_2_3096" x1="1427.31" y1="345.321" x2="1305.39" y2="437.418" gradientUnits="userSpaceOnUse">
<stop stop-color="white"/>
<stop offset="1" stop-color="white"/>
</linearGradient>
<linearGradient id="paint49_linear_2_3096" x1="1428.72" y1="342.409" x2="1307.2" y2="430.927" gradientUnits="userSpaceOnUse">
<stop stop-color="white"/>
<stop offset="1" stop-color="white"/>
</linearGradient>
<linearGradient id="paint50_linear_2_3096" x1="1430.09" y1="339.474" x2="1309.06" y2="424.452" gradientUnits="userSpaceOnUse">
<stop stop-color="white"/>
<stop offset="1" stop-color="white"/>
</linearGradient>
<linearGradient id="paint51_linear_2_3096" x1="1431.42" y1="336.514" x2="1310.96" y2="417.996" gradientUnits="userSpaceOnUse">
<stop stop-color="white"/>
<stop offset="1" stop-color="white"/>
</linearGradient>
<linearGradient id="paint52_linear_2_3096" x1="1432.7" y1="333.531" x2="1312.9" y2="411.56" gradientUnits="userSpaceOnUse">
<stop stop-color="white"/>
<stop offset="1" stop-color="white"/>
</linearGradient>
<linearGradient id="paint53_linear_2_3096" x1="1433.95" y1="330.524" x2="1314.88" y2="405.146" gradientUnits="userSpaceOnUse">
<stop stop-color="white"/>
<stop offset="1" stop-color="white"/>
</linearGradient>
<linearGradient id="paint54_linear_2_3096" x1="1435.15" y1="327.491" x2="1316.9" y2="398.755" gradientUnits="userSpaceOnUse">
<stop stop-color="white"/>
<stop offset="1" stop-color="white"/>
</linearGradient>
<linearGradient id="paint55_linear_2_3096" x1="1436.31" y1="324.43" x2="1318.96" y2="392.385" gradientUnits="userSpaceOnUse">
<stop stop-color="white"/>
<stop offset="1" stop-color="white"/>
</linearGradient>
<linearGradient id="paint56_linear_2_3096" x1="1437.43" y1="321.341" x2="1321.07" y2="386.038" gradientUnits="userSpaceOnUse">
<stop stop-color="white"/>
<stop offset="1" stop-color="white"/>
</linearGradient>
<linearGradient id="paint57_linear_2_3096" x1="1438.51" y1="318.226" x2="1323.21" y2="379.719" gradientUnits="userSpaceOnUse">
<stop stop-color="white"/>
<stop offset="1" stop-color="white"/>
</linearGradient>
<linearGradient id="paint58_linear_2_3096" x1="1439.55" y1="315.079" x2="1325.39" y2="373.424" gradientUnits="userSpaceOnUse">
<stop stop-color="white"/>
<stop offset="1" stop-color="white"/>
</linearGradient>
<linearGradient id="paint59_linear_2_3096" x1="1440.56" y1="311.903" x2="1327.61" y2="367.157" gradientUnits="userSpaceOnUse">
<stop stop-color="white"/>
<stop offset="1" stop-color="white"/>
</linearGradient>
<linearGradient id="paint60_linear_2_3096" x1="1441.53" y1="308.696" x2="1329.86" y2="360.916" gradientUnits="userSpaceOnUse">
<stop stop-color="white"/>
<stop offset="1" stop-color="white"/>
</linearGradient>
<linearGradient id="paint61_linear_2_3096" x1="1442.46" y1="305.458" x2="1332.15" y2="354.706" gradientUnits="userSpaceOnUse">
<stop stop-color="white"/>
<stop offset="1" stop-color="white"/>
</linearGradient>
<linearGradient id="paint62_linear_2_3096" x1="1443.36" y1="302.186" x2="1334.48" y2="348.524" gradientUnits="userSpaceOnUse">
<stop stop-color="white"/>
<stop offset="1" stop-color="white"/>
</linearGradient>
<linearGradient id="paint63_linear_2_3096" x1="1444.22" y1="298.881" x2="1336.84" y2="342.372" gradientUnits="userSpaceOnUse">
<stop stop-color="white"/>
<stop offset="1" stop-color="white"/>
</linearGradient>
<linearGradient id="paint64_linear_2_3096" x1="1445.06" y1="295.543" x2="1339.23" y2="336.254" gradientUnits="userSpaceOnUse">
<stop stop-color="white"/>
<stop offset="1" stop-color="white"/>
</linearGradient>
<linearGradient id="paint65_linear_2_3096" x1="1445.86" y1="292.169" x2="1341.66" y2="330.165" gradientUnits="userSpaceOnUse">
<stop stop-color="white"/>
<stop offset="1" stop-color="white"/>
</linearGradient>
<linearGradient id="paint66_linear_2_3096" x1="1446.63" y1="288.76" x2="1344.12" y2="324.111" gradientUnits="userSpaceOnUse">
<stop stop-color="white"/>
<stop offset="1" stop-color="white"/>
</linearGradient>
<linearGradient id="paint67_linear_2_3096" x1="1447.37" y1="285.316" x2="1346.62" y2="318.092" gradientUnits="userSpaceOnUse">
<stop stop-color="white"/>
<stop offset="1" stop-color="white"/>
</linearGradient>
<linearGradient id="paint68_linear_2_3096" x1="1448.08" y1="281.834" x2="1349.14" y2="312.105" gradientUnits="userSpaceOnUse">
<stop stop-color="white"/>
<stop offset="1" stop-color="white"/>
</linearGradient>
<linearGradient id="paint69_linear_2_3096" x1="1448.76" y1="278.317" x2="1351.69" y2="306.157" gradientUnits="userSpaceOnUse">
<stop stop-color="white"/>
<stop offset="1" stop-color="white"/>
</linearGradient>
<linearGradient id="paint70_linear_2_3096" x1="1449.41" y1="274.762" x2="1354.27" y2="300.244" gradientUnits="userSpaceOnUse">
<stop stop-color="white"/>
<stop offset="1" stop-color="white"/>
</linearGradient>
<linearGradient id="paint71_linear_2_3096" x1="1450.05" y1="271.166" x2="1356.89" y2="294.366" gradientUnits="userSpaceOnUse">
<stop stop-color="white"/>
<stop offset="1" stop-color="white"/>
</linearGradient>
<linearGradient id="paint72_linear_2_3096" x1="1450.65" y1="267.533" x2="1359.52" y2="288.528" gradientUnits="userSpaceOnUse">
<stop stop-color="white"/>
<stop offset="1" stop-color="white"/>
</linearGradient>
<linearGradient id="paint73_linear_2_3096" x1="1451.23" y1="263.861" x2="1362.19" y2="282.729" gradientUnits="userSpaceOnUse">
<stop stop-color="white"/>
<stop offset="1" stop-color="white"/>
</linearGradient>
<linearGradient id="paint74_linear_2_3096" x1="1451.8" y1="260.148" x2="1364.88" y2="276.968" gradientUnits="userSpaceOnUse">
<stop stop-color="white"/>
<stop offset="1" stop-color="white"/>
</linearGradient>
<linearGradient id="paint75_linear_2_3096" x1="1452.33" y1="256.397" x2="1367.59" y2="271.249" gradientUnits="userSpaceOnUse">
<stop stop-color="white"/>
<stop offset="1" stop-color="white"/>
</linearGradient>
<linearGradient id="paint76_linear_2_3096" x1="1452.85" y1="252.604" x2="1370.32" y2="265.569" gradientUnits="userSpaceOnUse">
<stop stop-color="white"/>
<stop offset="1" stop-color="white"/>
</linearGradient>
<linearGradient id="paint77_linear_2_3096" x1="1453.35" y1="248.769" x2="1373.08" y2="259.93" gradientUnits="userSpaceOnUse">
<stop stop-color="white"/>
<stop offset="1" stop-color="white"/>
</linearGradient>
<linearGradient id="paint78_linear_2_3096" x1="1453.83" y1="244.893" x2="1375.86" y2="254.333" gradientUnits="userSpaceOnUse">
<stop stop-color="white"/>
<stop offset="1" stop-color="white"/>
</linearGradient>
<linearGradient id="paint79_linear_2_3096" x1="1454.29" y1="240.977" x2="1378.66" y2="248.779" gradientUnits="userSpaceOnUse">
<stop stop-color="white"/>
<stop offset="1" stop-color="white"/>
</linearGradient>
<linearGradient id="paint80_linear_2_3096" x1="1454.74" y1="237.019" x2="1381.47" y2="243.269" gradientUnits="userSpaceOnUse">
<stop stop-color="white"/>
<stop offset="1" stop-color="white"/>
</linearGradient>
<linearGradient id="paint81_linear_2_3096" x1="1455.17" y1="233.015" x2="1384.3" y2="237.799" gradientUnits="userSpaceOnUse">
<stop stop-color="white"/>
<stop offset="1" stop-color="white"/>
</linearGradient>
<linearGradient id="paint82_linear_2_3096" x1="1455.59" y1="228.972" x2="1387.15" y2="232.376" gradientUnits="userSpaceOnUse">
<stop stop-color="white"/>
<stop offset="1" stop-color="white"/>
</linearGradient>
<linearGradient id="paint83_linear_2_3096" x1="1455.99" y1="224.886" x2="1390.01" y2="226.997" gradientUnits="userSpaceOnUse">
<stop stop-color="white"/>
<stop offset="1" stop-color="white"/>
</linearGradient>
<linearGradient id="paint84_linear_2_3096" x1="1456.39" y1="220.755" x2="1392.89" y2="221.661" gradientUnits="userSpaceOnUse">
<stop stop-color="white"/>
<stop offset="1" stop-color="white"/>
</linearGradient>
<linearGradient id="paint85_linear_2_3096" x1="1456.77" y1="216.583" x2="1395.78" y2="216.372" gradientUnits="userSpaceOnUse">
<stop stop-color="white"/>
<stop offset="1" stop-color="white"/>
</linearGradient>
<linearGradient id="paint86_linear_2_3096" x1="1457.15" y1="212.365" x2="1398.68" y2="211.126" gradientUnits="userSpaceOnUse">
<stop stop-color="white"/>
<stop offset="1" stop-color="white"/>
</linearGradient>
<linearGradient id="paint87_linear_2_3096" x1="1457.51" y1="208.104" x2="1401.59" y2="205.927" gradientUnits="userSpaceOnUse">
<stop stop-color="white"/>
<stop offset="1" stop-color="white"/>
</linearGradient>
<linearGradient id="paint88_linear_2_3096" x1="1457.87" y1="203.802" x2="1404.51" y2="200.776" gradientUnits="userSpaceOnUse">
<stop stop-color="white"/>
<stop offset="1" stop-color="white"/>
</linearGradient>
<linearGradient id="paint89_linear_2_3096" x1="1458.23" y1="199.455" x2="1407.43" y2="195.669" gradientUnits="userSpaceOnUse">
<stop stop-color="white"/>
<stop offset="1" stop-color="white"/>
</linearGradient>
<linearGradient id="paint90_linear_2_3096" x1="1458.58" y1="195.062" x2="1410.36" y2="190.607" gradientUnits="userSpaceOnUse">
<stop stop-color="white"/>
<stop offset="1" stop-color="white"/>
</linearGradient>
<linearGradient id="paint91_linear_2_3096" x1="1458.92" y1="190.627" x2="1413.29" y2="185.594" gradientUnits="userSpaceOnUse">
<stop stop-color="white"/>
<stop offset="1" stop-color="white"/>
</linearGradient>
<linearGradient id="paint92_linear_2_3096" x1="1459.27" y1="186.149" x2="1416.23" y2="180.627" gradientUnits="userSpaceOnUse">
<stop stop-color="white"/>
<stop offset="1" stop-color="white"/>
</linearGradient>
<linearGradient id="paint93_linear_2_3096" x1="1459.61" y1="181.627" x2="1419.17" y2="175.707" gradientUnits="userSpaceOnUse">
<stop stop-color="white"/>
<stop offset="1" stop-color="white"/>
</linearGradient>
<linearGradient id="paint94_linear_2_3096" x1="1459.96" y1="177.06" x2="1422.11" y2="170.832" gradientUnits="userSpaceOnUse">
<stop stop-color="white"/>
<stop offset="1" stop-color="white"/>
</linearGradient>
<linearGradient id="paint95_linear_2_3096" x1="1460.3" y1="172.45" x2="1425.05" y2="166.004" gradientUnits="userSpaceOnUse">
<stop stop-color="white"/>
<stop offset="1" stop-color="white"/>
</linearGradient>
<linearGradient id="paint96_linear_2_3096" x1="1460.65" y1="167.796" x2="1427.99" y2="161.223" gradientUnits="userSpaceOnUse">
<stop stop-color="white"/>
<stop offset="1" stop-color="white"/>
</linearGradient>
<linearGradient id="paint97_linear_2_3096" x1="1461" y1="163.099" x2="1430.93" y2="156.489" gradientUnits="userSpaceOnUse">
<stop stop-color="white"/>
<stop offset="1" stop-color="white"/>
</linearGradient>
<linearGradient id="paint98_linear_2_3096" x1="1461.35" y1="158.358" x2="1433.86" y2="151.8" gradientUnits="userSpaceOnUse">
<stop stop-color="white"/>
<stop offset="1" stop-color="white"/>
</linearGradient>
<clipPath id="clip0_2_3096">
<rect width="1440" height="760" fill="white"/>
</clipPath>
</defs>
</svg>
