<svg width="32" height="32" viewBox="0 0 32 32" fill="none" xmlns="http://www.w3.org/2000/svg">
<g clip-path="url(#clip0_7_7032)">
<path d="M13.9688 0.09375C11.0813 0.46875 8.4375 1.575 6.125 3.3625C5.39375 3.93125 4.15 5.15625 3.54375 5.90625C1.81875 8.04375 0.675 10.5688 0.1875 13.3188C0.0124997 14.2938 -0.0562503 16.6375 0.0562497 17.7063C0.56875 22.4938 3.2125 26.8 7.28125 29.4562C9.30625 30.775 11.5875 31.6062 14.0625 31.9125C15.0125 32.0312 17.0125 32.025 18 31.9062C25.25 31.0062 31.0063 25.25 31.9062 18C32.0312 16.9875 32.0312 15.0125 31.9062 14C31.3313 9.35 28.725 5.18125 24.7812 2.5875C22.725 1.2375 20.4375 0.4 18 0.09375C17.05 -0.0187511 14.8688 -0.0187511 13.9688 0.09375ZM20.1625 6.9375C21.0875 7.01875 21.7188 7.1875 22.4375 7.54375C22.9375 7.7875 23.1187 7.925 23.6 8.4C24.075 8.88125 24.2125 9.0625 24.4563 9.5625C25.0938 10.85 25.1438 11.3813 25.1063 16.5C25.0875 20.2188 25.075 20.5062 24.9563 21.0375C24.5 23.0375 23.2313 24.3937 21.3563 24.8687C20.4937 25.0937 19.6688 25.1312 16 25.1312C11.3938 25.1312 10.8063 25.0687 9.5625 24.4562C9.0625 24.2125 8.88125 24.075 8.4 23.6C7.925 23.1187 7.7875 22.9375 7.54375 22.4375C6.93125 21.1937 6.875 20.65 6.875 16C6.875 11.35 6.93125 10.8062 7.54375 9.5625C7.7875 9.0625 7.91875 8.88125 8.4 8.40625C9.18125 7.63125 9.88125 7.26875 11.0813 7.025C11.95 6.85 18.4188 6.7875 20.1625 6.9375Z" fill="url(#paint0_linear_7_7032)"/>
<path d="M12.1563 8.5C10.9125 8.5875 10.1188 8.8875 9.49376 9.5125C8.86876 10.1437 8.60001 10.8812 8.50001 12.2375C8.42501 13.2688 8.42501 18.7312 8.50001 19.7625C8.60001 21.1125 8.87501 21.8625 9.50626 22.4937C10.1688 23.1625 10.875 23.4 12.4375 23.5062C13.7688 23.5937 19.9188 23.5437 20.4938 23.4437C22.2125 23.1312 23.1313 22.2125 23.4438 20.4937C23.5438 19.9188 23.5938 13.7688 23.5063 12.4375C23.4 10.8562 23.1688 10.175 22.4938 9.50625C21.85 8.8625 21.1188 8.59375 19.725 8.5C18.7625 8.43125 13.15 8.4375 12.1563 8.5ZM21.3813 10.1625C21.7813 10.3687 22.05 10.9187 21.9375 11.3062C21.6938 12.1687 20.775 12.4375 20.1688 11.8313C19.325 10.9875 20.3188 9.61875 21.3813 10.1625ZM17.2813 11.5C18.1 11.7562 18.6625 12.1 19.2813 12.7188C19.9063 13.3438 20.2438 13.9 20.5063 14.75C20.7188 15.425 20.7188 16.575 20.5063 17.25C20.2438 18.1 19.9063 18.6562 19.2813 19.2812C18.6563 19.9062 18.1 20.2437 17.25 20.5062C16.575 20.7188 15.425 20.7188 14.75 20.5062C13.9 20.2437 13.3438 19.9062 12.7188 19.2812C12.0938 18.6562 11.7563 18.1 11.4938 17.25C11.2813 16.575 11.2813 15.425 11.4938 14.75C11.9688 13.2063 13.125 12.0188 14.6125 11.5312C15.15 11.3562 15.4938 11.3187 16.1875 11.3438C16.625 11.3562 16.9875 11.4125 17.2813 11.5Z" fill="url(#paint1_linear_7_7032)"/>
<path d="M15.0187 13.0625C14.2 13.3312 13.4437 14.0437 13.1188 14.8562C12.9938 15.1688 12.9688 15.325 12.9688 16C12.9688 16.6688 12.9938 16.8312 13.1125 17.1375C13.4188 17.8937 14.1063 18.5812 14.8625 18.8875C15.1688 19.0062 15.3312 19.0312 16 19.0312C16.6688 19.0312 16.8312 19.0062 17.1375 18.8875C17.8938 18.5812 18.5813 17.8937 18.8875 17.1375C19.0062 16.8312 19.0312 16.6688 19.0312 16C19.0312 15.3312 19.0062 15.1688 18.8875 14.8625C18.5813 14.1062 17.8875 13.4125 17.1375 13.1188C16.6188 12.9125 15.5625 12.8875 15.0187 13.0625Z" fill="url(#paint2_linear_7_7032)"/>
</g>
<defs>
<linearGradient id="paint0_linear_7_7032" x1="9.23176" y1="57.8359" x2="23.9919" y2="-15.9869" gradientUnits="userSpaceOnUse">
<stop stop-color="#19CCEF"/>
<stop offset="0.5" stop-color="#7EBBED"/>
<stop offset="1" stop-color="#E3AAEB"/>
</linearGradient>
<linearGradient id="paint1_linear_7_7032" x1="12.8017" y1="35.748" x2="19.7683" y2="0.899201" gradientUnits="userSpaceOnUse">
<stop stop-color="#19CCEF"/>
<stop offset="0.5" stop-color="#7EBBED"/>
<stop offset="1" stop-color="#E3AAEB"/>
</linearGradient>
<linearGradient id="paint2_linear_7_7032" x1="14.7175" y1="23.9462" x2="17.5358" y2="9.90748" gradientUnits="userSpaceOnUse">
<stop stop-color="#19CCEF"/>
<stop offset="0.5" stop-color="#7EBBED"/>
<stop offset="1" stop-color="#E3AAEB"/>
</linearGradient>
<clipPath id="clip0_7_7032">
<rect width="32" height="32" fill="white"/>
</clipPath>
</defs>
</svg>
