<svg width="33" height="33" viewBox="0 0 33 33" fill="none" xmlns="http://www.w3.org/2000/svg">
<path d="M18.15 4.9498C18.15 4.5122 17.9762 4.09251 17.6668 3.78308C17.3573 3.47364 16.9377 3.2998 16.5 3.2998C16.0624 3.2998 15.6428 3.47364 15.3333 3.78308C15.0239 4.09251 14.85 4.5122 14.85 4.9498V6.5998C14.85 7.03741 15.0239 7.4571 15.3333 7.76653C15.6428 8.07597 16.0624 8.2498 16.5 8.2498C16.9377 8.2498 17.3573 8.07597 17.6668 7.76653C17.9762 7.4571 18.15 7.03741 18.15 6.5998V4.9498ZM25.8341 9.49886C26.1347 9.18766 26.301 8.77087 26.2972 8.33824C26.2935 7.90562 26.1199 7.49178 25.814 7.18585C25.5081 6.87993 25.0942 6.7064 24.6616 6.70264C24.229 6.69888 23.8122 6.86519 23.501 7.16575L22.3344 8.33231C22.0339 8.6435 21.8676 9.06029 21.8713 9.49292C21.8751 9.92554 22.0486 10.3394 22.3545 10.6453C22.6605 10.9512 23.0743 11.1248 23.5069 11.1285C23.9396 11.1323 24.3564 10.966 24.6675 10.6654L25.8341 9.49886ZM29.7001 16.4998C29.7001 16.9374 29.5262 17.3571 29.2168 17.6665C28.9073 17.976 28.4877 18.1498 28.0501 18.1498H26.4001C25.9624 18.1498 25.5428 17.976 25.2333 17.6665C24.9239 17.3571 24.75 16.9374 24.75 16.4998C24.75 16.0622 24.9239 15.6425 25.2333 15.3331C25.5428 15.0236 25.9624 14.8498 26.4001 14.8498H28.0501C28.4877 14.8498 28.9073 15.0236 29.2168 15.3331C29.5262 15.6425 29.7001 16.0622 29.7001 16.4998ZM8.33255 10.6654C8.48476 10.823 8.66683 10.9487 8.86813 11.0352C9.06944 11.1216 9.28595 11.1672 9.50504 11.1691C9.72412 11.171 9.94139 11.1292 10.1442 11.0463C10.347 10.9633 10.5312 10.8408 10.6861 10.6859C10.841 10.5309 10.9635 10.3467 11.0465 10.1439C11.1295 9.94115 11.1712 9.72388 11.1693 9.50479C11.1674 9.28571 11.1219 9.06919 11.0354 8.86789C10.9489 8.66658 10.8232 8.48451 10.6656 8.33231L9.4991 7.16575C9.18791 6.86519 8.77111 6.69888 8.33849 6.70264C7.90586 6.7064 7.49202 6.87993 7.1861 7.18585C6.88017 7.49178 6.70665 7.90562 6.70289 8.33824C6.69913 8.77087 6.86544 9.18766 7.166 9.49886L8.33255 10.6654ZM8.25005 16.4998C8.25005 16.9374 8.07621 17.3571 7.76678 17.6665C7.45734 17.976 7.03766 18.1498 6.60005 18.1498H4.95005C4.51244 18.1498 4.09276 17.976 3.78332 17.6665C3.47389 17.3571 3.30005 16.9374 3.30005 16.4998C3.30005 16.0622 3.47389 15.6425 3.78332 15.3331C4.09276 15.0236 4.51244 14.8498 4.95005 14.8498H6.60005C7.03766 14.8498 7.45734 15.0236 7.76678 15.3331C8.07621 15.6425 8.25005 16.0622 8.25005 16.4998ZM13.2 26.3998V24.7498H19.8V26.3998C19.8 27.275 19.4524 28.1144 18.8335 28.7333C18.2146 29.3521 17.3753 29.6998 16.5 29.6998C15.6248 29.6998 14.7855 29.3521 14.1666 28.7333C13.5477 28.1144 13.2 27.275 13.2 26.3998ZM19.8 23.0998C19.8248 22.5388 20.1432 22.0339 20.5871 21.6825C21.664 20.8331 22.4496 19.6694 22.8346 18.353C23.2197 17.0366 23.185 15.633 22.7356 14.3372C22.2861 13.0414 21.4441 11.9178 20.3266 11.1226C19.2091 10.3275 17.8716 9.90018 16.5 9.90018C15.1285 9.90018 13.791 10.3275 12.6735 11.1226C11.556 11.9178 10.714 13.0414 10.2645 14.3372C9.81506 15.633 9.78043 17.0366 10.1655 18.353C10.5505 19.6694 11.3361 20.8331 12.413 21.6825C12.8585 22.0339 13.1753 22.5388 13.1984 23.0998H19.8017H19.8Z" fill="#148CEC"/>
</svg>
