<svg width="132" height="44" viewBox="0 0 132 44" fill="none" xmlns="http://www.w3.org/2000/svg">
<rect width="44" height="44" rx="22" fill="#FAF8F8"/>
<path d="M36.5137 12.4717L25.6579 32.445H18.2727L25.6031 18.9598C26.6368 17.0576 28.15 15.4589 29.9923 14.322C31.8347 13.1852 33.9423 12.5498 36.106 12.479C36.2407 12.4748 36.3781 12.4717 36.5137 12.4717Z" fill="url(#paint0_linear_102_1173)"/>
<path opacity="0.2" d="M6.56909 12.4717L17.4249 32.445H24.8101L17.4795 18.9598C16.4457 17.0576 14.9326 15.4588 13.0902 14.322C11.2478 13.1852 9.14019 12.5498 6.97644 12.479C6.84212 12.4748 6.7047 12.4717 6.56909 12.4717Z" fill="url(#paint1_linear_102_1173)"/>
<path d="M58.1236 11.464H54.0316L59.998 31H64.6444L70.6372 11.464H66.6772L64.1428 20.968C63.5356 23.1856 63.0868 25.06 62.4796 27.2776H62.3476C61.714 25.06 61.318 23.1856 60.7108 20.968L58.1236 11.464ZM76.7927 11.464H72.8855V31H76.7927V11.464ZM79.91 11.464L85.058 20.9152L79.5668 31H83.7116L85.7972 26.6704C86.2988 25.6408 86.7212 24.6376 87.2228 23.4496H87.3284C87.9356 24.6376 88.358 25.6408 88.8596 26.6704L91.0508 31H95.3804L89.8892 21.1L95.0372 11.464H90.9188L89.0708 15.4768C88.6484 16.4008 88.2788 17.3248 87.7772 18.5656H87.6452C87.038 17.3248 86.642 16.4008 86.1932 15.4768L84.2396 11.464H79.91ZM105.376 31.3696C107.937 31.3696 109.996 30.4192 111.607 28.492L109.547 26.0632C108.491 27.1984 107.198 27.9904 105.508 27.9904C102.419 27.9904 100.413 25.4296 100.413 21.1792C100.413 16.9816 102.631 14.4472 105.587 14.4472C107.066 14.4472 108.201 15.1336 109.178 16.084L111.237 13.6024C109.97 12.256 108.043 11.0944 105.508 11.0944C100.571 11.0944 96.4267 14.8696 96.4267 21.3112C96.4267 27.832 100.413 31.3696 105.376 31.3696ZM121.485 31.3696C126.659 31.3696 130.223 27.4888 130.223 21.1528C130.223 14.8168 126.659 11.0944 121.485 11.0944C116.31 11.0944 112.746 14.7904 112.746 21.1528C112.746 27.4888 116.31 31.3696 121.485 31.3696ZM121.485 27.9904C118.581 27.9904 116.733 25.2976 116.733 21.1528C116.733 16.9024 118.501 14.4472 121.485 14.4472C124.468 14.4472 126.237 16.9024 126.237 21.1528C126.237 25.2976 124.389 27.9904 121.485 27.9904Z" fill="#3F3F46"/>
<defs>
<linearGradient id="paint0_linear_102_1173" x1="33.7958" y1="10.5143" x2="19.8119" y2="32.2745" gradientUnits="userSpaceOnUse">
<stop stop-color="#78C8E1"/>
<stop offset="1" stop-color="#19B9EB"/>
</linearGradient>
<linearGradient id="paint1_linear_102_1173" x1="9.287" y1="10.5143" x2="23.2709" y2="32.2745" gradientUnits="userSpaceOnUse">
<stop stop-color="#78C8E1"/>
<stop offset="1" stop-color="#19B9EB"/>
</linearGradient>
</defs>
</svg>
