<svg width="95" height="462" viewBox="0 0 95 462" fill="none" xmlns="http://www.w3.org/2000/svg">
<circle cx="81.4483" cy="156.448" r="13.4483" fill="url(#paint0_linear_2_2011)"/>
<path d="M84.5723 159.448V160.793H77.7361V159.638L81.0561 156.016C81.4203 155.605 81.7075 155.25 81.9176 154.952C82.1278 154.653 82.2748 154.384 82.3589 154.146C82.4476 153.903 82.492 153.667 82.492 153.439C82.492 153.116 82.4313 152.834 82.3099 152.591C82.1931 152.344 82.0204 152.15 81.7915 152.01C81.5627 151.865 81.2849 151.793 80.958 151.793C80.5798 151.793 80.2623 151.874 80.0054 152.038C79.7486 152.201 79.5548 152.428 79.4241 152.717C79.2933 153.002 79.228 153.329 79.228 153.698H77.5399C77.5399 153.105 77.6753 152.563 77.9462 152.073C78.217 151.578 78.6093 151.186 79.1229 150.896C79.6366 150.602 80.2553 150.455 80.979 150.455C81.6608 150.455 82.2398 150.569 82.7161 150.798C83.1924 151.027 83.5543 151.351 83.8018 151.772C84.0539 152.192 84.18 152.689 84.18 153.264C84.18 153.581 84.1287 153.896 84.0259 154.209C83.9232 154.522 83.7761 154.835 83.5846 155.148C83.3979 155.456 83.1761 155.766 82.9192 156.079C82.6624 156.388 82.3799 156.7 82.0717 157.018L79.8654 159.448H84.5723Z" fill="white"/>
<circle cx="81.4483" cy="303.448" r="13.4483" fill="url(#paint1_linear_2_2011)"/>
<path d="M79.7183 301.931H80.7269C81.1191 301.931 81.4437 301.863 81.7005 301.727C81.962 301.592 82.1558 301.405 82.2818 301.167C82.4079 300.929 82.471 300.656 82.471 300.348C82.471 300.025 82.4126 299.75 82.2959 299.521C82.1838 299.288 82.011 299.108 81.7775 298.982C81.5487 298.856 81.2569 298.793 80.902 298.793C80.6031 298.793 80.3323 298.853 80.0895 298.975C79.8514 299.092 79.6622 299.26 79.5221 299.479C79.3821 299.694 79.312 299.951 79.312 300.25H77.617C77.617 299.708 77.7594 299.227 78.0442 298.807C78.3291 298.386 78.7167 298.057 79.207 297.819C79.7019 297.576 80.2576 297.455 80.874 297.455C81.5324 297.455 82.1067 297.565 82.597 297.784C83.092 297.999 83.4773 298.321 83.7528 298.751C84.0283 299.18 84.166 299.713 84.166 300.348C84.166 300.637 84.0983 300.931 83.9629 301.23C83.8275 301.529 83.6267 301.802 83.3605 302.05C83.0943 302.292 82.7628 302.491 82.3659 302.645C81.969 302.794 81.509 302.869 80.9861 302.869H79.7183V301.931ZM79.7183 303.247V302.323H80.9861C81.5838 302.323 82.0927 302.393 82.513 302.533C82.9379 302.673 83.2835 302.867 83.5496 303.114C83.8158 303.357 84.0096 303.635 84.131 303.948C84.2571 304.261 84.3201 304.592 84.3201 304.942C84.3201 305.419 84.2337 305.844 84.0609 306.217C83.8928 306.586 83.6524 306.899 83.3395 307.156C83.0266 307.413 82.6601 307.606 82.2398 307.737C81.8242 307.868 81.3713 307.933 80.881 307.933C80.442 307.933 80.0218 307.873 79.6202 307.751C79.2186 307.63 78.8591 307.45 78.5415 307.212C78.224 306.969 77.9719 306.668 77.7851 306.308C77.603 305.944 77.5119 305.524 77.5119 305.048H79.2C79.2 305.351 79.27 305.62 79.4101 305.853C79.5548 306.082 79.7556 306.262 80.0125 306.392C80.2739 306.523 80.5728 306.588 80.909 306.588C81.2639 306.588 81.5697 306.525 81.8266 306.399C82.0834 306.273 82.2795 306.086 82.4149 305.839C82.555 305.592 82.6251 305.293 82.6251 304.942C82.6251 304.546 82.548 304.223 82.3939 303.976C82.2398 303.728 82.0204 303.546 81.7355 303.43C81.4507 303.308 81.1145 303.247 80.7269 303.247H79.7183Z" fill="white"/>
<circle cx="81.4483" cy="448.448" r="13.4483" fill="url(#paint2_linear_2_2011)"/>
<path d="M84.7614 449.158V450.503H77.4068L77.3508 449.487L81.7495 442.595H83.1014L81.6375 445.102L79.1089 449.158H84.7614ZM83.4866 442.595V452.793H81.7986V442.595H83.4866Z" fill="white"/>
<circle cx="81.4483" cy="13.4483" r="13.4483" fill="url(#paint3_linear_2_2011)"/>
<path d="M82.3449 7.55967V17.793H80.6568V9.5629L78.1563 10.4104V9.01657L82.1418 7.55967H82.3449Z" fill="white"/>
<path d="M69 12.8457H49C22.4903 12.8457 1 34.336 1 60.8457V156.846M69 447.846H49.3581C22.709 447.846 1.16134 426.137 1.3594 399.489L2.08139 302.346M1 156.846H69M1 156.846L2.08139 302.346M2.08139 302.346H68.5" stroke="url(#paint4_linear_2_2011)" stroke-width="2"/>
<defs>
<linearGradient id="paint0_linear_2_2011" x1="75.7586" y1="121.276" x2="88.1724" y2="183.345" gradientUnits="userSpaceOnUse">
<stop stop-color="#19CCEF"/>
<stop offset="0.5" stop-color="#7EBBED"/>
<stop offset="1" stop-color="#E3AAEB"/>
</linearGradient>
<linearGradient id="paint1_linear_2_2011" x1="75.7586" y1="268.276" x2="88.1724" y2="330.345" gradientUnits="userSpaceOnUse">
<stop stop-color="#19CCEF"/>
<stop offset="0.5" stop-color="#7EBBED"/>
<stop offset="1" stop-color="#E3AAEB"/>
</linearGradient>
<linearGradient id="paint2_linear_2_2011" x1="75.7586" y1="413.276" x2="88.1724" y2="475.345" gradientUnits="userSpaceOnUse">
<stop stop-color="#19CCEF"/>
<stop offset="0.5" stop-color="#7EBBED"/>
<stop offset="1" stop-color="#E3AAEB"/>
</linearGradient>
<linearGradient id="paint3_linear_2_2011" x1="75.7586" y1="-21.7241" x2="88.1724" y2="40.3448" gradientUnits="userSpaceOnUse">
<stop stop-color="#19CCEF"/>
<stop offset="0.5" stop-color="#7EBBED"/>
<stop offset="1" stop-color="#E3AAEB"/>
</linearGradient>
<linearGradient id="paint4_linear_2_2011" x1="1" y1="-316.577" x2="326.27" y2="395.947" gradientUnits="userSpaceOnUse">
<stop stop-color="#19CCEF"/>
<stop offset="0.5" stop-color="#7EBBED"/>
<stop offset="1" stop-color="#E3AAEB"/>
</linearGradient>
</defs>
</svg>
