<svg width="12" height="7" viewBox="0 0 12 7" fill="none" xmlns="http://www.w3.org/2000/svg">
<path d="M6.00003 6.3334C5.80532 6.33378 5.61662 6.26597 5.46669 6.14173L0.466693 1.97507C0.296512 1.83362 0.189492 1.63036 0.169176 1.41C0.148859 1.18965 0.216911 0.970247 0.35836 0.800067C0.499808 0.629886 0.703068 0.522866 0.923423 0.50255C1.14378 0.482233 1.36318 0.550284 1.53336 0.691733L6.00003 4.42507L10.4667 0.825067C10.5519 0.755846 10.65 0.704152 10.7553 0.672959C10.8606 0.641766 10.971 0.631688 11.0802 0.643304C11.1894 0.65492 11.2952 0.688001 11.3916 0.740646C11.4879 0.79329 11.5729 0.864461 11.6417 0.950067C11.718 1.03575 11.7758 1.13627 11.8115 1.24533C11.8471 1.3544 11.8599 1.46965 11.8489 1.58387C11.838 1.69809 11.8036 1.80881 11.7478 1.90911C11.6921 2.00941 11.6162 2.09711 11.525 2.16673L6.52503 6.19173C6.37079 6.29633 6.18594 6.34621 6.00003 6.3334Z" fill="#4B5563"/>
</svg>
