<svg width="32" height="32" viewBox="0 0 32 32" fill="none" xmlns="http://www.w3.org/2000/svg">
<g clip-path="url(#clip0_7_7031)">
<path d="M13.9375 0.1C7.54998 0.918751 2.24373 5.54375 0.531235 11.7812C0.162485 13.1375 0.0499848 13.9312 0.0187348 15.55C-0.0187652 17.1438 0.0374848 17.9313 0.287485 19.1625C1.11248 23.3375 3.62498 27.05 7.21873 29.4125C9.28749 30.7687 11.5562 31.6 14.0625 31.9125C15.0125 32.0312 17.0125 32.025 18 31.9062C22.675 31.325 26.85 28.7062 29.4562 24.7187C30.7687 22.7125 31.6062 20.4062 31.9062 18C32.0312 16.9875 32.0312 15.0125 31.9062 14C31.3312 9.35 28.725 5.18125 24.7812 2.5875C22.725 1.2375 20.4375 0.4 18 0.09375C17.0437 -0.0249996 14.8687 -0.0187511 13.9375 0.1ZM23.6187 9.875C23.8312 10.0938 23.9062 10.3875 23.85 10.7687C23.7187 11.575 21.1687 23.4437 21.0812 23.6437C20.95 23.9437 20.6687 24.1875 20.45 24.1875C20.1375 24.1812 19.7812 23.9562 17.8562 22.5375C16.7937 21.7562 15.8875 21.1 15.8375 21.0812C15.7812 21.0625 15.3562 21.4312 14.6812 22.0687C13.5562 23.15 13.5312 23.1687 13.25 23.25C13.0812 23.3 13.075 23.2937 13.1 23.0687C13.1125 22.9437 13.1687 22.1812 13.2187 21.375C13.2687 20.5687 13.3312 19.7625 13.35 19.5812L13.3812 19.2562L17.1312 15.875C19.5187 13.7125 20.875 12.45 20.875 12.375C20.875 12.2125 20.675 12.1625 20.425 12.2687C20.3125 12.3188 18.1625 13.6562 15.65 15.2375L11.0812 18.1125L9.49374 17.6188C8.61874 17.3438 7.67498 17.05 7.39998 16.9625C6.56873 16.7125 6.35624 16.3813 6.77498 16.0125C6.89998 15.9062 7.34998 15.6875 7.88123 15.4813C8.37498 15.2875 11.9437 13.9062 15.8125 12.4125C21.3062 10.2938 22.9062 9.69375 23.1375 9.69375C23.3812 9.6875 23.4562 9.71875 23.6187 9.875Z" fill="url(#paint0_linear_7_7031)"/>
</g>
<defs>
<linearGradient id="paint0_linear_7_7031" x1="9.23658" y1="57.8372" x2="24.0011" y2="-15.9878" gradientUnits="userSpaceOnUse">
<stop stop-color="#19CCEF"/>
<stop offset="0.5" stop-color="#7EBBED"/>
<stop offset="1" stop-color="#E3AAEB"/>
</linearGradient>
<clipPath id="clip0_7_7031">
<rect width="32" height="32" fill="white"/>
</clipPath>
</defs>
</svg>
