<svg width="32" height="32" viewBox="0 0 32 32" fill="none" xmlns="http://www.w3.org/2000/svg">
<g clip-path="url(#clip0_7_7033)">
<path d="M13.9688 0.09375C11.0813 0.46875 8.4375 1.575 6.125 3.3625C5.39375 3.93125 4.15 5.15625 3.54375 5.90625C1.81875 8.04375 0.675 10.5688 0.1875 13.3188C0.0124997 14.2938 -0.0562503 16.6375 0.0562497 17.7063C0.56875 22.4938 3.2125 26.8 7.28125 29.4562C9.30625 30.775 11.5875 31.6062 14.0625 31.9125C15.0125 32.0312 17.0125 32.025 18 31.9062C25.25 31.0062 31.0063 25.25 31.9062 18C32.0312 16.9875 32.0312 15.0125 31.9062 14C31.3313 9.35 28.725 5.18125 24.7812 2.5875C22.725 1.2375 20.4375 0.4 18 0.09375C17.05 -0.0187511 14.8688 -0.0187511 13.9688 0.09375ZM20.4625 9C21.05 9.15 21.6 9.43125 22 9.79375L22.3 10.0625L22.775 9.9375C23.3125 9.79375 23.7313 9.6375 24.1938 9.4C24.3687 9.3125 24.5188 9.25 24.5312 9.2625C24.575 9.30625 24.2563 9.88125 24.0063 10.2188C23.8625 10.4125 23.575 10.7 23.3687 10.8563C23.1688 11.0187 23.0125 11.1562 23.025 11.175C23.0938 11.2375 24.4375 10.9062 24.9 10.7125C25.0125 10.6688 25.0063 10.6875 24.875 10.8813C24.6375 11.2062 23.9 11.9688 23.5688 12.2188L23.2688 12.4438L23.2625 13.1812C23.225 15.9813 21.825 18.9937 19.7 20.85C18.0125 22.325 16.0938 23.1187 13.7312 23.325C11.825 23.4875 9.9875 23.125 8.1875 22.2312L7.40625 21.8437L8.375 21.8C9.4875 21.7562 10.175 21.6062 11.1 21.2062C11.6313 20.975 12.6875 20.3375 12.6875 20.2437C12.6875 20.225 12.5375 20.1875 12.35 20.1625C11.1562 20.025 10.075 19.2812 9.53125 18.2312L9.3 17.7812L10.0437 17.7438C10.95 17.7 11.0813 17.6438 10.6188 17.5C9.675 17.2125 8.8375 16.5188 8.41875 15.6812C8.16875 15.1875 8 14.6063 8 14.2625C8 14.0812 8.01875 14.0562 8.1125 14.0938C8.55 14.275 8.93125 14.3813 9.2625 14.4188L9.65 14.4562L9.15 13.9625C8.3 13.1187 7.90625 12.05 8.05 10.9688C8.10625 10.525 8.2875 9.91875 8.425 9.70625C8.4625 9.65 8.70625 9.85625 9.225 10.3625C10.1062 11.225 10.7937 11.7313 11.8125 12.25C12.9812 12.8438 14.3688 13.25 15.5875 13.35L16.05 13.3937L16.0188 12.775C15.9625 11.6375 16.3 10.7563 17.0938 9.9625C18.0188 9.04375 19.2563 8.6875 20.4625 9Z" fill="url(#paint0_linear_7_7033)"/>
</g>
<defs>
<linearGradient id="paint0_linear_7_7033" x1="9.23176" y1="57.8359" x2="23.9919" y2="-15.9869" gradientUnits="userSpaceOnUse">
<stop stop-color="#19CCEF"/>
<stop offset="0.5" stop-color="#7EBBED"/>
<stop offset="1" stop-color="#E3AAEB"/>
</linearGradient>
<clipPath id="clip0_7_7033">
<rect width="32" height="32" fill="white"/>
</clipPath>
</defs>
</svg>
