<svg width="389" height="438" viewBox="0 0 389 438" fill="none" xmlns="http://www.w3.org/2000/svg">
<path d="M362.577 336.9C378.868 307.585 387.207 274.519 386.769 240.985C386.33 207.451 377.128 174.615 360.077 145.736C343.026 116.857 318.718 92.9401 289.566 76.3593C260.415 59.7785 227.433 51.1105 193.896 51.2158L194.5 243.5L362.577 336.9Z" fill="#0F70BD"/>
<path d="M195.651 435.782C229.744 435.578 263.17 426.313 292.503 408.936C321.836 391.559 346.021 366.696 362.581 336.894L194.5 243.5L195.651 435.782Z" fill="#42A3F0"/>
<path d="M42.4871 361.253C60.5834 384.614 83.8206 403.49 110.394 416.416C136.968 429.341 166.164 435.968 195.714 435.781L194.5 243.5L42.4871 361.253Z" fill="#71BAF4"/>
<path d="M4.82741 211.91C0.47198 238.062 1.57139 264.831 8.05659 290.537C14.5418 316.243 26.2726 340.33 42.5123 361.285L194.5 243.5L4.82741 211.91Z" fill="#A1D1F7"/>
<path d="M37.2265 132.872C20.6028 156.504 9.51886 183.58 4.79833 212.085L194.5 243.5L37.2265 132.872Z" fill="#E3AAEB"/>
<path d="M79.94 89.0668C63.4299 101.314 48.9904 116.13 37.1717 132.95L194.5 243.5L79.94 89.0668Z" fill="#C756D7"/>
<path d="M134.356 60.8628C114.831 67.2926 96.4629 76.8119 79.9518 89.0581L194.5 243.5L134.356 60.8628Z" fill="#6C1C78"/>
<path d="M194.793 51.215C174.236 51.1837 153.807 54.4491 134.284 60.8866L194.5 243.5L194.793 51.215Z" fill="#47124E"/>
<g filter="url(#filter0_bi_2_1439)">
<circle cx="194.223" cy="243.223" r="114.223" fill="url(#paint0_linear_2_1439)"/>
<circle cx="194.223" cy="243.223" r="113.649" stroke="url(#paint1_linear_2_1439)" stroke-width="1.14797"/>
</g>
<path d="M314.714 161.664C314.751 160.665 315.078 159.895 315.694 159.354C316.31 158.813 317.145 158.542 318.2 158.542C318.9 158.542 319.497 158.663 319.992 158.906C320.496 159.149 320.874 159.48 321.126 159.9C321.387 160.32 321.518 160.791 321.518 161.314C321.518 161.93 321.364 162.434 321.056 162.826C320.748 163.209 320.389 163.47 319.978 163.61V163.666C320.51 163.843 320.93 164.137 321.238 164.548C321.546 164.959 321.7 165.486 321.7 166.13C321.7 166.709 321.565 167.222 321.294 167.67C321.033 168.109 320.645 168.454 320.132 168.706C319.628 168.958 319.026 169.084 318.326 169.084C317.206 169.084 316.31 168.809 315.638 168.258C314.975 167.707 314.625 166.877 314.588 165.766H316.912C316.921 166.177 317.038 166.503 317.262 166.746C317.486 166.979 317.813 167.096 318.242 167.096C318.606 167.096 318.886 166.993 319.082 166.788C319.287 166.573 319.39 166.293 319.39 165.948C319.39 165.5 319.245 165.178 318.956 164.982C318.676 164.777 318.223 164.674 317.598 164.674H317.15V162.728H317.598C318.074 162.728 318.457 162.649 318.746 162.49C319.045 162.322 319.194 162.028 319.194 161.608C319.194 161.272 319.101 161.011 318.914 160.824C318.727 160.637 318.471 160.544 318.144 160.544C317.789 160.544 317.523 160.651 317.346 160.866C317.178 161.081 317.08 161.347 317.052 161.664H314.714ZM322.931 161.664C322.968 160.665 323.295 159.895 323.911 159.354C324.527 158.813 325.362 158.542 326.417 158.542C327.117 158.542 327.714 158.663 328.209 158.906C328.713 159.149 329.091 159.48 329.343 159.9C329.604 160.32 329.735 160.791 329.735 161.314C329.735 161.93 329.581 162.434 329.273 162.826C328.965 163.209 328.605 163.47 328.195 163.61V163.666C328.727 163.843 329.147 164.137 329.455 164.548C329.763 164.959 329.917 165.486 329.917 166.13C329.917 166.709 329.781 167.222 329.511 167.67C329.249 168.109 328.862 168.454 328.349 168.706C327.845 168.958 327.243 169.084 326.543 169.084C325.423 169.084 324.527 168.809 323.855 168.258C323.192 167.707 322.842 166.877 322.805 165.766H325.129C325.138 166.177 325.255 166.503 325.479 166.746C325.703 166.979 326.029 167.096 326.459 167.096C326.823 167.096 327.103 166.993 327.299 166.788C327.504 166.573 327.607 166.293 327.607 165.948C327.607 165.5 327.462 165.178 327.173 164.982C326.893 164.777 326.44 164.674 325.815 164.674H325.367V162.728H325.815C326.291 162.728 326.673 162.649 326.963 162.49C327.261 162.322 327.411 162.028 327.411 161.608C327.411 161.272 327.317 161.011 327.131 160.824C326.944 160.637 326.687 160.544 326.361 160.544C326.006 160.544 325.74 160.651 325.563 160.866C325.395 161.081 325.297 161.347 325.269 161.664H322.931ZM330.867 161.356C330.867 160.6 331.082 160.017 331.511 159.606C331.95 159.195 332.514 158.99 333.205 158.99C333.896 158.99 334.456 159.195 334.885 159.606C335.314 160.017 335.529 160.6 335.529 161.356C335.529 162.112 335.314 162.695 334.885 163.106C334.456 163.517 333.896 163.722 333.205 163.722C332.514 163.722 331.95 163.517 331.511 163.106C331.082 162.695 330.867 162.112 330.867 161.356ZM340.373 159.144L334.983 169H332.673L338.063 159.144H340.373ZM333.191 160.39C332.743 160.39 332.519 160.712 332.519 161.356C332.519 161.991 332.743 162.308 333.191 162.308C333.406 162.308 333.574 162.229 333.695 162.07C333.816 161.911 333.877 161.673 333.877 161.356C333.877 160.712 333.648 160.39 333.191 160.39ZM337.531 166.788C337.531 166.032 337.746 165.449 338.175 165.038C338.604 164.627 339.164 164.422 339.855 164.422C340.546 164.422 341.106 164.627 341.535 165.038C341.964 165.449 342.179 166.032 342.179 166.788C342.179 167.544 341.964 168.127 341.535 168.538C341.106 168.949 340.546 169.154 339.855 169.154C339.164 169.154 338.604 168.949 338.175 168.538C337.746 168.127 337.531 167.544 337.531 166.788ZM339.841 165.822C339.626 165.822 339.458 165.901 339.337 166.06C339.225 166.219 339.169 166.461 339.169 166.788C339.169 167.423 339.393 167.74 339.841 167.74C340.056 167.74 340.224 167.661 340.345 167.502C340.466 167.343 340.527 167.105 340.527 166.788C340.527 166.471 340.466 166.233 340.345 166.074C340.224 165.906 340.056 165.822 339.841 165.822Z" fill="white"/>
<path d="M265.378 373.006V370.78H269.256V381H266.764V373.006H265.378ZM277.158 372.572L273.644 381H271.194L274.75 372.838H270.396V370.794H277.158V372.572ZM277.67 373.356C277.67 372.6 277.885 372.017 278.314 371.606C278.753 371.195 279.317 370.99 280.008 370.99C280.699 370.99 281.259 371.195 281.688 371.606C282.117 372.017 282.332 372.6 282.332 373.356C282.332 374.112 282.117 374.695 281.688 375.106C281.259 375.517 280.699 375.722 280.008 375.722C279.317 375.722 278.753 375.517 278.314 375.106C277.885 374.695 277.67 374.112 277.67 373.356ZM287.176 371.144L281.786 381H279.476L284.866 371.144H287.176ZM279.994 372.39C279.546 372.39 279.322 372.712 279.322 373.356C279.322 373.991 279.546 374.308 279.994 374.308C280.209 374.308 280.377 374.229 280.498 374.07C280.619 373.911 280.68 373.673 280.68 373.356C280.68 372.712 280.451 372.39 279.994 372.39ZM284.334 378.788C284.334 378.032 284.549 377.449 284.978 377.038C285.407 376.627 285.967 376.422 286.658 376.422C287.349 376.422 287.909 376.627 288.338 377.038C288.767 377.449 288.982 378.032 288.982 378.788C288.982 379.544 288.767 380.127 288.338 380.538C287.909 380.949 287.349 381.154 286.658 381.154C285.967 381.154 285.407 380.949 284.978 380.538C284.549 380.127 284.334 379.544 284.334 378.788ZM286.644 377.822C286.429 377.822 286.261 377.901 286.14 378.06C286.028 378.219 285.972 378.461 285.972 378.788C285.972 379.423 286.196 379.74 286.644 379.74C286.859 379.74 287.027 379.661 287.148 379.502C287.269 379.343 287.33 379.105 287.33 378.788C287.33 378.471 287.269 378.233 287.148 378.074C287.027 377.906 286.859 377.822 286.644 377.822Z" fill="white"/>
<path d="M118.378 381.006V378.78H122.256V389H119.764V381.006H118.378ZM130.83 380.866H126.462V382.798C126.648 382.593 126.91 382.425 127.246 382.294C127.582 382.163 127.946 382.098 128.338 382.098C129.038 382.098 129.616 382.257 130.074 382.574C130.54 382.891 130.881 383.302 131.096 383.806C131.31 384.31 131.418 384.856 131.418 385.444C131.418 386.536 131.11 387.404 130.494 388.048C129.878 388.683 129.01 389 127.89 389C127.143 389 126.494 388.874 125.944 388.622C125.393 388.361 124.968 388.001 124.67 387.544C124.371 387.087 124.208 386.559 124.18 385.962H126.518C126.574 386.251 126.709 386.494 126.924 386.69C127.138 386.877 127.432 386.97 127.806 386.97C128.244 386.97 128.571 386.83 128.786 386.55C129 386.27 129.108 385.897 129.108 385.43C129.108 384.973 128.996 384.623 128.772 384.38C128.548 384.137 128.221 384.016 127.792 384.016C127.474 384.016 127.213 384.095 127.008 384.254C126.802 384.403 126.667 384.604 126.602 384.856H124.292V378.766H130.83V380.866ZM132.283 381.356C132.283 380.6 132.498 380.017 132.927 379.606C133.366 379.195 133.93 378.99 134.621 378.99C135.312 378.99 135.872 379.195 136.301 379.606C136.73 380.017 136.945 380.6 136.945 381.356C136.945 382.112 136.73 382.695 136.301 383.106C135.872 383.517 135.312 383.722 134.621 383.722C133.93 383.722 133.366 383.517 132.927 383.106C132.498 382.695 132.283 382.112 132.283 381.356ZM141.789 379.144L136.399 389H134.089L139.479 379.144H141.789ZM134.607 380.39C134.159 380.39 133.935 380.712 133.935 381.356C133.935 381.991 134.159 382.308 134.607 382.308C134.822 382.308 134.99 382.229 135.111 382.07C135.232 381.911 135.293 381.673 135.293 381.356C135.293 380.712 135.064 380.39 134.607 380.39ZM138.947 386.788C138.947 386.032 139.162 385.449 139.591 385.038C140.02 384.627 140.58 384.422 141.271 384.422C141.962 384.422 142.522 384.627 142.951 385.038C143.38 385.449 143.595 386.032 143.595 386.788C143.595 387.544 143.38 388.127 142.951 388.538C142.522 388.949 141.962 389.154 141.271 389.154C140.58 389.154 140.02 388.949 139.591 388.538C139.162 388.127 138.947 387.544 138.947 386.788ZM141.257 385.822C141.042 385.822 140.874 385.901 140.753 386.06C140.641 386.219 140.585 386.461 140.585 386.788C140.585 387.423 140.809 387.74 141.257 387.74C141.472 387.74 141.64 387.661 141.761 387.502C141.882 387.343 141.943 387.105 141.943 386.788C141.943 386.471 141.882 386.233 141.761 386.074C141.64 385.906 141.472 385.822 141.257 385.822Z" fill="white"/>
<path d="M26.378 274.006V271.78H30.256V282H27.764V274.006H26.378ZM31.7177 274.664C31.755 273.665 32.0817 272.895 32.6977 272.354C33.3137 271.813 34.149 271.542 35.2037 271.542C35.9037 271.542 36.501 271.663 36.9957 271.906C37.4997 272.149 37.8777 272.48 38.1297 272.9C38.391 273.32 38.5217 273.791 38.5217 274.314C38.5217 274.93 38.3677 275.434 38.0597 275.826C37.7517 276.209 37.3923 276.47 36.9817 276.61V276.666C37.5137 276.843 37.9337 277.137 38.2417 277.548C38.5497 277.959 38.7037 278.486 38.7037 279.13C38.7037 279.709 38.5683 280.222 38.2977 280.67C38.0363 281.109 37.649 281.454 37.1357 281.706C36.6317 281.958 36.0297 282.084 35.3297 282.084C34.2097 282.084 33.3137 281.809 32.6417 281.258C31.979 280.707 31.629 279.877 31.5917 278.766H33.9157C33.925 279.177 34.0417 279.503 34.2657 279.746C34.4897 279.979 34.8163 280.096 35.2457 280.096C35.6097 280.096 35.8897 279.993 36.0857 279.788C36.291 279.573 36.3937 279.293 36.3937 278.948C36.3937 278.5 36.249 278.178 35.9597 277.982C35.6797 277.777 35.227 277.674 34.6017 277.674H34.1537V275.728H34.6017C35.0777 275.728 35.4603 275.649 35.7497 275.49C36.0483 275.322 36.1977 275.028 36.1977 274.608C36.1977 274.272 36.1043 274.011 35.9177 273.824C35.731 273.637 35.4743 273.544 35.1477 273.544C34.793 273.544 34.527 273.651 34.3497 273.866C34.1817 274.081 34.0837 274.347 34.0557 274.664H31.7177ZM39.6542 274.356C39.6542 273.6 39.8689 273.017 40.2982 272.606C40.7369 272.195 41.3016 271.99 41.9922 271.99C42.6829 271.99 43.2429 272.195 43.6722 272.606C44.1016 273.017 44.3162 273.6 44.3162 274.356C44.3162 275.112 44.1016 275.695 43.6722 276.106C43.2429 276.517 42.6829 276.722 41.9922 276.722C41.3016 276.722 40.7369 276.517 40.2982 276.106C39.8689 275.695 39.6542 275.112 39.6542 274.356ZM49.1602 272.144L43.7702 282H41.4602L46.8502 272.144H49.1602ZM41.9782 273.39C41.5302 273.39 41.3062 273.712 41.3062 274.356C41.3062 274.991 41.5302 275.308 41.9782 275.308C42.1929 275.308 42.3609 275.229 42.4822 275.07C42.6036 274.911 42.6642 274.673 42.6642 274.356C42.6642 273.712 42.4356 273.39 41.9782 273.39ZM46.3182 279.788C46.3182 279.032 46.5329 278.449 46.9622 278.038C47.3916 277.627 47.9516 277.422 48.6422 277.422C49.3329 277.422 49.8929 277.627 50.3222 278.038C50.7516 278.449 50.9662 279.032 50.9662 279.788C50.9662 280.544 50.7516 281.127 50.3222 281.538C49.8929 281.949 49.3329 282.154 48.6422 282.154C47.9516 282.154 47.3916 281.949 46.9622 281.538C46.5329 281.127 46.3182 280.544 46.3182 279.788ZM48.6282 278.822C48.4136 278.822 48.2456 278.901 48.1242 279.06C48.0122 279.219 47.9562 279.461 47.9562 279.788C47.9562 280.423 48.1802 280.74 48.6282 280.74C48.8429 280.74 49.0109 280.661 49.1322 280.502C49.2536 280.343 49.3142 280.105 49.3142 279.788C49.3142 279.471 49.2536 279.233 49.1322 279.074C49.0109 278.906 48.8429 278.822 48.6282 278.822Z" fill="white"/>
<path d="M39.154 182.572L35.64 191H33.19L36.746 182.838H32.392V180.794H39.154V182.572ZM39.6662 183.356C39.6662 182.6 39.8809 182.017 40.3102 181.606C40.7489 181.195 41.3135 180.99 42.0042 180.99C42.6949 180.99 43.2549 181.195 43.6842 181.606C44.1135 182.017 44.3282 182.6 44.3282 183.356C44.3282 184.112 44.1135 184.695 43.6842 185.106C43.2549 185.517 42.6949 185.722 42.0042 185.722C41.3135 185.722 40.7489 185.517 40.3102 185.106C39.8809 184.695 39.6662 184.112 39.6662 183.356ZM49.1722 181.144L43.7822 191H41.4722L46.8622 181.144H49.1722ZM41.9902 182.39C41.5422 182.39 41.3182 182.712 41.3182 183.356C41.3182 183.991 41.5422 184.308 41.9902 184.308C42.2049 184.308 42.3729 184.229 42.4942 184.07C42.6155 183.911 42.6762 183.673 42.6762 183.356C42.6762 182.712 42.4475 182.39 41.9902 182.39ZM46.3302 188.788C46.3302 188.032 46.5449 187.449 46.9742 187.038C47.4035 186.627 47.9635 186.422 48.6542 186.422C49.3449 186.422 49.9049 186.627 50.3342 187.038C50.7635 187.449 50.9782 188.032 50.9782 188.788C50.9782 189.544 50.7635 190.127 50.3342 190.538C49.9049 190.949 49.3449 191.154 48.6542 191.154C47.9635 191.154 47.4035 190.949 46.9742 190.538C46.5449 190.127 46.3302 189.544 46.3302 188.788ZM48.6402 187.822C48.4255 187.822 48.2575 187.901 48.1362 188.06C48.0242 188.219 47.9682 188.461 47.9682 188.788C47.9682 189.423 48.1922 189.74 48.6402 189.74C48.8549 189.74 49.0229 189.661 49.1442 189.502C49.2655 189.343 49.3262 189.105 49.3262 188.788C49.3262 188.471 49.2655 188.233 49.1442 188.074C49.0229 187.906 48.8549 187.822 48.6402 187.822Z" fill="white"/>
<path d="M73.826 125.866H69.458V127.798C69.6447 127.593 69.906 127.425 70.242 127.294C70.578 127.163 70.942 127.098 71.334 127.098C72.034 127.098 72.6127 127.257 73.07 127.574C73.5367 127.891 73.8773 128.302 74.092 128.806C74.3067 129.31 74.414 129.856 74.414 130.444C74.414 131.536 74.106 132.404 73.49 133.048C72.874 133.683 72.006 134 70.886 134C70.1393 134 69.4907 133.874 68.94 133.622C68.3893 133.361 67.9647 133.001 67.666 132.544C67.3673 132.087 67.204 131.559 67.176 130.962H69.514C69.57 131.251 69.7053 131.494 69.92 131.69C70.1347 131.877 70.4287 131.97 70.802 131.97C71.2407 131.97 71.5673 131.83 71.782 131.55C71.9967 131.27 72.104 130.897 72.104 130.43C72.104 129.973 71.992 129.623 71.768 129.38C71.544 129.137 71.2173 129.016 70.788 129.016C70.4707 129.016 70.2093 129.095 70.004 129.254C69.7987 129.403 69.6633 129.604 69.598 129.856H67.288V123.766H73.826V125.866ZM75.2795 126.356C75.2795 125.6 75.4941 125.017 75.9235 124.606C76.3621 124.195 76.9268 123.99 77.6175 123.99C78.3081 123.99 78.8681 124.195 79.2975 124.606C79.7268 125.017 79.9415 125.6 79.9415 126.356C79.9415 127.112 79.7268 127.695 79.2975 128.106C78.8681 128.517 78.3081 128.722 77.6175 128.722C76.9268 128.722 76.3621 128.517 75.9235 128.106C75.4941 127.695 75.2795 127.112 75.2795 126.356ZM84.7855 124.144L79.3955 134H77.0855L82.4755 124.144H84.7855ZM77.6035 125.39C77.1555 125.39 76.9315 125.712 76.9315 126.356C76.9315 126.991 77.1555 127.308 77.6035 127.308C77.8181 127.308 77.9861 127.229 78.1075 127.07C78.2288 126.911 78.2895 126.673 78.2895 126.356C78.2895 125.712 78.0608 125.39 77.6035 125.39ZM81.9435 131.788C81.9435 131.032 82.1581 130.449 82.5875 130.038C83.0168 129.627 83.5768 129.422 84.2675 129.422C84.9581 129.422 85.5181 129.627 85.9475 130.038C86.3768 130.449 86.5915 131.032 86.5915 131.788C86.5915 132.544 86.3768 133.127 85.9475 133.538C85.5181 133.949 84.9581 134.154 84.2675 134.154C83.5768 134.154 83.0168 133.949 82.5875 133.538C82.1581 133.127 81.9435 132.544 81.9435 131.788ZM84.2535 130.822C84.0388 130.822 83.8708 130.901 83.7495 131.06C83.6375 131.219 83.5815 131.461 83.5815 131.788C83.5815 132.423 83.8055 132.74 84.2535 132.74C84.4681 132.74 84.6361 132.661 84.7575 132.502C84.8788 132.343 84.9395 132.105 84.9395 131.788C84.9395 131.471 84.8788 131.233 84.7575 131.074C84.6361 130.906 84.4681 130.822 84.2535 130.822Z" fill="white"/>
<path d="M117.826 102.866H113.458V104.798C113.645 104.593 113.906 104.425 114.242 104.294C114.578 104.163 114.942 104.098 115.334 104.098C116.034 104.098 116.613 104.257 117.07 104.574C117.537 104.891 117.877 105.302 118.092 105.806C118.307 106.31 118.414 106.856 118.414 107.444C118.414 108.536 118.106 109.404 117.49 110.048C116.874 110.683 116.006 111 114.886 111C114.139 111 113.491 110.874 112.94 110.622C112.389 110.361 111.965 110.001 111.666 109.544C111.367 109.087 111.204 108.559 111.176 107.962H113.514C113.57 108.251 113.705 108.494 113.92 108.69C114.135 108.877 114.429 108.97 114.802 108.97C115.241 108.97 115.567 108.83 115.782 108.55C115.997 108.27 116.104 107.897 116.104 107.43C116.104 106.973 115.992 106.623 115.768 106.38C115.544 106.137 115.217 106.016 114.788 106.016C114.471 106.016 114.209 106.095 114.004 106.254C113.799 106.403 113.663 106.604 113.598 106.856H111.288V100.766H117.826V102.866ZM119.279 103.356C119.279 102.6 119.494 102.017 119.923 101.606C120.362 101.195 120.927 100.99 121.617 100.99C122.308 100.99 122.868 101.195 123.297 101.606C123.727 102.017 123.941 102.6 123.941 103.356C123.941 104.112 123.727 104.695 123.297 105.106C122.868 105.517 122.308 105.722 121.617 105.722C120.927 105.722 120.362 105.517 119.923 105.106C119.494 104.695 119.279 104.112 119.279 103.356ZM128.785 101.144L123.395 111H121.085L126.475 101.144H128.785ZM121.603 102.39C121.155 102.39 120.931 102.712 120.931 103.356C120.931 103.991 121.155 104.308 121.603 104.308C121.818 104.308 121.986 104.229 122.107 104.07C122.229 103.911 122.289 103.673 122.289 103.356C122.289 102.712 122.061 102.39 121.603 102.39ZM125.943 108.788C125.943 108.032 126.158 107.449 126.587 107.038C127.017 106.627 127.577 106.422 128.267 106.422C128.958 106.422 129.518 106.627 129.947 107.038C130.377 107.449 130.591 108.032 130.591 108.788C130.591 109.544 130.377 110.127 129.947 110.538C129.518 110.949 128.958 111.154 128.267 111.154C127.577 111.154 127.017 110.949 126.587 110.538C126.158 110.127 125.943 109.544 125.943 108.788ZM128.253 107.822C128.039 107.822 127.871 107.901 127.749 108.06C127.637 108.219 127.581 108.461 127.581 108.788C127.581 109.423 127.805 109.74 128.253 109.74C128.468 109.74 128.636 109.661 128.757 109.502C128.879 109.343 128.939 109.105 128.939 108.788C128.939 108.471 128.879 108.233 128.757 108.074C128.636 107.906 128.468 107.822 128.253 107.822Z" fill="white"/>
<path d="M156.686 95.18V93.248L161.11 86.92H163.784V93.108H164.932V95.18H163.784V97H161.39V95.18H156.686ZM161.558 89.552L159.206 93.108H161.558V89.552ZM167.203 97.112C166.783 97.112 166.437 96.9907 166.167 96.748C165.905 96.496 165.775 96.188 165.775 95.824C165.775 95.4507 165.905 95.138 166.167 94.886C166.437 94.634 166.783 94.508 167.203 94.508C167.613 94.508 167.949 94.634 168.211 94.886C168.481 95.138 168.617 95.4507 168.617 95.824C168.617 96.188 168.481 96.496 168.211 96.748C167.949 96.9907 167.613 97.112 167.203 97.112ZM172.112 94.004C172.252 94.7413 172.681 95.11 173.4 95.11C173.894 95.11 174.244 94.8907 174.45 94.452C174.655 94.0133 174.758 93.2993 174.758 92.31C174.552 92.5993 174.272 92.8233 173.918 92.982C173.563 93.1407 173.166 93.22 172.728 93.22C172.13 93.22 171.598 93.0987 171.132 92.856C170.665 92.604 170.296 92.2353 170.026 91.75C169.764 91.2553 169.634 90.658 169.634 89.958C169.634 89.2673 169.774 88.6653 170.054 88.152C170.343 87.6387 170.749 87.242 171.272 86.962C171.804 86.682 172.429 86.542 173.148 86.542C174.529 86.542 175.495 86.9713 176.046 87.83C176.596 88.6887 176.872 89.9533 176.872 91.624C176.872 92.8373 176.76 93.8407 176.536 94.634C176.321 95.418 175.952 96.0153 175.43 96.426C174.916 96.8367 174.212 97.042 173.316 97.042C172.606 97.042 172 96.902 171.496 96.622C171.001 96.342 170.618 95.9733 170.348 95.516C170.086 95.0587 169.937 94.5547 169.9 94.004H172.112ZM173.274 91.33C173.666 91.33 173.978 91.2133 174.212 90.98C174.445 90.7373 174.562 90.4107 174.562 90C174.562 89.552 174.44 89.2067 174.198 88.964C173.955 88.7213 173.628 88.6 173.218 88.6C172.807 88.6 172.48 88.726 172.238 88.978C172.004 89.2207 171.888 89.5567 171.888 89.986C171.888 90.3873 172.004 90.714 172.238 90.966C172.48 91.2087 172.826 91.33 173.274 91.33ZM177.693 89.356C177.693 88.6 177.908 88.0167 178.337 87.606C178.776 87.1953 179.34 86.99 180.031 86.99C180.722 86.99 181.282 87.1953 181.711 87.606C182.14 88.0167 182.355 88.6 182.355 89.356C182.355 90.112 182.14 90.6953 181.711 91.106C181.282 91.5167 180.722 91.722 180.031 91.722C179.34 91.722 178.776 91.5167 178.337 91.106C177.908 90.6953 177.693 90.112 177.693 89.356ZM187.199 87.144L181.809 97H179.499L184.889 87.144H187.199ZM180.017 88.39C179.569 88.39 179.345 88.712 179.345 89.356C179.345 89.9907 179.569 90.308 180.017 90.308C180.232 90.308 180.4 90.2287 180.521 90.07C180.642 89.9113 180.703 89.6733 180.703 89.356C180.703 88.712 180.474 88.39 180.017 88.39ZM184.357 94.788C184.357 94.032 184.572 93.4487 185.001 93.038C185.43 92.6273 185.99 92.422 186.681 92.422C187.372 92.422 187.932 92.6273 188.361 93.038C188.79 93.4487 189.005 94.032 189.005 94.788C189.005 95.544 188.79 96.1273 188.361 96.538C187.932 96.9487 187.372 97.154 186.681 97.154C185.99 97.154 185.43 96.9487 185.001 96.538C184.572 96.1273 184.357 95.544 184.357 94.788ZM186.667 93.822C186.452 93.822 186.284 93.9013 186.163 94.06C186.051 94.2187 185.995 94.4613 185.995 94.788C185.995 95.4227 186.219 95.74 186.667 95.74C186.882 95.74 187.05 95.6607 187.171 95.502C187.292 95.3433 187.353 95.1053 187.353 94.788C187.353 94.4707 187.292 94.2327 187.171 94.074C187.05 93.906 186.882 93.822 186.667 93.822Z" fill="white"/>
<g filter="url(#filter1_d_2_1439)">
<rect x="151" y="201" width="86" height="86" rx="43" fill="#FAF8F8"/>
<path d="M223.387 224.603L202.169 263.641H187.734L202.061 237.284C204.082 233.566 207.039 230.441 210.64 228.219C214.241 225.997 218.361 224.755 222.59 224.617C222.853 224.609 223.122 224.603 223.387 224.603Z" fill="url(#paint2_linear_2_1439)"/>
<path opacity="0.2" d="M164.858 224.603L186.077 263.641H200.511L186.183 237.284C184.163 233.566 181.205 230.441 177.604 228.219C174.003 225.997 169.884 224.755 165.655 224.617C165.392 224.609 165.123 224.603 164.858 224.603Z" fill="url(#paint3_linear_2_1439)"/>
</g>
<defs>
<filter id="filter0_bi_2_1439" x="74.2601" y="123.26" width="239.926" height="239.926" filterUnits="userSpaceOnUse" color-interpolation-filters="sRGB">
<feFlood flood-opacity="0" result="BackgroundImageFix"/>
<feGaussianBlur in="BackgroundImageFix" stdDeviation="2.86993"/>
<feComposite in2="SourceAlpha" operator="in" result="effect1_backgroundBlur_2_1439"/>
<feBlend mode="normal" in="SourceGraphic" in2="effect1_backgroundBlur_2_1439" result="shape"/>
<feColorMatrix in="SourceAlpha" type="matrix" values="0 0 0 0 0 0 0 0 0 0 0 0 0 0 0 0 0 0 127 0" result="hardAlpha"/>
<feOffset dx="3.44391" dy="4.59189"/>
<feGaussianBlur stdDeviation="2.29594"/>
<feComposite in2="hardAlpha" operator="arithmetic" k2="-1" k3="1"/>
<feColorMatrix type="matrix" values="0 0 0 0 1 0 0 0 0 1 0 0 0 0 1 0 0 0 0.25 0"/>
<feBlend mode="normal" in2="shape" result="effect2_innerShadow_2_1439"/>
</filter>
<filter id="filter1_d_2_1439" x="126.114" y="180.017" width="135.773" height="135.773" filterUnits="userSpaceOnUse" color-interpolation-filters="sRGB">
<feFlood flood-opacity="0" result="BackgroundImageFix"/>
<feColorMatrix in="SourceAlpha" type="matrix" values="0 0 0 0 0 0 0 0 0 0 0 0 0 0 0 0 0 0 127 0" result="hardAlpha"/>
<feOffset dy="3.90354"/>
<feGaussianBlur stdDeviation="12.4432"/>
<feComposite in2="hardAlpha" operator="out"/>
<feColorMatrix type="matrix" values="0 0 0 0 0.36875 0 0 0 0 0.373773 0 0 0 0 0.375 0 0 0 0.14 0"/>
<feBlend mode="normal" in2="BackgroundImageFix" result="effect1_dropShadow_2_1439"/>
<feBlend mode="normal" in="SourceGraphic" in2="effect1_dropShadow_2_1439" result="shape"/>
</filter>
<linearGradient id="paint0_linear_2_1439" x1="80" y1="159.46" x2="354.136" y2="276.221" gradientUnits="userSpaceOnUse">
<stop stop-color="#FAFAFA"/>
<stop offset="1" stop-color="#D9D9D9" stop-opacity="0"/>
</linearGradient>
<linearGradient id="paint1_linear_2_1439" x1="88.6098" y1="111.78" x2="304.428" y2="395.329" gradientUnits="userSpaceOnUse">
<stop stop-color="white"/>
<stop offset="1" stop-color="white" stop-opacity="0"/>
</linearGradient>
<linearGradient id="paint2_linear_2_1439" x1="218.074" y1="220.777" x2="190.742" y2="263.308" gradientUnits="userSpaceOnUse">
<stop stop-color="#78C8E1"/>
<stop offset="1" stop-color="#19B9EB"/>
</linearGradient>
<linearGradient id="paint3_linear_2_1439" x1="170.171" y1="220.777" x2="197.503" y2="263.308" gradientUnits="userSpaceOnUse">
<stop stop-color="#78C8E1"/>
<stop offset="1" stop-color="#19B9EB"/>
</linearGradient>
</defs>
</svg>
