<svg width="1282" height="617" viewBox="0 0 1282 617" fill="none" xmlns="http://www.w3.org/2000/svg">
<g filter="url(#filter0_d_2_1793)">
<rect x="21" y="18" width="1240" height="575" rx="20" fill="url(#paint0_linear_2_1793)"/>
</g>
<mask id="mask0_2_1793" style="mask-type:alpha" maskUnits="userSpaceOnUse" x="21" y="18" width="1240" height="575">
<rect x="21" y="18" width="1240" height="575" rx="20" fill="url(#paint1_linear_2_1793)"/>
</mask>
<g mask="url(#mask0_2_1793)">
<g opacity="0.5">
<path opacity="0.01" d="M102.351 41.6544L98.5212 63.2376C94.6916 84.8208 87.0325 127.987 141.142 162.045C195.252 196.102 311.13 221.05 317.197 262.192C323.264 303.335 219.521 360.671 239.314 399.789C259.108 438.907 402.439 459.806 474.105 470.256L545.77 480.706" stroke="white" stroke-width="1.4"/>
<path opacity="0.02" d="M101.161 43.1435L97.3616 64.6128C93.5621 86.0821 85.9632 129.021 139.72 162.911C193.477 196.802 308.589 221.644 314.625 262.572C320.661 303.5 217.619 360.513 237.29 399.43C256.96 438.348 399.342 459.168 470.533 469.579L541.724 479.989" stroke="white" stroke-width="1.4"/>
<path opacity="0.03" d="M99.9705 44.6327L96.2011 65.9881C92.4317 87.3435 84.8929 130.054 138.297 163.778C191.701 197.501 306.048 222.237 312.052 262.951C318.056 303.665 215.717 360.356 235.264 399.072C254.811 437.789 396.244 458.53 466.96 468.901L537.677 479.272" stroke="white" stroke-width="1.4"/>
<path opacity="0.04" d="M98.7809 46.1219L95.0415 67.3633C91.3022 88.6048 83.8236 131.088 136.875 164.644C189.926 198.201 303.508 222.831 309.48 263.33C315.453 303.83 213.816 360.198 233.24 398.714C252.663 437.23 393.147 457.893 463.389 468.224L533.63 478.555" stroke="white" stroke-width="1.4"/>
<path opacity="0.05" d="M97.5902 47.611L93.881 68.7386C90.1717 89.8662 82.7532 132.121 135.452 165.511C188.15 198.901 300.966 223.425 306.907 263.71C312.848 303.995 211.914 360.041 231.214 398.356C250.514 436.671 390.049 457.255 459.816 467.547L529.583 477.839" stroke="white" stroke-width="1.4"/>
<path opacity="0.06" d="M96.4006 49.1002L92.7214 70.1138C89.0422 91.1275 81.6839 133.155 134.03 166.378C186.376 199.6 298.426 224.018 304.335 264.089C310.244 304.16 210.013 359.883 229.19 397.998C248.366 436.112 386.952 456.617 456.244 466.869L525.537 477.122" stroke="white" stroke-width="1.4"/>
<path opacity="0.07" d="M95.21 50.5893L91.5609 71.4891C87.9118 92.3889 80.6136 134.188 132.607 167.244C184.6 200.3 295.884 224.612 301.762 264.469C307.64 304.325 208.111 359.726 227.164 397.639C246.218 435.553 383.854 455.979 452.672 466.192L521.49 476.405" stroke="white" stroke-width="1.4"/>
<path opacity="0.08" d="M94.0203 52.0785L90.4013 72.8643C86.7823 93.6502 79.5442 135.222 131.185 168.111C182.825 201 293.344 225.206 299.19 264.848C305.036 304.49 206.209 359.568 225.139 397.281C244.07 434.994 380.757 455.341 449.1 465.514L517.444 475.688" stroke="white" stroke-width="1.4"/>
<path opacity="0.09" d="M92.8297 53.5676L89.2408 74.2396C85.6518 94.9115 78.4739 136.255 129.762 168.977C181.049 201.699 290.803 225.799 296.617 265.227C302.431 304.655 204.307 359.411 223.114 396.923C241.921 434.435 377.659 454.703 445.528 464.837L513.397 474.971" stroke="white" stroke-width="1.4"/>
<path opacity="0.1" d="M91.6401 55.0568L88.0812 75.6148C84.5223 96.1729 77.4046 137.289 128.34 169.844C179.274 202.399 288.262 226.393 294.045 265.607C299.828 304.82 202.406 359.254 221.089 396.565C239.773 433.876 374.562 454.065 441.956 464.16L509.35 474.254" stroke="white" stroke-width="1.4"/>
<path opacity="0.11" d="M90.4495 56.5459L86.9207 76.9901C83.3919 97.4342 76.3343 138.323 126.917 170.711C177.499 203.099 285.721 226.987 291.472 265.986C297.223 304.985 200.504 359.096 219.064 396.207C237.624 433.317 371.464 453.427 438.383 463.482L505.303 473.537" stroke="white" stroke-width="1.4"/>
<path opacity="0.12" d="M89.2598 58.0351L85.7611 78.3653C82.2624 98.6956 75.265 139.356 125.494 171.577C175.724 203.798 283.18 227.58 288.9 266.365C294.62 305.15 198.603 358.939 217.039 395.848C235.476 432.758 368.366 452.789 434.812 462.805L501.257 472.82" stroke="white" stroke-width="1.4"/>
<path opacity="0.13" d="M88.0692 59.5243L84.6006 79.7406C81.1319 99.9569 74.1947 140.39 124.071 172.444C173.948 204.498 280.639 228.174 286.327 266.745C292.015 305.316 196.7 358.781 215.014 395.49C233.327 432.199 365.268 452.151 431.239 462.127L497.21 472.103" stroke="white" stroke-width="1.4"/>
<path opacity="0.14" d="M86.8796 61.0134L83.441 81.1158C80.0024 101.218 73.1253 141.423 122.649 173.31C172.173 205.198 278.098 228.768 283.755 267.124C289.411 305.481 194.799 358.624 212.989 395.132C231.179 431.64 362.171 451.513 427.668 461.45L493.164 471.386" stroke="white" stroke-width="1.4"/>
<path opacity="0.15" d="M85.689 62.5026L82.2805 82.4911C78.872 102.48 72.055 142.457 121.226 174.177C170.398 205.897 275.557 229.361 281.182 267.503C286.807 305.646 192.897 358.466 210.964 394.774C229.03 431.081 359.073 450.875 424.095 460.772L489.116 470.67" stroke="white" stroke-width="1.4"/>
<path opacity="0.16" d="M84.4993 63.9917L81.1209 83.8663C77.7425 103.741 70.9857 143.49 119.804 175.044C168.623 206.597 273.016 229.955 278.61 267.883C284.203 305.811 190.996 358.309 208.939 394.416C226.882 430.522 355.976 450.237 420.523 460.095L485.07 469.953" stroke="white" stroke-width="1.4"/>
<path opacity="0.17" d="M83.3087 65.4809L79.9604 85.2416C76.6121 105.002 69.9154 144.524 118.381 175.91C166.847 207.297 270.475 230.549 276.037 268.262C281.598 305.976 189.094 358.151 206.914 394.057C224.733 429.963 352.878 449.6 416.951 459.418L481.023 469.236" stroke="white" stroke-width="1.4"/>
<path opacity="0.18" d="M82.1191 66.97L78.8008 86.6168C75.4826 106.264 68.8461 145.557 116.959 176.777C165.072 207.996 267.935 231.142 273.465 268.642C278.995 306.141 187.192 357.994 204.889 393.699C222.586 429.404 349.781 448.962 413.379 458.74L476.977 468.519" stroke="white" stroke-width="1.4"/>
<path opacity="0.19" d="M80.9285 68.4592L77.6403 87.9921C74.3521 107.525 67.7758 146.591 115.536 177.643C163.296 208.696 265.393 231.736 270.892 269.021C276.39 306.306 185.29 357.837 202.863 393.341C220.437 428.845 346.683 448.324 409.806 458.063L472.93 467.802" stroke="white" stroke-width="1.4"/>
<path opacity="0.2" d="M79.7388 69.9483L76.4807 89.3673C73.2226 108.786 66.7064 147.624 114.114 178.51C161.521 209.396 262.853 232.329 268.32 269.4C273.786 306.471 183.389 357.679 200.839 392.983C218.289 428.286 343.586 447.686 406.235 457.385L468.884 467.085" stroke="white" stroke-width="1.4"/>
<path opacity="0.21" d="M78.5482 71.4377L75.3202 90.7428C72.0921 110.048 65.6361 148.658 112.691 179.377C159.746 210.096 260.311 232.923 265.747 269.78C271.182 306.636 181.487 357.522 198.813 392.625C216.14 427.728 340.488 447.048 402.662 456.708L464.836 466.368" stroke="white" stroke-width="1.4"/>
<path opacity="0.22" d="M77.3586 72.9267L74.1606 92.1178C70.9627 111.309 64.5668 149.691 111.269 180.243C157.971 210.795 257.771 233.517 263.175 270.159C268.578 306.801 179.586 357.364 196.789 392.266C213.992 427.169 337.391 446.41 399.091 456.031L460.79 465.651" stroke="white" stroke-width="1.4"/>
<path opacity="0.23" d="M76.1679 74.4161L73.0001 93.4933C69.8322 112.571 63.4965 150.725 109.846 181.11C156.195 211.495 255.23 234.111 260.602 270.539C265.974 306.967 177.683 357.207 194.763 391.908C211.843 426.61 334.293 445.772 395.518 455.353L456.743 464.935" stroke="white" stroke-width="1.4"/>
<path opacity="0.24" d="M74.9783 75.905L71.8405 94.8683C68.7027 113.832 62.4271 151.758 108.424 181.976C154.42 212.195 252.689 234.704 258.03 270.918C263.37 307.131 175.782 357.049 192.739 391.55C209.695 426.051 331.196 445.134 391.946 454.676L452.697 464.218" stroke="white" stroke-width="1.4"/>
<path opacity="0.25" d="M73.7877 77.3944L70.68 96.2438C67.5723 115.093 61.3568 152.792 107.001 182.843C152.645 212.895 250.148 235.298 255.457 271.297C260.765 307.297 173.88 356.892 190.713 391.192C207.546 425.492 328.098 444.496 388.374 453.999L448.65 463.501" stroke="white" stroke-width="1.4"/>
<path opacity="0.26" d="M72.5981 78.8833L69.5204 97.6188C66.4428 116.354 60.2875 153.825 105.579 183.71C150.87 213.594 247.607 235.891 252.884 271.676C258.162 307.462 171.979 356.734 188.689 390.834C205.398 424.933 325.001 443.858 384.802 453.321L444.603 462.784" stroke="white" stroke-width="1.4"/>
<path opacity="0.27" d="M71.4074 80.3727L68.3599 98.9943C65.3123 117.616 59.2172 154.859 104.156 184.577C149.094 214.294 245.066 236.485 250.311 272.056C255.557 307.627 170.077 356.577 186.663 390.476C203.249 424.374 321.903 443.221 381.23 452.644L440.556 462.067" stroke="white" stroke-width="1.4"/>
<path opacity="0.28" d="M70.2178 81.8616L67.2003 100.369C64.1829 118.877 58.1479 155.892 102.734 185.443C147.319 214.993 242.525 237.079 247.739 272.435C252.953 307.792 168.175 356.42 184.638 390.117C201.101 423.815 318.806 442.582 377.658 451.966L436.51 461.35" stroke="white" stroke-width="1.4"/>
<path opacity="0.29" d="M69.0272 83.351L66.0398 101.745C63.0524 120.139 57.0775 156.926 101.31 186.31C145.543 215.693 239.984 237.673 245.166 272.815C250.349 307.957 166.273 356.262 182.613 389.759C198.953 423.256 315.708 441.945 374.085 451.289L432.463 460.633" stroke="white" stroke-width="1.4"/>
<path opacity="0.3" d="M67.8376 84.8399L64.8802 103.12C61.9229 121.4 56.0082 157.96 99.8884 187.176C143.769 216.393 237.444 238.266 242.594 273.194C247.745 308.122 164.372 356.105 180.588 389.401C196.805 422.697 312.611 441.307 370.514 450.611L428.417 459.916" stroke="white" stroke-width="1.4"/>
<path opacity="0.31" d="M66.6469 86.3293L63.7197 104.495C60.7924 122.661 54.9379 158.993 98.4653 188.043C141.993 217.093 234.902 238.86 240.021 273.574C245.141 308.287 162.47 355.947 178.563 389.043C194.656 422.138 309.513 440.669 366.941 449.934L424.369 459.2" stroke="white" stroke-width="1.4"/>
<path opacity="0.32" d="M65.4573 87.8182L62.5601 105.87C59.663 123.922 53.8686 160.027 97.0433 188.909C140.218 217.792 232.362 239.453 237.449 273.953C242.537 308.452 160.569 355.79 176.538 388.684C192.508 421.579 306.416 440.031 363.369 449.257L420.323 458.482" stroke="white" stroke-width="1.4"/>
<path opacity="0.33" d="M64.2667 89.3076L61.3996 107.246C58.5325 125.184 52.7983 161.06 95.6202 189.776C138.442 218.492 229.82 240.047 234.876 274.332C239.932 308.617 158.666 355.633 174.513 388.326C190.359 421.02 303.318 439.393 359.797 448.579L416.276 457.766" stroke="white" stroke-width="1.4"/>
<path opacity="0.34" d="M63.0771 90.7965L60.24 108.621C57.403 126.445 51.729 162.094 94.1982 190.643C136.667 219.191 227.28 240.641 232.304 274.711C237.329 308.782 156.765 355.475 172.488 387.968C188.211 420.461 300.22 438.755 356.225 447.902L412.23 457.049" stroke="white" stroke-width="1.4"/>
<path opacity="0.35" d="M61.8864 92.2859L59.0795 109.996C56.2725 127.707 50.6586 163.127 92.7751 191.509C134.892 219.891 224.738 241.234 229.731 275.091C234.724 308.948 154.863 355.318 170.463 387.61C186.062 419.902 297.122 438.117 352.653 447.225L408.183 456.332" stroke="white" stroke-width="1.4"/>
<path opacity="0.36" d="M60.6968 93.7748L57.9199 111.371C55.143 128.968 49.5893 164.161 91.353 192.376C133.117 220.591 222.198 241.828 227.159 275.47C232.12 309.112 152.962 355.16 168.438 387.252C183.914 419.343 294.025 437.479 349.081 446.547L404.137 455.615" stroke="white" stroke-width="1.4"/>
<path opacity="0.37" d="M59.5062 95.264L56.7594 112.747C54.0126 130.229 48.519 165.194 89.93 193.242C131.341 221.29 219.657 242.422 224.586 275.85C229.516 309.278 151.06 355.003 166.412 386.893C181.765 418.784 290.927 436.841 345.508 445.87L400.089 454.898" stroke="white" stroke-width="1.4"/>
<path opacity="0.38" d="M58.3165 96.7531L55.5998 114.122C52.8831 131.49 47.4497 166.228 88.5079 194.109C129.566 221.99 217.116 243.015 222.014 276.229C226.912 309.443 149.158 354.845 164.388 386.535C179.617 418.225 287.83 436.203 341.937 445.192L396.043 454.181" stroke="white" stroke-width="1.4"/>
<path opacity="0.39" d="M57.1259 98.2423L54.4393 115.497C51.7527 132.752 46.3794 167.261 87.0849 194.976C127.79 222.69 214.575 243.609 219.441 276.608C224.308 309.608 147.256 354.688 162.362 386.177C177.469 417.666 284.732 435.565 338.364 444.515L391.996 453.464" stroke="white" stroke-width="1.4"/>
<path opacity="0.4" d="M55.9363 99.7315L53.2797 116.872C50.6232 134.013 45.31 168.295 85.6628 195.842C126.016 223.389 212.034 244.202 216.869 276.988C221.704 309.773 145.355 354.53 160.338 385.819C175.321 417.107 281.635 434.927 334.793 443.837L387.95 452.747" stroke="white" stroke-width="1.4"/>
<path opacity="0.41" d="M54.7457 101.221L52.1192 118.248C49.4927 135.274 44.2397 169.328 84.2398 196.709C124.24 224.089 209.493 244.796 214.296 277.367C219.099 309.938 143.453 354.373 158.312 385.461C173.172 416.549 278.537 434.289 331.22 443.16L383.903 452.03" stroke="white" stroke-width="1.4"/>
<path opacity="0.42" d="M53.556 102.71L50.9596 119.623C48.3632 136.536 43.1704 170.362 82.8177 197.575C122.465 224.789 206.952 245.39 211.724 277.746C216.496 310.103 141.552 354.215 156.288 385.102C171.024 415.99 275.44 433.652 327.648 442.482L379.856 451.313" stroke="white" stroke-width="1.4"/>
<path opacity="0.43" d="M52.3654 104.199L49.7991 120.998C47.2328 137.797 42.1001 171.395 81.3946 198.442C120.689 225.489 204.411 245.983 209.151 278.126C213.891 310.268 139.649 354.058 154.262 384.744C168.875 415.431 272.342 433.014 324.076 441.805L375.809 450.597" stroke="white" stroke-width="1.4"/>
<path opacity="0.44" d="M51.1758 105.688L48.6395 122.373C46.1033 139.059 41.0307 172.429 79.9726 199.309C118.914 226.188 201.871 246.577 206.579 278.505C211.287 310.433 137.748 353.9 152.238 384.386C166.727 414.872 269.245 432.376 320.504 441.128L371.763 449.88" stroke="white" stroke-width="1.4"/>
<path opacity="0.45" d="M49.9852 107.177L47.479 123.749C44.9728 140.32 39.9605 173.462 78.5495 200.175C117.139 226.888 199.329 247.171 204.006 278.884C208.683 310.598 135.846 353.743 150.212 384.028C164.578 414.313 266.147 431.738 316.931 440.45L367.716 449.163" stroke="white" stroke-width="1.4"/>
<path opacity="0.46" d="M48.7955 108.666L46.3194 125.124C43.8433 141.581 38.8911 174.496 77.1275 201.042C115.364 227.588 196.789 247.764 201.434 279.264C206.079 310.763 133.945 353.586 148.187 383.67C162.43 413.754 263.05 431.1 313.36 439.773L363.67 448.446" stroke="white" stroke-width="1.4"/>
<path opacity="0.47" d="M47.6049 110.156L45.1589 126.499C42.7129 142.843 37.8208 175.53 75.7044 201.908C113.588 228.287 194.247 248.358 198.861 279.643C203.475 310.928 132.043 353.428 146.162 383.311C160.281 413.195 259.952 430.462 309.787 439.095L359.623 447.729" stroke="white" stroke-width="1.4"/>
<path opacity="0.48" d="M46.4153 111.645L43.9993 127.874C41.5834 144.104 36.7515 176.563 74.2823 202.775C111.813 228.987 191.707 248.952 196.289 280.023C200.871 311.093 130.141 353.271 144.137 382.953C158.133 412.636 256.855 429.824 306.216 438.418L355.576 447.012" stroke="white" stroke-width="1.4"/>
<path opacity="0.49" d="M45.2247 113.134L42.8388 129.25C40.4529 145.365 35.6812 177.597 72.8593 203.642C110.037 229.687 189.165 249.545 193.716 280.402C198.266 311.259 128.239 353.113 142.112 382.595C155.984 412.077 253.757 429.186 302.643 437.741L351.529 446.295" stroke="white" stroke-width="1.4"/>
<path opacity="0.5" d="M44.035 114.623L41.6792 130.625C39.3234 146.627 34.6118 178.63 71.4372 204.508C108.263 230.386 186.625 250.139 191.144 280.781C195.663 311.424 126.338 352.956 140.087 382.237C153.837 411.518 250.66 428.548 299.071 437.063L347.483 445.578" stroke="white" stroke-width="1.4"/>
<path opacity="0.51" d="M42.8444 116.112L40.5187 132C38.193 147.888 33.5415 179.664 70.0142 205.375C106.487 231.086 184.084 250.733 188.571 281.161C193.058 311.589 124.436 352.798 138.062 381.879C151.688 410.959 247.562 427.91 295.499 436.386L343.436 444.861" stroke="white" stroke-width="1.4"/>
<path opacity="0.52" d="M41.6548 117.601L39.3591 133.375C37.0635 149.149 32.4722 180.697 68.5921 206.241C104.712 231.786 181.543 251.326 185.999 281.54C190.454 311.754 122.535 352.641 136.037 381.52C149.54 410.4 244.465 427.272 291.927 435.708L339.39 444.145" stroke="white" stroke-width="1.4"/>
<path opacity="0.53" d="M40.4642 119.09L38.1986 134.751C35.933 150.411 31.4019 181.731 67.1691 207.108C102.936 232.485 179.002 251.92 183.426 281.919C187.85 311.919 120.632 352.483 134.012 381.162C147.391 409.841 241.367 426.634 288.355 435.031L335.342 443.428" stroke="white" stroke-width="1.4"/>
<path opacity="0.54" d="M39.2745 120.58L37.039 136.126C34.8036 151.672 30.3326 182.764 65.747 207.975C101.161 233.185 176.461 252.514 180.854 282.299C185.246 312.084 118.731 352.326 131.987 380.804C145.243 409.282 238.27 425.996 284.783 434.354L331.296 442.711" stroke="white" stroke-width="1.4"/>
<path opacity="0.55" d="M38.0839 122.069L35.8785 137.501C33.6731 152.933 29.2623 183.798 64.3239 208.841C99.3856 233.885 173.92 253.107 178.281 282.678C182.641 312.249 116.829 352.168 129.962 380.446C143.094 408.723 235.172 425.359 281.21 433.676L327.249 441.994" stroke="white" stroke-width="1.4"/>
<path opacity="0.56" d="M36.8943 123.558L34.7189 138.876C32.5436 154.195 28.1929 184.831 62.9019 209.708C97.6108 234.584 171.379 253.701 175.709 283.057C180.038 312.414 114.928 352.011 127.937 380.088C140.946 408.164 232.074 424.721 277.639 432.999L323.203 441.277" stroke="white" stroke-width="1.4"/>
<path opacity="0.57" d="M35.7037 125.047L33.5584 140.252C31.4132 155.456 27.1226 185.865 61.4788 210.574C95.835 235.284 168.838 254.294 173.136 283.437C177.433 312.579 113.026 351.854 125.911 379.729C138.797 407.605 228.976 424.083 274.066 432.321L319.156 440.56" stroke="white" stroke-width="1.4"/>
<path opacity="0.58" d="M34.514 126.536L32.3988 141.627C30.2836 156.717 26.0533 186.898 60.0567 211.441C94.0602 235.984 166.298 254.888 170.564 283.816C174.83 312.744 111.124 351.696 123.887 379.371C136.649 407.046 225.879 423.445 270.494 431.644L315.11 439.843" stroke="white" stroke-width="1.4"/>
<path opacity="0.59" d="M33.3234 128.025L31.2383 143.002C29.1532 157.979 24.983 187.932 58.6337 212.308C92.2844 236.683 163.756 255.482 167.991 284.196C172.225 312.909 109.222 351.539 121.861 379.013C134.5 406.487 222.781 422.807 266.922 430.967L311.062 439.126" stroke="white" stroke-width="1.4"/>
<path opacity="0.6" d="M32.1338 129.515L30.0787 144.377C28.0237 159.24 23.9136 188.965 57.2116 213.174C90.5096 237.383 161.216 256.075 165.418 284.575C169.621 313.074 107.321 351.381 119.837 378.655C132.352 405.928 219.684 422.169 263.35 430.289L307.016 438.409" stroke="white" stroke-width="1.4"/>
<path opacity="0.61" d="M30.9431 131.004L28.9182 145.753C26.8932 160.501 22.8433 189.999 55.7886 214.041C88.7338 238.083 158.674 256.669 162.845 284.954C167.017 313.24 105.419 351.224 117.811 378.297C130.204 405.37 216.586 421.531 259.778 429.612L302.969 437.692" stroke="white" stroke-width="1.4"/>
<path opacity="0.62" d="M29.7535 132.493L27.7586 147.128C25.7638 161.763 21.774 191.032 54.3665 214.907C86.959 238.782 156.134 257.263 160.273 285.334C164.413 313.405 103.518 351.066 115.787 377.938C128.056 404.811 213.489 420.893 256.206 428.934L298.923 436.976" stroke="white" stroke-width="1.4"/>
<path opacity="0.63" d="M28.5629 133.982L26.5981 148.503C24.6333 163.024 20.7037 192.066 52.9435 215.774C85.1832 239.482 153.592 257.856 157.7 285.713C161.808 313.57 101.615 350.909 113.761 377.58C125.907 404.252 210.391 420.255 252.633 428.257L294.876 436.259" stroke="white" stroke-width="1.4"/>
<path opacity="0.64" d="M27.3732 135.471L25.4385 149.878C23.5038 164.285 19.6344 193.1 51.5214 216.641C83.4084 240.182 151.052 258.45 155.128 286.092C159.205 313.735 99.7142 350.751 111.737 377.222C123.759 403.693 207.294 419.617 249.062 427.58L290.829 435.542" stroke="white" stroke-width="1.4"/>
<path opacity="0.65" d="M26.1826 136.96L24.278 151.254C22.3734 165.547 18.5641 194.133 50.0984 217.507C81.6327 240.882 148.511 259.044 152.555 286.472C156.6 313.9 97.812 350.594 109.711 376.864C121.61 403.134 204.196 418.979 245.489 426.902L286.782 434.825" stroke="white" stroke-width="1.4"/>
<path opacity="0.66" d="M24.993 138.449L23.1184 152.629C21.2439 166.808 17.4947 195.167 48.6763 218.374C79.8578 241.581 145.97 259.637 149.983 286.851C153.997 314.065 95.9108 350.437 107.686 376.506C119.462 402.575 201.099 418.341 241.918 426.225L282.736 434.108" stroke="white" stroke-width="1.4"/>
<path opacity="0.67" d="M23.8024 139.939L21.9579 154.004C20.1134 168.069 16.4244 196.2 47.2532 219.241C78.0821 242.281 143.429 260.231 147.41 287.23C151.392 314.23 94.0086 350.279 105.661 376.147C117.313 402.016 198.001 417.703 238.345 425.547L278.689 433.391" stroke="white" stroke-width="1.4"/>
<path opacity="0.68" d="M22.6128 141.428L20.7983 155.379C18.9839 169.331 15.3551 197.234 45.8312 220.107C76.3073 242.981 140.888 260.825 144.838 287.61C148.788 314.395 92.1074 350.122 103.636 375.789C115.165 401.457 194.904 417.066 234.773 424.87L274.643 432.674" stroke="white" stroke-width="1.4"/>
<path opacity="0.69" d="M21.4221 142.917L19.6378 156.755C17.8535 170.592 14.2848 198.267 44.4081 220.974C74.5315 243.68 138.347 261.418 142.265 287.989C146.184 314.56 90.2052 349.964 101.611 375.431C113.016 400.898 191.806 416.428 231.201 424.192L270.595 431.957" stroke="white" stroke-width="1.4"/>
<path opacity="0.7" d="M20.2325 144.406L18.4782 158.13C16.724 171.853 13.2155 199.301 42.9861 221.84C72.7567 244.38 135.806 262.012 139.693 288.369C143.58 314.725 88.304 349.807 99.5862 375.073C110.868 400.339 188.709 415.79 227.629 423.515L266.549 431.24" stroke="white" stroke-width="1.4"/>
<path opacity="0.71" d="M19.0419 145.895L17.3177 159.505C15.5935 173.115 12.1452 200.334 41.563 222.707C70.9809 245.08 133.265 262.606 137.12 288.748C140.975 314.89 86.4018 349.649 97.5607 374.715C108.72 399.78 185.611 415.152 224.056 422.838L262.502 430.524" stroke="white" stroke-width="1.4"/>
<path opacity="0.72" d="M17.8522 147.384L16.1581 160.88C14.464 174.376 11.0758 201.368 40.1409 223.574C69.2061 245.779 130.725 263.199 134.548 289.127C138.372 315.055 84.5006 349.492 95.5361 374.356C106.572 399.221 182.514 414.514 220.485 422.16L258.456 429.807" stroke="white" stroke-width="1.4"/>
<path opacity="0.73" d="M16.6616 148.874L14.9976 162.256C13.3336 175.637 10.0055 202.401 38.7179 224.44C67.4303 246.479 128.183 263.793 131.975 289.507C135.767 315.221 82.5984 349.334 93.5106 373.998C104.423 398.662 179.416 413.876 216.912 421.483L254.409 429.09" stroke="white" stroke-width="1.4"/>
<path opacity="0.74" d="M15.472 150.363L13.838 163.631C12.2041 176.899 8.93617 203.435 37.2958 225.307C65.6555 247.179 125.643 264.386 129.403 289.886C133.164 315.386 80.6972 349.177 91.486 373.64C102.275 398.103 176.319 413.238 213.341 420.805L250.363 428.373" stroke="white" stroke-width="1.4"/>
<path opacity="0.75" d="M14.2814 151.852L12.6775 165.006C11.0736 178.16 7.86587 204.468 35.8728 226.173C63.8797 247.878 123.101 264.98 126.83 290.265C130.559 315.551 78.795 349.02 89.4605 373.282C100.126 397.544 173.221 412.6 209.768 420.128L246.315 427.656" stroke="white" stroke-width="1.4"/>
<path opacity="0.76" d="M13.0917 153.341L11.5179 166.381C9.94413 179.421 6.79653 205.502 34.4507 227.04C62.1049 248.578 120.561 265.574 124.258 290.645C127.955 315.716 76.8938 348.862 87.4359 372.924C97.978 396.985 170.124 411.962 206.196 419.451L242.269 426.939" stroke="white" stroke-width="1.4"/>
<path opacity="0.77" d="M11.9011 154.831L10.3574 167.757C8.81368 180.684 5.72623 206.536 33.0277 227.908C60.3291 249.279 118.019 266.168 121.685 291.025C125.351 315.882 74.9916 348.706 85.4104 372.566C95.8291 396.427 167.026 411.325 202.624 418.774L238.222 426.223" stroke="white" stroke-width="1.4"/>
<path opacity="0.78" d="M10.7115 156.32L9.19783 169.133C7.68418 181.945 4.65689 207.57 31.6056 228.774C58.5543 249.978 115.479 266.762 119.113 291.404C122.747 316.047 73.0904 348.548 83.3858 372.208C93.6811 395.868 163.928 410.687 199.052 418.097L234.176 425.506" stroke="white" stroke-width="1.4"/>
<path opacity="0.79" d="M9.52087 157.809L8.0373 170.508C6.55373 183.206 3.58659 208.603 30.1825 229.641C56.7785 250.678 112.938 267.356 116.54 291.784C120.142 316.212 71.1882 348.391 81.3602 371.85C91.5323 395.309 160.83 410.049 195.48 417.419L230.129 424.789" stroke="white" stroke-width="1.4"/>
<path opacity="0.8" d="M8.33124 159.299L6.87774 171.883C5.42425 184.468 2.51726 209.637 28.7605 230.507C55.0037 251.378 110.397 267.949 113.968 292.163C117.539 316.377 69.287 348.233 79.3357 371.492C89.3843 394.75 157.733 409.411 191.908 416.742L226.082 424.072" stroke="white" stroke-width="1.4"/>
<path opacity="0.81" d="M7.14061 160.788L5.71719 173.258C4.29378 185.729 1.44694 210.671 27.3374 231.374C53.2279 252.077 107.856 268.543 111.395 292.543C114.934 316.542 67.3848 348.076 77.3101 371.134C87.2354 394.192 154.635 408.774 188.335 416.065L222.035 423.356" stroke="white" stroke-width="1.4"/>
<path opacity="0.82" d="M5.95098 162.277L4.55764 174.634C3.1643 186.99 0.377622 211.704 25.9154 232.241C51.4531 252.777 105.315 269.137 108.823 292.922C112.331 316.707 65.4836 347.918 75.2856 370.775C85.0875 393.633 151.538 408.136 184.764 415.387L217.989 422.639" stroke="white" stroke-width="1.4"/>
<path opacity="0.83" d="M4.76037 163.766L3.39711 176.009C2.03385 188.252 -0.692678 212.738 24.4923 233.107C49.6773 253.477 102.774 269.73 106.25 293.301C109.726 316.872 63.5815 347.761 73.26 370.417C82.9386 393.074 148.44 407.498 181.191 414.71L213.942 421.922" stroke="white" stroke-width="1.4"/>
<path opacity="0.84" d="M3.57072 165.255L2.23754 177.384C0.904351 189.513 -1.76202 213.771 23.0702 233.974C47.9025 254.176 100.233 270.324 103.678 293.681C107.122 317.037 61.6802 347.603 71.2355 370.059C80.7907 392.515 145.343 406.86 177.619 414.032L209.896 421.205" stroke="white" stroke-width="1.4"/>
<path opacity="0.85" d="M2.38012 166.744L1.07701 178.759C-0.226102 190.775 -2.83232 214.805 21.6472 234.84C46.1267 254.876 97.692 270.918 101.105 294.06C104.518 317.202 59.7781 347.446 69.2099 369.701C78.6418 391.956 142.245 406.222 174.047 413.355L205.849 420.488" stroke="white" stroke-width="1.4"/>
<path opacity="0.86" d="M1.19048 168.234L-0.0825556 180.135C-1.35559 192.036 -3.90165 215.838 20.2251 235.707C44.3519 255.576 95.1515 271.511 98.5328 294.439C101.914 317.368 57.8768 347.289 67.1854 369.343C76.4939 391.397 139.148 405.584 170.475 412.678L201.802 419.771" stroke="white" stroke-width="1.4"/>
<path opacity="0.87" d="M-0.000139715 169.723L-1.2431 181.51C-2.48605 193.297 -4.97196 216.872 18.8021 236.574C42.5761 256.276 92.6101 272.105 95.9597 294.819C99.3094 317.533 55.9747 347.131 65.1598 368.984C74.345 390.838 136.05 404.946 166.903 412L197.755 419.054" stroke="white" stroke-width="1.4"/>
<path opacity="0.88" d="M-1.18977 171.212L-2.40265 182.885C-3.61553 194.559 -6.04128 217.905 17.38 237.44C40.8013 256.975 90.0697 272.698 93.3877 295.198C96.7057 317.698 54.0735 346.974 63.1353 368.626C72.1971 390.279 132.953 404.308 163.331 411.323L193.709 418.337" stroke="white" stroke-width="1.4"/>
<path opacity="0.89" d="M-2.38041 172.701L-3.56321 184.26C-4.74601 195.82 -7.11161 218.939 15.957 238.307C39.0255 257.675 87.5282 273.292 90.8147 295.577C94.1011 317.863 52.1712 346.816 61.1097 368.268C70.0482 389.72 129.855 403.67 159.758 410.645L189.662 417.62" stroke="white" stroke-width="1.4"/>
<path opacity="0.9" d="M-3.57004 174.19L-4.72276 185.636C-5.87549 197.081 -8.18094 219.972 14.5349 239.173C37.2507 258.375 84.9878 273.886 88.2426 295.957C91.4975 318.028 50.27 346.659 59.0852 367.91C67.9003 389.161 126.758 403.032 156.187 409.968L185.616 416.904" stroke="white" stroke-width="1.4"/>
<path opacity="0.91" d="M-4.76065 175.679L-5.8833 187.011C-7.00595 198.343 -9.25125 221.006 13.1118 240.04C35.4749 259.074 82.4464 274.479 85.6696 296.336C88.8929 318.193 48.3679 346.501 57.0596 367.552C65.7514 388.602 123.66 402.394 152.614 409.291L181.568 416.187" stroke="white" stroke-width="1.4"/>
<path opacity="0.92" d="M-5.95029 177.169L-7.04286 188.386C-8.13544 199.604 -10.3206 222.039 11.6898 240.907C33.7001 259.774 79.906 275.073 83.0976 296.716C86.2892 318.358 46.4666 346.344 55.0351 367.193C63.6035 388.043 120.563 401.756 149.043 408.613L177.522 415.47" stroke="white" stroke-width="1.4"/>
<path opacity="0.93" d="M-7.14091 178.658L-8.2034 189.761C-9.2659 200.865 -11.3909 223.073 10.2667 241.773C31.9243 260.474 77.3645 275.667 80.5246 297.095C83.6846 318.523 44.5645 346.186 53.0095 366.835C61.4546 387.484 117.465 401.118 145.47 407.936L173.475 414.753" stroke="white" stroke-width="1.4"/>
<path opacity="0.94" d="M-8.33054 180.147L-9.36296 191.137C-10.3954 202.127 -12.4602 224.106 8.84466 242.64C30.1495 261.173 74.8241 276.26 77.9525 297.474C81.081 318.688 42.6633 346.029 50.985 366.477C59.3067 386.925 114.368 400.481 141.898 407.258L169.429 414.036" stroke="white" stroke-width="1.4"/>
<path opacity="0.95" d="M-9.52116 181.636L-10.5235 192.512C-11.5258 203.388 -13.5305 225.14 7.42161 243.506C28.3737 261.873 72.2827 276.854 75.3795 297.854C78.4763 318.853 40.7611 345.872 48.9594 366.119C57.1578 386.366 111.27 399.843 138.326 406.581L165.382 413.319" stroke="white" stroke-width="1.4"/>
<path opacity="0.96" d="M-10.7108 183.125L-11.6831 193.887C-12.6553 204.649 -14.5999 226.173 5.99954 244.373C26.5989 262.573 69.7422 277.448 72.8075 298.233C75.8727 319.018 38.8599 345.714 46.9348 365.761C55.0098 385.807 108.173 399.205 134.754 405.903L161.336 412.602" stroke="white" stroke-width="1.4"/>
<path opacity="0.97" d="M-11.9014 184.614L-12.8436 195.262C-13.7858 205.911 -15.6702 227.207 4.5765 245.24C24.8232 263.272 67.2008 278.041 70.2345 298.612C73.2681 319.184 36.9577 345.557 44.9093 365.403C52.8609 385.248 105.075 398.567 131.181 405.226L157.288 411.885" stroke="white" stroke-width="1.4"/>
<path opacity="0.98" d="M-13.091 186.103L-14.0032 196.638C-14.9153 207.172 -16.7395 228.241 3.15443 246.106C23.0483 263.972 64.6604 278.635 67.6624 298.992C70.6645 319.349 35.0565 345.399 42.8847 365.044C50.713 384.689 101.978 397.929 127.61 404.549L153.242 411.168" stroke="white" stroke-width="1.4"/>
<path opacity="0.99" d="M-14.2817 187.593L-15.1637 198.013C-16.0457 208.433 -17.8098 229.274 1.73138 246.973C21.2726 264.672 62.119 279.229 65.0894 299.371C68.0598 319.514 33.1543 345.242 40.8592 364.686C48.5641 384.13 98.8795 397.291 124.037 403.871L149.195 410.451" stroke="white" stroke-width="1.4"/>
<path d="M-15.4713 189.082L-16.3233 199.388C-17.1752 209.695 -18.8791 230.308 0.309308 247.839C19.4977 265.371 59.5785 279.822 62.5174 299.751C65.4562 319.679 31.2531 345.084 38.8346 364.328C46.4162 383.571 95.7825 396.653 120.466 403.194L145.149 409.735" stroke="white" stroke-width="1.4"/>
</g>
</g>
<defs>
<filter id="filter0_d_2_1793" x="0.458887" y="0.680855" width="1281.08" height="616.082" filterUnits="userSpaceOnUse" color-interpolation-filters="sRGB">
<feFlood flood-opacity="0" result="BackgroundImageFix"/>
<feColorMatrix in="SourceAlpha" type="matrix" values="0 0 0 0 0 0 0 0 0 0 0 0 0 0 0 0 0 0 127 0" result="hardAlpha"/>
<feOffset dy="3.22197"/>
<feGaussianBlur stdDeviation="10.2706"/>
<feComposite in2="hardAlpha" operator="out"/>
<feColorMatrix type="matrix" values="0 0 0 0 0.36875 0 0 0 0 0.373773 0 0 0 0 0.375 0 0 0 0.14 0"/>
<feBlend mode="normal" in2="BackgroundImageFix" result="effect1_dropShadow_2_1793"/>
<feBlend mode="normal" in="SourceGraphic" in2="effect1_dropShadow_2_1793" result="shape"/>
</filter>
<linearGradient id="paint0_linear_2_1793" x1="78.5" y1="-209.889" x2="1530.74" y2="785.812" gradientUnits="userSpaceOnUse">
<stop stop-color="#19C5EF"/>
<stop offset="0.489583" stop-color="#7FBBED"/>
<stop offset="0.963542" stop-color="#E3AAEB"/>
</linearGradient>
<linearGradient id="paint1_linear_2_1793" x1="78.5" y1="-209.889" x2="1530.74" y2="785.812" gradientUnits="userSpaceOnUse">
<stop stop-color="#19C5EF"/>
<stop offset="0.489583" stop-color="#7FBBED"/>
<stop offset="0.963542" stop-color="#E3AAEB"/>
</linearGradient>
</defs>
</svg>
